/* XPM */
static char *result[] = {
/* columns rows colors chars-per-pixel */
"64 64 4 1 ",
"  c #7E3125",
". c #DD442C",
"X c #FC683B",
"o c None",
/* pixels */
"oooooooooooooooooooooooooooooooooooooooooooooooooooooooooooooooo",
"oooooooooooooooooooooooooooooooooooooooooooooooooooooooooooooooo",
"oooooooooooooooooooooooooooooooooooooooooooooooooooooooooooooooo",
"oooooooooooooooooooooooooooooooooooooooooooooooooooooooooooooooo",
"oooooooooooooooooooooooooooooooooooooooooooooooooooooooooooooooo",
"oooooooooooooooooooooooooooooooooooooooooooooooooooooooooooooooo",
"oooooooooooooooooooooooooooooooooooooooooooooooooooooooooooooooo",
"oooooooooooooooooooooooooooooooooooooooooooooooooooooooooooooooo",
"oooooooooooooooooooooooooooooooooooooooooooooooooooooooooooooooo",
"oooooooooooooooooooooooooooooooooooooooooooooooooooooooooooooooo",
"oooooooooooooooooooooooooooooooooooooooooooooooooooooooooooooooo",
"oooooooooooooo              oooooooo              oooooooooooooo",
"oooooooooooooo              oooooooo              oooooooooooooo",
"oooooooooooooo              oooooooo              oooooooooooooo",
"ooooooooooo                                          ooooooooooo",
"ooooooooooo                                          ooooooooooo",
"ooooooooooo                                          ooooooooooo",
"ooooooooooo                                          ooooooooooo",
"ooooooo           XXXXXXX              XXXXXXX           ooooooo",
"ooooooo           XXXXXXX              XXXXXXX           ooooooo",
"ooooooo           XXXXXXX              XXXXXXX           ooooooo",
"ooooooo       XXXXXXXXXXXXXX        XXXXXXXXXXXXXX       ooooooo",
"ooooooo       XXXXXXXXXXXXXX        XXXXXXXXXXXXXX       ooooooo",
"ooooooo       XXXXXXXXXXXXXX        XXXXXXXXXXXXXX       ooooooo",
"ooooooo       XXXXXXXXXXXXXX        XXXXXXXXXXXXXX       ooooooo",
"ooooooo       XXXXXXXXXXXXXXXXXXXXXXXXXXXXXXXXXXXX       ooooooo",
"ooooooo       XXXXXXXXXXXXXXXXXXXXXXXXXXXXXXXXXXXX       ooooooo",
"ooooooo       XXXXXXXXXXXXXXXXXXXXXXXXXXXXXXXXXXXX       ooooooo",
"ooooooo       XXXXXXXXXXXXXXXXXXXXXXXXXXXXXXXXXXXX       ooooooo",
"ooooooo       XXXXXXXXXXXXXXXXXXXXXXXXXXXXXXXXXXXX       ooooooo",
"ooooooo       XXXXXXXXXXXXXXXXXXXXXXXXXXXXXXXXXXXX       ooooooo",
"ooooooo       XXXXXXXXXXXXXXXXXXXXXXXXXXXXXXXXXXXX       ooooooo",
"ooooooo           XXX......................XXX           ooooooo",
"ooooooo           XXX......................XXX           ooooooo",
"ooooooo           XXX......................XXX           ooooooo",
"ooooooo           XXX......................XXX           ooooooo",
"ooooooooooo          ......................          ooooooooooo",
"ooooooooooo          ......................          ooooooooooo",
"ooooooooooo          ......................          ooooooooooo",
"oooooooooooooo           ..............           oooooooooooooo",
"oooooooooooooo           ..............           oooooooooooooo",
"oooooooooooooo           ..............           oooooooooooooo",
"oooooooooooooo           ..............           oooooooooooooo",
"oooooooooooooooooo          ........          oooooooooooooooooo",
"oooooooooooooooooo          ........          oooooooooooooooooo",
"oooooooooooooooooo          ........          oooooooooooooooooo",
"ooooooooooooooooooooo                      ooooooooooooooooooooo",
"ooooooooooooooooooooo                      ooooooooooooooooooooo",
"ooooooooooooooooooooo                      ooooooooooooooooooooo",
"ooooooooooooooooooooo                      ooooooooooooooooooooo",
"ooooooooooooooooooooooooo              ooooooooooooooooooooooooo",
"ooooooooooooooooooooooooo              ooooooooooooooooooooooooo",
"ooooooooooooooooooooooooo              ooooooooooooooooooooooooo",
"oooooooooooooooooooooooooooooooooooooooooooooooooooooooooooooooo",
"oooooooooooooooooooooooooooooooooooooooooooooooooooooooooooooooo",
"oooooooooooooooooooooooooooooooooooooooooooooooooooooooooooooooo",
"oooooooooooooooooooooooooooooooooooooooooooooooooooooooooooooooo",
"oooooooooooooooooooooooooooooooooooooooooooooooooooooooooooooooo",
"oooooooooooooooooooooooooooooooooooooooooooooooooooooooooooooooo",
"oooooooooooooooooooooooooooooooooooooooooooooooooooooooooooooooo",
"oooooooooooooooooooooooooooooooooooooooooooooooooooooooooooooooo",
"oooooooooooooooooooooooooooooooooooooooooooooooooooooooooooooooo",
"oooooooooooooooooooooooooooooooooooooooooooooooooooooooooooooooo",
"oooooooooooooooooooooooooooooooooooooooooooooooooooooooooooooooo"
};
