/* XPM */
static char *result[] = {
/* columns rows colors chars-per-pixel */
"64 64 4 1 ",
"  c #434A5F",
". c #C2E3E8",
"X c #DFF6F5",
"o c white",
/* pixels */
"....                                                            ",
"....                                                            ",
"....                                                            ",
"....                                                            ",
"                                                                ",
"                                                                ",
"                                                                ",
"       ooooooooooooooooooooooooooooooooooooooooooooooooooooooooo",
"       ooooooooooooooooooooooooooooooooooooooooooooooooooooooooo",
"       ooooooooooooooooooooooooooooooooooooooooooooooooooooooooo",
"       ooooooooooooooooooooooooooooooooooooooooooooooooooooooooo",
"       ooooooooooooooooooooooooooooooooooooooooooooooooooooooooo",
"       ooooooooooooooooooooooooooooooooooooooooooooooooooooooooo",
"       ooooooooooooooooooooooooooooooooooooooooooooooooooooooooo",
"       XXXXoooooooXXXXXXXXXXXXXXoooooooooooooooooooooooooXXXXXXX",
"       XXXXoooooooXXXXXXXXXXXXXXoooooooooooooooooooooooooXXXXXXX",
"       XXXXoooooooXXXXXXXXXXXXXXoooooooooooooooooooooooooXXXXXXX",
"       XXXXoooooooXXXXXXXXXXXXXXoooooooooooooooooooooooooXXXXXXX",
"           XXXXXXXXXXXXXXXXXXXXXXXXXXXXoooooooooooXXXXXXXXXXXXXX",
"           XXXXXXXXXXXXXXXXXXXXXXXXXXXXoooooooooooXXXXXXXXXXXXXX",
"           XXXXXXXXXXXXXXXXXXXXXXXXXXXXoooooooooooXXXXXXXXXXXXXX",
"....       XXXXXXXXXXXXXXXXXXXXXXXXXXXXXXXXXXXXXXXXXXXXXXXXXXXXX",
"....       XXXXXXXXXXXXXXXXXXXXXXXXXXXXXXXXXXXXXXXXXXXXXXXXXXXXX",
"....       XXXXXXXXXXXXXXXXXXXXXXXXXXXXXXXXXXXXXXXXXXXXXXXXXXXXX",
"....       XXXXXXXXXXXXXXXXXXXXXXXXXXXXXXXXXXXXXXXXXXXXXXXXXXXXX",
"....              XXXXXXXXXXXXXXXXXXXXXXXXXXXXXXXXXXXXXXXXXXXXXX",
"....              XXXXXXXXXXXXXXXXXXXXXXXXXXXXXXXXXXXXXXXXXXXXXX",
"....              XXXXXXXXXXXXXXXXXXXXXXXXXXXXXXXXXXXXXXXXXXXXXX",
".......                     ooooXXXXXXXXXXXXXXXXXXXXXXXXXXXXXXXX",
".......                     ooooXXXXXXXXXXXXXXXXXXXXXXXXXXXXXXXX",
".......                     ooooXXXXXXXXXXXXXXXXXXXXXXXXXXXXXXXX",
".......                     ooooXXXXXXXXXXXXXXXXXXXXXXXXXXXXXXXX",
"..............                  XXXXXXXXXXXXXXXXXXXXXXXXXXXXXXXX",
"..............                  XXXXXXXXXXXXXXXXXXXXXXXXXXXXXXXX",
"..............                  XXXXXXXXXXXXXXXXXXXXXXXXXXXXXXXX",
"..............                  XXXXXXXXXXXXXXXXXXXXXXXXXXXXXXXX",
".........................       oooooooXXXXXXXXXXXooooooo       ",
".........................       oooooooXXXXXXXXXXXooooooo       ",
".........................       oooooooXXXXXXXXXXXooooooo       ",
".........................              ooooooooooo              ",
".........................              ooooooooooo              ",
".........................              ooooooooooo              ",
".........................              ooooooooooo              ",
"............................                                ....",
"............................                                ....",
"............................                                ....",
"....................................                 ...........",
"....................................                 ...........",
"....................................                 ...........",
"....................................                 ...........",
"................................................................",
"................................................................",
"................................................................",
"................................................................",
"................................................................",
"................................................................",
"................................................................",
"................................................................",
"................................................................",
"................................................................",
"................................................................",
"................................................................",
"................................................................",
"................................................................"
};
