/* XPM */
static char *result[] = {
/* columns rows colors chars-per-pixel */
"64 64 4 1 ",
"  c #6F3E43",
". c #F4B41B",
"X c #FEE481",
"o c #C2E3E8",
/* pixels */
"oooooooooooooooooooooooooooooooooooooooooooooooooooooooooooooooo",
"oooooooooooooooooooooooooooooooooooooooooooooooooooooooooooooooo",
"oooooooooooooooooooooooooooooooooooooooooooooooooooooooooooooooo",
"oooooooooooooooooooooooooooooooooooooooooooooooooooooooooooooooo",
"oooooooooooooooooooooooooooooooooooooooooooooooooooooooooooooooo",
"oooooooooooooooooooooooooooooooooooooooooooooooooooooooooooooooo",
"oooooooooooooooooooooooooooooooooooooooooooooooooooooooooooooooo",
"oooooooooooooooooooooooooooooooooooooooooooooooooooooooooooooooo",
"oooooooooooooooooooooooooooooooooooooooooooooooooooooooooooooooo",
"oooooooooooooooooooooooooooooooooooooooooooooooooooooooooooooooo",
"oooooooooooooooooooooooooooooooooooooooooooooooooooooooooooooooo",
"ooooooooooooooooooooo                      ooooooooooooooooooooo",
"ooooooooooooooooooooo                      ooooooooooooooooooooo",
"ooooooooooooooooooooo                      ooooooooooooooooooooo",
"oooooooooooooooooo                            oooooooooooooooooo",
"oooooooooooooooooo                            oooooooooooooooooo",
"oooooooooooooooooo                            oooooooooooooooooo",
"oooooooooooooooooo                            oooooooooooooooooo",
"oooooooooooooooooo       ..............       oooooooooooooooooo",
"oooooooooooooooooo       ..............       oooooooooooooooooo",
"oooooooooooooooooo       ..............       oooooooooooooooooo",
"oooooooooooooooooo       ..............       oooooooooooooooooo",
"oooooooooooooooooo       ..............       oooooooooooooooooo",
"oooooooooooooooooo       ..............       oooooooooooooooooo",
"oooooooooooooooooo       ..............       oooooooooooooooooo",
"oooooooooooooooooo       XXX........XXX       oooooooooooooooooo",
"oooooooooooooooooo       XXX........XXX       oooooooooooooooooo",
"oooooooooooooooooo       XXX........XXX       oooooooooooooooooo",
"oooooooooooooooooo       XXX........XXX       oooooooooooooooooo",
"oooooooooooooooooo       XXX........XXX       oooooooooooooooooo",
"oooooooooooooooooo       XXX........XXX       oooooooooooooooooo",
"oooooooooooooooooo       XXX........XXX       oooooooooooooooooo",
"oooooooooooooooooo       XXX........XXX       oooooooooooooooooo",
"oooooooooooooooooo       XXX........XXX       oooooooooooooooooo",
"oooooooooooooooooo       XXX........XXX       oooooooooooooooooo",
"oooooooooooooooooo       XXX........XXX       oooooooooooooooooo",
"oooooooooooooooooo       XXX........XXX       oooooooooooooooooo",
"oooooooooooooooooo       XXX........XXX       oooooooooooooooooo",
"oooooooooooooooooo       XXX........XXX       oooooooooooooooooo",
"oooooooooooooooooo       ..............       oooooooooooooooooo",
"oooooooooooooooooo       ..............       oooooooooooooooooo",
"oooooooooooooooooo       ..............       oooooooooooooooooo",
"oooooooooooooooooo       ..............       oooooooooooooooooo",
"oooooooooooooooooo       ..............       oooooooooooooooooo",
"oooooooooooooooooo       ..............       oooooooooooooooooo",
"oooooooooooooooooo       ..............       oooooooooooooooooo",
"oooooooooooooooooo                            oooooooooooooooooo",
"oooooooooooooooooo                            oooooooooooooooooo",
"oooooooooooooooooo                            oooooooooooooooooo",
"oooooooooooooooooo                            oooooooooooooooooo",
"ooooooooooooooooooooo                      ooooooooooooooooooooo",
"ooooooooooooooooooooo                      ooooooooooooooooooooo",
"ooooooooooooooooooooo                      ooooooooooooooooooooo",
"oooooooooooooooooooooooooooooooooooooooooooooooooooooooooooooooo",
"oooooooooooooooooooooooooooooooooooooooooooooooooooooooooooooooo",
"oooooooooooooooooooooooooooooooooooooooooooooooooooooooooooooooo",
"oooooooooooooooooooooooooooooooooooooooooooooooooooooooooooooooo",
"oooooooooooooooooooooooooooooooooooooooooooooooooooooooooooooooo",
"oooooooooooooooooooooooooooooooooooooooooooooooooooooooooooooooo",
"oooooooooooooooooooooooooooooooooooooooooooooooooooooooooooooooo",
"oooooooooooooooooooooooooooooooooooooooooooooooooooooooooooooooo",
"oooooooooooooooooooooooooooooooooooooooooooooooooooooooooooooooo",
"oooooooooooooooooooooooooooooooooooooooooooooooooooooooooooooooo",
"oooooooooooooooooooooooooooooooooooooooooooooooooooooooooooooooo"
};
