/* XPM */
static char *result[] = {
/* columns rows colors chars-per-pixel */
"64 64 4 1 ",
"  c #6F3E43",
". c #F4B41B",
"X c #FEE481",
"o c #C2E3E8",
/* pixels */
"oooooooooooooooooooooooooooooooooooooooooooooooooooooooooooooooo",
"oooooooooooooooooooooooooooooooooooooooooooooooooooooooooooooooo",
"oooooooooooooooooooooooooooooooooooooooooooooooooooooooooooooooo",
"oooooooooooooooooooooooooooooooooooooooooooooooooooooooooooooooo",
"oooooooooooooooooooooooooooooooooooooooooooooooooooooooooooooooo",
"oooooooooooooooooooooooooooooooooooooooooooooooooooooooooooooooo",
"oooooooooooooooooooooooooooooooooooooooooooooooooooooooooooooooo",
"oooooooooooooooooooooooooooooooooooooooooooooooooooooooooooooooo",
"oooooooooooooooooooooooooooooooooooooooooooooooooooooooooooooooo",
"oooooooooooooooooooooooooooooooooooooooooooooooooooooooooooooooo",
"oooooooooooooooooooooooooooooooooooooooooooooooooooooooooooooooo",
"oooooooooooooooooo                            oooooooooooooooooo",
"oooooooooooooooooo                            oooooooooooooooooo",
"oooooooooooooooooo                            oooooooooooooooooo",
"oooooooooooooo                                    oooooooooooooo",
"oooooooooooooo                                    oooooooooooooo",
"oooooooooooooo                                    oooooooooooooo",
"oooooooooooooo                                    oooooooooooooo",
"ooooooooooo          ......................          ooooooooooo",
"ooooooooooo          ......................          ooooooooooo",
"ooooooooooo          ......................          ooooooooooo",
"ooooooooooo       .......XXXXXXXXXXXXXX.......       ooooooooooo",
"ooooooooooo       .......XXXXXXXXXXXXXX.......       ooooooooooo",
"ooooooooooo       .......XXXXXXXXXXXXXX.......       ooooooooooo",
"ooooooooooo       .......XXXXXXXXXXXXXX.......       ooooooooooo",
"ooooooooooo       ...XXXXXXXXXXXXXXXXXXXXXX...       ooooooooooo",
"ooooooooooo       ...XXXXXXXXXXXXXXXXXXXXXX...       ooooooooooo",
"ooooooooooo       ...XXXXXXXXXXXXXXXXXXXXXX...       ooooooooooo",
"ooooooooooo       ...XXXXXXX........XXXXXXX...       ooooooooooo",
"ooooooooooo       ...XXXXXXX........XXXXXXX...       ooooooooooo",
"ooooooooooo       ...XXXXXXX........XXXXXXX...       ooooooooooo",
"ooooooooooo       ...XXXXXXX........XXXXXXX...       ooooooooooo",
"ooooooooooo       ...XXXXXXX........XXXXXXX...       ooooooooooo",
"ooooooooooo       ...XXXXXXX........XXXXXXX...       ooooooooooo",
"ooooooooooo       ...XXXXXXX........XXXXXXX...       ooooooooooo",
"ooooooooooo       ...XXXXXXX........XXXXXXX...       ooooooooooo",
"ooooooooooo       ...XXXXXXXXXXXXXXXXXXXXXX...       ooooooooooo",
"ooooooooooo       ...XXXXXXXXXXXXXXXXXXXXXX...       ooooooooooo",
"ooooooooooo       ...XXXXXXXXXXXXXXXXXXXXXX...       ooooooooooo",
"ooooooooooo       .......XXXXXXXXXXXXXX.......       ooooooooooo",
"ooooooooooo       .......XXXXXXXXXXXXXX.......       ooooooooooo",
"ooooooooooo       .......XXXXXXXXXXXXXX.......       ooooooooooo",
"ooooooooooo       .......XXXXXXXXXXXXXX.......       ooooooooooo",
"ooooooooooo          ......................          ooooooooooo",
"ooooooooooo          ......................          ooooooooooo",
"ooooooooooo          ......................          ooooooooooo",
"oooooooooooooo                                    oooooooooooooo",
"oooooooooooooo                                    oooooooooooooo",
"oooooooooooooo                                    oooooooooooooo",
"oooooooooooooo                                    oooooooooooooo",
"oooooooooooooooooo                            oooooooooooooooooo",
"oooooooooooooooooo                            oooooooooooooooooo",
"oooooooooooooooooo                            oooooooooooooooooo",
"oooooooooooooooooooooooooooooooooooooooooooooooooooooooooooooooo",
"oooooooooooooooooooooooooooooooooooooooooooooooooooooooooooooooo",
"oooooooooooooooooooooooooooooooooooooooooooooooooooooooooooooooo",
"oooooooooooooooooooooooooooooooooooooooooooooooooooooooooooooooo",
"oooooooooooooooooooooooooooooooooooooooooooooooooooooooooooooooo",
"oooooooooooooooooooooooooooooooooooooooooooooooooooooooooooooooo",
"oooooooooooooooooooooooooooooooooooooooooooooooooooooooooooooooo",
"oooooooooooooooooooooooooooooooooooooooooooooooooooooooooooooooo",
"oooooooooooooooooooooooooooooooooooooooooooooooooooooooooooooooo",
"oooooooooooooooooooooooooooooooooooooooooooooooooooooooooooooooo",
"oooooooooooooooooooooooooooooooooooooooooooooooooooooooooooooooo"
};
