/* XPM */
static char *result[] = {
/* columns rows colors chars-per-pixel */
"64 64 5 1 ",
"  c #434A5F",
". c #0F688D",
"X c #1490C3",
"o c #2CC5F6",
"O c #C2E3E8",
/* pixels */
"OOOO                            OOOOOOOOOOOOOOOOOOOOOOOOOOOOOOOO",
"OOOO                            OOOOOOOOOOOOOOOOOOOOOOOOOOOOOOOO",
"OOOO                            OOOOOOOOOOOOOOOOOOOOOOOOOOOOOOOO",
"OOOO                            OOOOOOOOOOOOOOOOOOOOOOOOOOOOOOOO",
"                                                                ",
"                                                                ",
"                                                                ",
"       XXXXXXXXXXXXXXooooooo                                    ",
"       XXXXXXXXXXXXXXooooooo                                    ",
"       XXXXXXXXXXXXXXooooooo                                    ",
"       XXXXXXXXXXXXXXooooooo                                    ",
"       XXXXooooooooooooooooo....XXXXXXXXXXXXXXXXXXXXXXXXXXXXXXXX",
"       XXXXooooooooooooooooo....XXXXXXXXXXXXXXXXXXXXXXXXXXXXXXXX",
"       XXXXooooooooooooooooo....XXXXXXXXXXXXXXXXXXXXXXXXXXXXXXXX",
"       XXXXXXXXXXXXXXooooooo....XXXXXXXXXXXXXXXXXXXXXXXXXXXXXXXX",
"       XXXXXXXXXXXXXXooooooo....XXXXXXXXXXXXXXXXXXXXXXXXXXXXXXXX",
"       XXXXXXXXXXXXXXooooooo....XXXXXXXXXXXXXXXXXXXXXXXXXXXXXXXX",
"       XXXXXXXXXXXXXXooooooo....XXXXXXXXXXXXXXXXXXXXXXXXXXXXXXXX",
"       XXXXooooooooooooooooo....XXXXoooooooooooooooooooooooooooo",
"       XXXXooooooooooooooooo....XXXXoooooooooooooooooooooooooooo",
"       XXXXooooooooooooooooo....XXXXoooooooooooooooooooooooooooo",
"       XXXXooooooooooooooooo....XXXXoooooooooooooooooooooooooooo",
"       XXXXooooooooooooooooo....XXXXoooooooooooooooooooooooooooo",
"       XXXXooooooooooooooooo....XXXXoooooooooooooooooooooooooooo",
"       XXXXooooooooooooooooo....XXXXoooooooooooooooooooooooooooo",
"       XXXXooooooooooooooooo....XXXXoooooooooooooooooooooooooooo",
"       XXXXooooooooooooooooo....XXXXoooooooooooooooooooooooooooo",
"       XXXXooooooooooooooooo....XXXXoooooooooooooooooooooooooooo",
"       XXXXooooooooooooooooo....XXXXoooooooooooooooooooooooooooo",
"       XXXXooooooooooooooooo....XXXXoooooooooooooooooooooooooooo",
"       XXXXooooooooooooooooo....XXXXoooooooooooooooooooooooooooo",
"       XXXXooooooooooooooooo....XXXXoooooooooooooooooooooooooooo",
"       XXXXooooooooooooooooo....XXXXoooooooooooooooooooooooooooo",
"       XXXXooooooooooooooooo....XXXXoooooooooooooooooooooooooooo",
"       XXXXooooooooooooooooo....XXXXoooooooooooooooooooooooooooo",
"       XXXXooooooooooooooooo....XXXXoooooooooooooooooooooooooooo",
"       XXXXooooooooooooooooo....XXXXoooooooooooooooooooooooooooo",
"       XXXXooooooooooooooooo....XXXXoooooooooooooooooooooooooooo",
"       XXXXooooooooooooooooo....XXXXoooooooooooooooooooooooooooo",
"       XXXXooooooooooooooooo....XXXXoooooooooooooooooooooooooooo",
"       XXXXooooooooooooooooo....XXXXoooooooooooooooooooooooooooo",
"       XXXXooooooooooooooooo....XXXXoooooooooooooooooooooooooooo",
"       XXXXooooooooooooooooo....XXXXoooooooooooooooooooooooooooo",
"       XXXXooooooooooooooooo....XXXXoooooooooooooooooooooooooooo",
"       XXXXooooooooooooooooo....XXXXoooooooooooooooooooooooooooo",
"       XXXXooooooooooooooooo....XXXXoooooooooooooooooooooooooooo",
"       XXXXXXXXXXXXXXooooooo....XXXXXXXXXXXXXXXXXXXXXXXXXXXXXXXX",
"       XXXXXXXXXXXXXXooooooo....XXXXXXXXXXXXXXXXXXXXXXXXXXXXXXXX",
"       XXXXXXXXXXXXXXooooooo....XXXXXXXXXXXXXXXXXXXXXXXXXXXXXXXX",
"       XXXXXXXXXXXXXXooooooo....XXXXXXXXXXXXXXXXXXXXXXXXXXXXXXXX",
"       XXXXooooooooooooooooo....XXXXXXXXXXXXXXXXXXXXXXXXXXXXXXXX",
"       XXXXooooooooooooooooo....XXXXXXXXXXXXXXXXXXXXXXXXXXXXXXXX",
"       XXXXooooooooooooooooo....XXXXXXXXXXXXXXXXXXXXXXXXXXXXXXXX",
"       XXXXXXXXXXXXXXooooooo                                    ",
"       XXXXXXXXXXXXXXooooooo                                    ",
"       XXXXXXXXXXXXXXooooooo                                    ",
"       XXXXXXXXXXXXXXooooooo                                    ",
"                                                                ",
"                                                                ",
"                                                                ",
"OOOO                            OOOOOOOOOOOOOOOOOOOOOOOOOOOOOOOO",
"OOOO                            OOOOOOOOOOOOOOOOOOOOOOOOOOOOOOOO",
"OOOO                            OOOOOOOOOOOOOOOOOOOOOOOOOOOOOOOO",
"OOOO                            OOOOOOOOOOOOOOOOOOOOOOOOOOOOOOOO"
};
