/* XPM */
static char *result[] = {
/* columns rows colors chars-per-pixel */
"64 64 7 1 ",
"  c #7E3125",
". c #434A5F",
"X c #DD442C",
"o c #FC683B",
"O c #959AB1",
"+ c #C2E3E8",
"@ c #DCE1E7",
/* pixels */
"++++..............++++++++++++++++++++++++++++++++++++++++++++++",
"++++..............++++++++++++++++++++++++++++++++++++++++++++++",
"++++..............++++++++++++++++++++++++++++++++++++++++++++++",
"++++..............++++++++++++++++++++++++++++++++++++++++++++++",
".....................++++                         ++++++++++++++",
".....................++++                         ++++++++++++++",
".....................++++                         ++++++++++++++",
".......@@@@@@@.......                                       ++++",
".......@@@@@@@.......                                       ++++",
".......@@@@@@@.......                                       ++++",
".......@@@@@@@.......                                       ++++",
".......@@@@@@@.......       XXXXooooXXXooooooo                  ",
".......@@@@@@@.......       XXXXooooXXXooooooo                  ",
".......@@@@@@@.......       XXXXooooXXXooooooo                  ",
".......OOOOOOOooooooooooooooXXXXXXXXooooooooooXXXXooooooo       ",
".......OOOOOOOooooooooooooooXXXXXXXXooooooooooXXXXooooooo       ",
".......OOOOOOOooooooooooooooXXXXXXXXooooooooooXXXXooooooo       ",
".......OOOOOOOooooooooooooooXXXXXXXXooooooooooXXXXooooooo       ",
"..............ooooooooooooooXXXXooooXXXoooooooXXXXooooooo       ",
"..............ooooooooooooooXXXXooooXXXoooooooXXXXooooooo       ",
"..............ooooooooooooooXXXXooooXXXoooooooXXXXooooooo       ",
".......OOOOOOOooooooooooooooXXXXXXXXooooooooooXXXXooooooo       ",
".......OOOOOOOooooooooooooooXXXXXXXXooooooooooXXXXooooooo       ",
".......OOOOOOOooooooooooooooXXXXXXXXooooooooooXXXXooooooo       ",
".......OOOOOOOooooooooooooooXXXXXXXXooooooooooXXXXooooooo       ",
".......OOOOOOOooooooooooooooXXXXooooXXXoooooooXXXXooooooo       ",
".......OOOOOOOooooooooooooooXXXXooooXXXoooooooXXXXooooooo       ",
".......OOOOOOOooooooooooooooXXXXooooXXXoooooooXXXXooooooo       ",
".......OOOOOOOooooooooooooooXXXXXXXXooooooooooXXXXooooooo       ",
".......OOOOOOOooooooooooooooXXXXXXXXooooooooooXXXXooooooo       ",
".......OOOOOOOooooooooooooooXXXXXXXXooooooooooXXXXooooooo       ",
".......OOOOOOOooooooooooooooXXXXXXXXooooooooooXXXXooooooo       ",
".......OOOOOOOooooooooooooooXXXXooooXXXoooooooXXXXooooooo       ",
".......OOOOOOOooooooooooooooXXXXooooXXXoooooooXXXXooooooo       ",
".......OOOOOOOooooooooooooooXXXXooooXXXoooooooXXXXooooooo       ",
".......OOOOOOOooooooooooooooXXXXooooXXXoooooooXXXXooooooo       ",
"..............ooooooooooooooXXXXXXXXooooooooooXXXXooooooo       ",
"..............ooooooooooooooXXXXXXXXooooooooooXXXXooooooo       ",
"..............ooooooooooooooXXXXXXXXooooooooooXXXXooooooo       ",
".......OOOOOOOoooooooooooooo                  XXXXooooooo       ",
".......OOOOOOOoooooooooooooo                  XXXXooooooo       ",
".......OOOOOOOoooooooooooooo                  XXXXooooooo       ",
".......OOOOOOOoooooooooooooo                  XXXXooooooo       ",
".......OOOOOOO.......                                           ",
".......OOOOOOO.......                                           ",
".......OOOOOOO.......                                           ",
".......OOOOOOO.......           +++++++++++                 ++++",
".......OOOOOOO.......           +++++++++++                 ++++",
".......OOOOOOO.......           +++++++++++                 ++++",
".......OOOOOOO.......           +++++++++++                 ++++",
".......OOOOOOO.......+++++++++++++++++++++++++++++++++++++++++++",
".......OOOOOOO.......+++++++++++++++++++++++++++++++++++++++++++",
".......OOOOOOO.......+++++++++++++++++++++++++++++++++++++++++++",
".......OOOOOOO.......+++++++++++++++++++++++++++++++++++++++++++",
".......OOOOOOO.......+++++++++++++++++++++++++++++++++++++++++++",
".......OOOOOOO.......+++++++++++++++++++++++++++++++++++++++++++",
".......OOOOOOO.......+++++++++++++++++++++++++++++++++++++++++++",
".......OOOOOOO.......+++++++++++++++++++++++++++++++++++++++++++",
".......OOOOOOO.......+++++++++++++++++++++++++++++++++++++++++++",
".......OOOOOOO.......+++++++++++++++++++++++++++++++++++++++++++",
".......OOOOOOO.......+++++++++++++++++++++++++++++++++++++++++++",
".......OOOOOOO.......+++++++++++++++++++++++++++++++++++++++++++",
".......OOOOOOO.......+++++++++++++++++++++++++++++++++++++++++++",
".......OOOOOOO.......+++++++++++++++++++++++++++++++++++++++++++"
};
