/* XPM */
static char *_1d070cdc76e41019f332e83c4274eb3k3MVUSjh4jTlSCqn[] = {
/* columns rows colors chars-per-pixel */
"64 64 12 1 ",
"  c black",
". c white",
"X c #434A5F",
"o c #444B60",
"O c #454C61",
"+ c #2EB082",
"@ c #36D477",
"# c #36E377",
"$ c #F4AC66",
"% c #CB815E",
"& c #9F5A52",
"* c None",
/* pixels */
"XXXXXXXoXXXXXXXXXXXXXXXXXXXXXXXXXXXXXXXXXXXXXXXXXXXXXXXXXXXXXXXX",
"XXXXXXXoXXXXXXXXXXXXXXXXXXXXXXXXXXXXXXXXXXXXXXXXXXXXXXXXXXXXXXXX",
"XXXXXXXOXXXXXXXXXXXXXXXXXXXXXXXXXXXXXXXXXXXXXXXXXXXXXXXXXXXXXXXX",
"XXXXXXXXXXXXXXXXXXXXXXXXXXXXXXXXXXXXXXXXXXXXXXXXXXXXXXXXXXXXXXXX",
"XXXXXXXXXXXXXXXXXXXXXXXXXXXXXXXXXXXXXXXXXXXXXXXXXXXXXXXXXXXXXXXX",
"XXXXXXoXXXXXXXXXXXXXXXXXXXXXXXXXXXXXXXXXXXXXXXXXXXXXXXXXXXXXXXXX",
"XXXXXXXXXXXXXXXXXXXXXXXXXXXXXXXXXXXXXXXXXXXXXXXXXXXXXXXXXXXXXXXX",
"XXXXXXX@########################################################",
"XXXXXXX#########################################################",
"XXXXXXX#########################################################",
"XXXXXXX#########################################################",
"XXXXXXX#########################################################",
"XXXXXXX#########################################################",
"XXXXXXX#########################################################",
"XXXXXXX+++++++++++++++++++++++++++++++++++++++++++++++++++++++++",
"XXXXXXX+++++++++++++++++++++++++++++++++++++++++++++++++++++++++",
"XXXXXXX+++++++++++++++++++++++++++++++++++++++++++++++++++++++++",
"XXXXXXX+++++++++++++++++++++++++++++++++++++++++++++++++++++++++",
"XXXXXXX+++++++++++++++++++++++++++++++++++++++++++++++++++++++++",
"XXXXXXX+++++++++++++++++++++++++++++++++++++++++++++++++++++++++",
"XXXXXXX+++++++++++++++++++++++++++++++++++++++++++++++++++++++++",
"XXXXXXX+++++++++++++++++++++++++++++++++++++++++++++++++++++++++",
"XXXXXXX+++++++++++++++++++++++++++++++++++++++++++++++++++++++++",
"XXXXXXX+++++++++++++++++++++++++++++++++++++++++++++++++++++++++",
"XXXXXXX+++++++++++++++++++++++++++++++++++++++++++++++++++++++++",
"XXXXXXX+++++++++++&&&&&&&++++++++++++++&&&&&&&++++++++++++++&&&&",
"XXXXXXX+++++++++++&&&&&&&++++++++++++++&&&&&&&++++++++++++++&&&&",
"XXXXXXX+++++++++++&&&&&&&++++++++++++++&&&&&&&++++++++++++++&&&&",
"XXXXXXX+++++++&&&&&&&&&&&&&&++++++++&&&&&&&&&&&&&&+++++++&&&&&&&",
"XXXXXXX+++++++&&&&&&&&&&&&&&++++++++&&&&&&&&&&&&&&+++++++&&&&&&&",
"XXXXXXX+++++++&&&&&&&&&&&&&&++++++++&&&&&&&&&&&&&&+++++++&&&&&&&",
"XXXXXXX+++++++&&&&&&&&&&&&&&++++++++&&&&&&&&&&&&&&+++++++&&&&&&&",
"XXXXXXX&&&&&&&&&&&&&&&&&&&&&&&&&&&&&&&&&&&&&&&&&&&&&&&&&&&&&&&&&",
"XXXXXXX&&&&&&&&&&&&&&&&&&&&&&&&&&&&&&&&&&&&&&&&&&&&&&&&&&&&&&&&&",
"XXXXXXX&&&&&&&&&&&&&&&&&&&&&&&&&&&&&&&&&&&&&&&&&&&&&&&&&&&&&&&&&",
"XXXXXXX&&&&&&&&&&&&&&&&&&&&&&&&&&&&&&&&&&&&&&&&&&&&&&&&&&&&&&&&&",
"XXXXXXX%%%%%%%%%%%%%%%%%%%%%%%%%%%%%%%%%%%%%%%%%%%%%%%%%%%%%%%%%",
"XXXXXXX%%%%%%%%%%%%%%%%%%%%%%%%%%%%%%%%%%%%%%%%%%%%%%%%%%%%%%%%%",
"XXXXXXX%%%%%%%%%%%%%%%%%%%%%%%%%%%%%%%%%%%%%%%%%%%%%%%%%%%%%%%%%",
"XXXXXXX%%%%%%%%%%%%%%%%%%%%%%%%%%%%%%%%%%%%%%%%%%%%%%%%%%%%%%%%%",
"XXXXXXX%%%%%%%%%%%%%%%%%%%%%%%%%%%%%%%%%%%%%%%%%%%%%%%%%%%%%%%%%",
"XXXXXXX%%%%%%%%%%%%%%%%%%%%%%%%%%%%%%%%%%%%%%%%%%%%%%%%%%%%%%%%%",
"XXXXXXX%%%%%%%%%%%%%%%%%%%%%%%%%%%%%%%%%%%%%%%%%%%%%%%%%%%%%%%%%",
"XXXXXXX%%%%%%%%%%%&&&&&&&%%%%%%%%%%%%%%%%%%%%%%%%%%%%%%%%%%%%%%%",
"XXXXXXX%%%%%%%%%%%&&&&&&&%%%%%%%%%%%%%%%%%%%%%%%%%%%%%%%%%%%%%%%",
"XXXXXXX%%%%%%%%%%%&&&&&&&%%%%%%%%%%%%%%%%%%%%%%%%%%%%%%%%%%%%%%%",
"XXXXXXX%%%%%%%%%%%&&&&&&&%%%%%%%&&&&%%%%%%%%%%%%%%$$$$$$$%%%%%%%",
"XXXXXXX%%%%%%%%%%%&&&&&&&%%%%%%%&&&&%%%%%%%%%%%%%%$$$$$$$%%%%%%%",
"XXXXXXX%%%%%%%%%%%&&&&&&&%%%%%%%&&&&%%%%%%%%%%%%%%$$$$$$$%%%%%%%",
"XXXXXXX%%%%%%%%%%%&&&&&&&%%%%%%%&&&&%%%%%%%%%%%%%%$$$$$$$%%%%%%%",
"XXXXXXX%%%%%%%%%%%%%%%%%%%%%%%%%%%%%%%%%%%%%%%%%%%$$$$$$$%%%%%%%",
"XXXXXXX%%%%%%%%%%%%%%%%%%%%%%%%%%%%%%%%%%%%%%%%%%%$$$$$$$%%%%%%%",
"XXXXXXX%%%%%%%%%%%%%%%%%%%%%%%%%%%%%%%%%%%%%%%%%%%$$$$$$$%%%%%%%",
"XXXXXXX%%%%%%%%%%%%%%%%%%%%%%%%%%%%%%%%$$$$%%%%%%%%%%%%%%%%%%%%%",
"XXXXXXX%%%%%%%%%%%%%%%%%%%%%%%%%%%%%%%%$$$$%%%%%%%%%%%%%%%%%%%%%",
"XXXXXXX%%%%%%%%%%%%%%%%%%%%%%%%%%%%%%%%$$$$%%%%%%%%%%%%%%%%%%%%%",
"XXXXXXX%%%%%%%%%%%%%%%%%%%%%%%%%%%%%%%%$$$$%%%%%%%%%%%%%%%%%%%%%",
"XXXXXXX%%%%%%%%%%%%%%%%%%%%%%%%%%%%%%%%%%%%%%%%%%%%%%%%%%%%%%%%%",
"XXXXXXX%%%%%%%%%%%%%%%%%%%%%%%%%%%%%%%%%%%%%%%%%%%%%%%%%%%%%%%%%",
"XXXXXXX%%%%%%%%%%%%%%%%%%%%%%%%%%%%%%%%%%%%%%%%%%%%%%%%%%%%%%%%%",
"XXXXXXX%%%%%%%%%%%%%%%%%%%%%%%%%%%%%%%%%%%%%%%%%%%%%%%%%%%%%%%%%",
"XXXXXXX%%%%%%%%%%%%%%%%%%%%%%%%%%%%%%%%%%%%%%%%%%%%%%%%%%%%%%%%%",
"XXXXXXX%%%%%%%%%%%%%%%%%%%%%%%%%%%%%%%%%%%%%%%%%%%%%%%%%%%%%%%%%",
"XXXXXXX%%%%%%%%%%%%%%%%%%%%%%%%%%%%%%%%%%%%%%%%%%%%%%%%%%%%%%%%%"
};
