/* XPM */
static char *b603af8488b64685a59d84841e5e254atzrdF5NT9MbXzGoZ[] = {
/* columns rows colors chars-per-pixel */
"64 64 4 1 ",
"  c #9F5A52",
". c #F4AC66",
"X c #434A5F",
"o c #CB815E",
/* pixels */
"XXXXXXXooooooooooooooooooooooooooooooooooooooooooooooooooooooooo",
"XXXXXXXooooooooooooooooooooooooooooooooooooooooooooooooooooooooo",
"XXXXXXXooooooooooooooooooooooooooooooooooooooooooooooooooooooooo",
"XXXXXXXooooooooooooooooooooooooooooooooooooooooooooooooooooooooo",
"XXXXXXXooooooooooooooooooooooooooooooooooooooooooooooooooooooooo",
"XXXXXXXooooooooooooooooooooooooooooooooooooooooooooooooooooooooo",
"XXXXXXXooooooooooooooooooooooooooooooooooooooooooooooooooooooooo",
"XXXXXXXooooooooooooooooooooooooo    oooooooooooooooooooooooooooo",
"XXXXXXXooooooooooooooooooooooooo    oooooooooooooooooooooooooooo",
"XXXXXXXooooooooooooooooooooooooo    oooooooooooooooooooooooooooo",
"XXXXXXXooooooooooooooooooooooooo    oooooooooooooooooooooooooooo",
"XXXXXXXooooooooooooooooooooooooooooooooooooooooooooooooooooooooo",
"XXXXXXXooooooooooooooooooooooooooooooooooooooooooooooooooooooooo",
"XXXXXXXooooooooooooooooooooooooooooooooooooooooooooooooooooooooo",
"XXXXXXXooooooooooooooooooooooooooooooooooooooooooooooooooooooooo",
"XXXXXXXooooooooooooooooooooooooooooooooooooooooooooooooooooooooo",
"XXXXXXXooooooooooooooooooooooooooooooooooooooooooooooooooooooooo",
"XXXXXXXooooooooooooooooooooooooooooooooooooooooooooooooooooooooo",
"XXXXXXXooooooooooo       ooooooooooooooooooooooooooooooooooooooo",
"XXXXXXXooooooooooo       ooooooooooooooooooooooooooooooooooooooo",
"XXXXXXXooooooooooo       ooooooooooooooooooooooooooooooooooooooo",
"XXXXXXXooooooooooo       ooooooooooooooooooooooooooooooooooooooo",
"XXXXXXXooooooooooo       ooooooooooooooooooooooooooooooooooooooo",
"XXXXXXXooooooooooo       ooooooooooooooooooooooooooooooooooooooo",
"XXXXXXXooooooooooo       ooooooooooooooooooooooooooooooooooooooo",
"XXXXXXXooooooooooooooooooooooooooooooooooooooooooooooooooooooooo",
"XXXXXXXooooooooooooooooooooooooooooooooooooooooooooooooooooooooo",
"XXXXXXXooooooooooooooooooooooooooooooooooooooooooooooooooooooooo",
"XXXXXXXooooooo    oooooooooooooooooooooooooooooooooooooooooooooo",
"XXXXXXXooooooo    oooooooooooooooooooooooooooooooooooooooooooooo",
"XXXXXXXooooooo    oooooooooooooooooooooooooooooooooooooooooooooo",
"XXXXXXXooooooo    oooooooooooooooooooooooooooooooooooooooooooooo",
"XXXXXXXooooooooooooooooooooooooo    oooooooooooooooooooooooooooo",
"XXXXXXXooooooooooooooooooooooooo    oooooooooooooooooooooooooooo",
"XXXXXXXooooooooooooooooooooooooo    oooooooooooooooooooooooooooo",
"XXXXXXXooooooooooooooooooooooooo    oooooooooooooooooooooooooooo",
"XXXXXXXooooooooooooooooooooooooooooooooooooooooooooooooooooooooo",
"XXXXXXXooooooooooooooooooooooooooooooooooooooooooooooooooooooooo",
"XXXXXXXooooooooooooooooooooooooooooooooooooooooooooooooooooooooo",
"XXXXXXXooooooooooooooooooooooooooooooooooooooooooooooooooooooooo",
"XXXXXXXooooooooooooooooooooooooooooooooooooooooooooooooooooooooo",
"XXXXXXXooooooooooooooooooooooooooooooooooooooooooooooooooooooooo",
"XXXXXXXooooooooooooooooooooooooooooooooooooooooooooooooooooooooo",
"XXXXXXXooooooooooo.......ooooooooooooooooooooooooooooooooooooooo",
"XXXXXXXooooooooooo.......ooooooooooooooooooooooooooooooooooooooo",
"XXXXXXXooooooooooo.......ooooooooooooooooooooooooooooooooooooooo",
"XXXXXXXooooooooooo.......ooooooooooooooooooooooooooooooooooooooo",
"XXXXXXXooooooooooo.......ooooooooooooooooooooooooooooooooooooooo",
"XXXXXXXooooooooooo.......ooooooooooooooooooooooooooooooooooooooo",
"XXXXXXXooooooooooo.......ooooooooooooooooooooooooooooooooooooooo",
"XXXXXXXooooooooooo       oooooooooooooo.......oooooooooooooooooo",
"XXXXXXXooooooooooo       oooooooooooooo.......oooooooooooooooooo",
"XXXXXXXooooooooooo       oooooooooooooo.......oooooooooooooooooo",
"XXXXXXXooooooooooooooooooooo....ooooooo.......oooooooooooooooooo",
"XXXXXXXooooooooooooooooooooo....ooooooo.......oooooooooooooooooo",
"XXXXXXXooooooooooooooooooooo....ooooooo.......oooooooooooooooooo",
"XXXXXXXooooooooooooooooooooo....ooooooo.......oooooooooooooooooo",
"XXXXXXXooooooooooooooooooooooooooooooooooooooooooooooooooooooooo",
"XXXXXXXooooooooooooooooooooooooooooooooooooooooooooooooooooooooo",
"XXXXXXXooooooooooooooooooooooooooooooooooooooooooooooooooooooooo",
"XXXXXXXooooooooooooooooooooooooooooooooooooooooooooooooooooooooo",
"XXXXXXXooooooooooooooooooooooooooooooooooooooooooooooooooooooooo",
"XXXXXXXooooooooooooooooooooooooooooooooooooooooooooooooooooooooo",
"XXXXXXXooooooooooooooooooooooooooooooooooooooooooooooooooooooooo"
};
