/* XPM */
static char *_f5b2f6c6a5f498bf9f92702eec3fa45KkjEwGEAb7Cb8coP[] = {
/* columns rows colors chars-per-pixel */
"64 64 20 1 ",
"  c black",
". c white",
"X c #434A5F",
"o c #2EB082",
"O c #3C9A6C",
"+ c #39BD72",
"@ c #39BB71",
"# c #37D374",
"$ c #37CF74",
"% c #36E377",
"& c #36E277",
"* c #36E177",
"= c #36DF76",
"- c #36DE76",
"; c #36DD76",
": c #37DD76",
"> c #F4AC66",
", c #CB815E",
"< c #9F5A52",
"1 c None",
/* pixels */
"XXXXXXXXXXXXXXXXXXXXXXXXXXXXXXXXXXXXXXXXXXXXXXXXXXXXXXXXXXXXXXXX",
"XXXXXXXXXXXXXXXXXXXXXXXXXXXXXXXXXXXXXXXXXXXXXXXXXXXXXXXXXXXXXXXX",
"XXXXXXXXXXXXXXXXXXXXXXXXXXXXXXXXXXXXXXXXXXXXXXXXXXXXXXXXXXXXXXXX",
"XXXXXXXXXXXXXXXXXXXXXXXXXXXXXXXXXXXXXXXXXXXXXXXXXXXXXXXXXXXXXXXX",
"XXXXXXXXXXXXXXXXXXXXXXXXXXXXXXXXXXXXXXXXXXXXXXXXXXXXXXXXXXXXXXXX",
"XXXXXXXXXXXXXXXXXXXXXXXXXXXXXXXXXXXXXXXXXXXXXXXXXXXXXXXXXXXXXXXX",
"XXXXXXXXXXXXXXXXXXXXXXXXXXXXXXXXXXXXXXXXXXXXXXXXXXXXXXXXXXXXXXXX",
"%%%%%%%%%%%%%%%%%%%%%%%%%%%%%%%%%%%%%%%%%%%%%%%%%%%%%=#+OXXXXXXX",
"%%%%%%%%%%%%%%%%%%%%%%%%%%%%%%%%%%%%%%%%%%%%%%%%%%%%%&;$@XXXXXXX",
"%%%%%%%%%%%%%%%%%%%%%%%%%%%%%%%%%%%%%%%%%%%%%%%%%%%%%%*:#XXXXXXX",
"%%%%%%%%%%%%%%%%%%%%%%%%%%%%%%%%%%%%%%%%%%%%%%%%%%%%%%&*-XXXXXXX",
"%%%%%%%%%%%%%%%%%%%%%%%%%%%%%%%%%%%%%%%%%%%%%%%%%%%%%%%&&XXXXXXX",
"%%%%%%%%%%%%%%%%%%%%%%%%%%%%%%%%%%%%%%%%%%%%%%%%%%%%%%%%%XXXXXXX",
"%%%%%%%%%%%%%%%%%%%%%%%%%%%%%%%%%%%%%%%%%%%%%%%%%%%%%%%%%XXXXXXX",
"oooooooooooooooooooooooooooooooooooooooooooooooooooooooooXXXXXXX",
"oooooooooooooooooooooooooooooooooooooooooooooooooooooooooXXXXXXX",
"oooooooooooooooooooooooooooooooooooooooooooooooooooooooooXXXXXXX",
"oooooooooooooooooooooooooooooooooooooooooooooooooooooooooXXXXXXX",
"oooooooooooooooooooooooooooooooooooooooooooooooooooooooooXXXXXXX",
"oooooooooooooooooooooooooooooooooooooooooooooooooooooooooXXXXXXX",
"oooooooooooooooooooooooooooooooooooooooooooooooooooooooooXXXXXXX",
"oooooooooooooooooooooooooooooooooooooooooooooooooooooooooXXXXXXX",
"oooooooooooooooooooooooooooooooooooooooooooooooooooooooooXXXXXXX",
"oooooooooooooooooooooooooooooooooooooooooooooooooooooooooXXXXXXX",
"oooooooooooooooooooooooooooooooooooooooooooooooooooooooooXXXXXXX",
"<<<<oooooooooooooo<<<<<<<oooooooooooooo<<<<<<<oooooooooooXXXXXXX",
"<<<<oooooooooooooo<<<<<<<oooooooooooooo<<<<<<<oooooooooooXXXXXXX",
"<<<<oooooooooooooo<<<<<<<oooooooooooooo<<<<<<<oooooooooooXXXXXXX",
"<<<<<<<ooooooo<<<<<<<<<<<<<<oooooooo<<<<<<<<<<<<<<oooooooXXXXXXX",
"<<<<<<<ooooooo<<<<<<<<<<<<<<oooooooo<<<<<<<<<<<<<<oooooooXXXXXXX",
"<<<<<<<ooooooo<<<<<<<<<<<<<<oooooooo<<<<<<<<<<<<<<oooooooXXXXXXX",
"<<<<<<<ooooooo<<<<<<<<<<<<<<oooooooo<<<<<<<<<<<<<<oooooooXXXXXXX",
"<<<<<<<<<<<<<<<<<<<<<<<<<<<<<<<<<<<<<<<<<<<<<<<<<<<<<<<<<XXXXXXX",
"<<<<<<<<<<<<<<<<<<<<<<<<<<<<<<<<<<<<<<<<<<<<<<<<<<<<<<<<<XXXXXXX",
"<<<<<<<<<<<<<<<<<<<<<<<<<<<<<<<<<<<<<<<<<<<<<<<<<<<<<<<<<XXXXXXX",
"<<<<<<<<<<<<<<<<<<<<<<<<<<<<<<<<<<<<<<<<<<<<<<<<<<<<<<<<<XXXXXXX",
",,,,,,,,,,,,,,,,,,,,,,,,,,,,,,,,,,,,,,,,,,,,,,,,,,,,,,,,,XXXXXXX",
",,,,,,,,,,,,,,,,,,,,,,,,,,,,,,,,,,,,,,,,,,,,,,,,,,,,,,,,,XXXXXXX",
",,,,,,,,,,,,,,,,,,,,,,,,,,,,,,,,,,,,,,,,,,,,,,,,,,,,,,,,,XXXXXXX",
",,,,,,,,,,,,,,,,,,,,,,,,,,,,,,,,,,,,,,,,,,,,,,,,,,,,,,,,,XXXXXXX",
",,,,,,,,,,,,,,,,,,,,,,,,,,,,,,,,,,,,,,,,,,,,,,,,,,,,,,,,,XXXXXXX",
",,,,,,,,,,,,,,,,,,,,,,,,,,,,,,,,,,,,,,,,,,,,,,,,,,,,,,,,,XXXXXXX",
",,,,,,,,,,,,,,,,,,,,,,,,,,,,,,,,,,,,,,,,,,,,,,,,,,,,,,,,,XXXXXXX",
",,,,,,,,,,,>>>>>>>,,,,,,,,,,,,,,,,,,,,,<<<<,,,,,,,,,,,,,,XXXXXXX",
",,,,,,,,,,,>>>>>>>,,,,,,,,,,,,,,,,,,,,,<<<<,,,,,,,,,,,,,,XXXXXXX",
",,,,,,,,,,,>>>>>>>,,,,,,,,,,,,,,,,,,,,,<<<<,,,,,,,,,,,,,,XXXXXXX",
",,,,,,,,,,,>>>>>>>,,,,,,,<<<<<<<,,,,,,,,,,,,,,,,,,,,,,,,,XXXXXXX",
",,,,,,,,,,,>>>>>>>,,,,,,,<<<<<<<,,,,,,,,,,,,,,,,,,,,,,,,,XXXXXXX",
",,,,,,,,,,,>>>>>>>,,,,,,,<<<<<<<,,,,,,,,,,,,,,,,,,,,,,,,,XXXXXXX",
",,,,,,,,,,,>>>>>>>,,,,,,,<<<<<<<,,,,,,,,,,,,,,,,,,,,,,,,,XXXXXXX",
",,,,,,,,,,,<<<<<<<,,,,,,,<<<<<<<,,,,,,,,,,,,,,,,,,,,,,,,,XXXXXXX",
",,,,,,,,,,,<<<<<<<,,,,,,,<<<<<<<,,,,,,,,,,,,,,,,,,,,,,,,,XXXXXXX",
",,,,,,,,,,,<<<<<<<,,,,,,,<<<<<<<,,,,,,,,,,,,,,,,,,,,,,,,,XXXXXXX",
",,,,>>>,,,,,,,,,,,,,,,,,,,,,,,,,,,,,,,,,,,,>>>,,,,,,,,,,,XXXXXXX",
",,,,>>>,,,,,,,,,,,,,,,,,,,,,,,,,,,,,,,,,,,,>>>,,,,,,,,,,,XXXXXXX",
",,,,>>>,,,,,,,,,,,,,,,,,,,,,,,,,,,,,,,,,,,,>>>,,,,,,,,,,,XXXXXXX",
",,,,>>>,,,,,,,,,,,,,,,,,,,,,,,,,,,,,,,,,,,,>>>,,,,,,,,,,,XXXXXXX",
",,,,,,,,,,,,,,,,,,,,,,,,,,,,,,,,,,,,,,,,,,,,,,,,,,,,,,,,,XXXXXXX",
",,,,,,,,,,,,,,,,,,,,,,,,,,,,,,,,,,,,,,,,,,,,,,,,,,,,,,,,,XXXXXXX",
",,,,,,,,,,,,,,,,,,,,,,,,,,,,,,,,,,,,,,,,,,,,,,,,,,,,,,,,,XXXXXXX",
",,,,,,,,,,,,,,,,,,,,,,,,,,,,,,,,,,,,,,,,,,,,,,,,,,,,,,,,,XXXXXXX",
",,,,,,,,,,,,,,,,,,,,,,,,,,,,,,,,,,,,,,,,,,,,,,,,,,,,,,,,,XXXXXXX",
",,,,,,,,,,,,,,,,,,,,,,,,,,,,,,,,,,,,,,,,,,,,,,,,,,,,,,,,,XXXXXXX",
",,,,,,,,,,,,,,,,,,,,,,,,,,,,,,,,,,,,,,,,,,,,,,,,,,,,,,,,,XXXXXXX"
};
