/* XPM */
static char *_021652503254aebc15e24d0c4a9ea7fzljdARedNSWsyy1b[] = {
/* columns rows colors chars-per-pixel */
"64 64 4 1 ",
"  c #F4AC66",
". c #9F5A52",
"X c #434A5F",
"o c #CB815E",
/* pixels */
"oooooooooooooooooooooooooooooooooooooooooooooooooooooooooXXXXXXX",
"oooooooooooooooooooooooooooooooooooooooooooooooooooooooooXXXXXXX",
"oooooooooooooooooooooooooooooooooooooooooooooooooooooooooXXXXXXX",
"oooooooooooooooooooooooooooooooooooooooooooooooooooooooooXXXXXXX",
"oooooooooooooooooooooooooooooooooooooooooooooooooooooooooXXXXXXX",
"oooooooooooooooooooooooooooooooooooooooooooooooooooooooooXXXXXXX",
"oooooooooooooooooooooooooooooooooooooooooooooooooooooooooXXXXXXX",
"oooo       ooooooooooooooooooooooooooooooooooooooooooooooXXXXXXX",
"oooo       ooooooooooooooooooooooooooooooooooooooooooooooXXXXXXX",
"oooo       ooooooooooooooooooooooooooooooooooooooooooooooXXXXXXX",
"oooo       ooooooooooooooooooooooooooooooooooooooooooooooXXXXXXX",
"oooo       ooooooooooooooooooooooooooooooooooooooooooooooXXXXXXX",
"oooo       ooooooooooooooooooooooooooooooooooooooooooooooXXXXXXX",
"oooo       ooooooooooooooooooooooooooooooooooooooooooooooXXXXXXX",
"oooo.......oooooooooooooo.......oooooooooooooooooooooooooXXXXXXX",
"oooo.......oooooooooooooo.......oooooooooooooooooooooooooXXXXXXX",
"oooo.......oooooooooooooo.......oooooooooooooooooooooooooXXXXXXX",
"oooo.......oooooooooooooo.......oooooooooooooooooooooooooXXXXXXX",
"ooooooooooooooooooooooooo.......oooooooooooooooooooooooooXXXXXXX",
"ooooooooooooooooooooooooo.......oooooooooooooooooooooooooXXXXXXX",
"ooooooooooooooooooooooooo.......oooooooooooooooooooooooooXXXXXXX",
"oooooooooooooo    oooooooooooooooooooooooooooooooooooooooXXXXXXX",
"oooooooooooooo    oooooooooooooooooooooooooooooooooooooooXXXXXXX",
"oooooooooooooo    oooooooooooooooooooooooooooooooooooooooXXXXXXX",
"oooooooooooooo    oooooooooooooooooooooooooooooooooooooooXXXXXXX",
"oooooooooooooooooooooooooooooooooooooooooooooooooooooooooXXXXXXX",
"oooooooooooooooooooooooooooooooooooooooooooooooooooooooooXXXXXXX",
"oooooooooooooooooooooooooooooooooooooooooooooooooooooooooXXXXXXX",
"ooooooooooooooooooooooooooooooooooooooo....ooooooooooooooXXXXXXX",
"ooooooooooooooooooooooooooooooooooooooo....ooooooooooooooXXXXXXX",
"ooooooooooooooooooooooooooooooooooooooo....ooooooooooooooXXXXXXX",
"ooooooooooooooooooooooooooooooooooooooo....ooooooooooooooXXXXXXX",
"oooooooooooooooooooooooooooooooooooooooooooooooooooooooooXXXXXXX",
"oooooooooooooooooooooooooooooooooooooooooooooooooooooooooXXXXXXX",
"oooooooooooooooooooooooooooooooooooooooooooooooooooooooooXXXXXXX",
"oooooooooooooooooooooooooooooooooooooooooooooooooooooooooXXXXXXX",
"ooooooooooooooooooooooooo...ooooooooooo.......oooooooooooXXXXXXX",
"ooooooooooooooooooooooooo...ooooooooooo.......oooooooooooXXXXXXX",
"ooooooooooooooooooooooooo...ooooooooooo.......oooooooooooXXXXXXX",
"ooooooooooooooooooooooooooooooooooooooo.......oooooooooooXXXXXXX",
"ooooooooooooooooooooooooooooooooooooooo.......oooooooooooXXXXXXX",
"ooooooooooooooooooooooooooooooooooooooo.......oooooooooooXXXXXXX",
"ooooooooooooooooooooooooooooooooooooooo.......oooooooooooXXXXXXX",
"oooooooooooooooooooooooooooooooooooooooooooooooooooooooooXXXXXXX",
"oooooooooooooooooooooooooooooooooooooooooooooooooooooooooXXXXXXX",
"oooooooooooooooooooooooooooooooooooooooooooooooooooooooooXXXXXXX",
"oooooooooooooooooooooooooooooooooooooooooooooooooooooooooXXXXXXX",
"oooooooooooooooooooooooooooooooooooooooooooooooooooooooooXXXXXXX",
"oooooooooooooooooooooooooooooooooooooooooooooooooooooooooXXXXXXX",
"oooooooooooooooooooooooooooooooooooooooooooooooooooooooooXXXXXXX",
"oooooooooooooooooooooooooooooooooooooooooooooooooooooooooXXXXXXX",
"oooooooooooooooooooooooooooooooooooooooooooooooooooooooooXXXXXXX",
"oooooooooooooooooooooooooooooooooooooooooooooooooooooooooXXXXXXX",
"ooooooooooooooooooooooooooooooooooooooo    ooooooooooooooXXXXXXX",
"ooooooooooooooooooooooooooooooooooooooo    ooooooooooooooXXXXXXX",
"ooooooooooooooooooooooooooooooooooooooo    ooooooooooooooXXXXXXX",
"ooooooooooooooooooooooooooooooooooooooo    ooooooooooooooXXXXXXX",
"oooooooooooooooooooooooooooooooooooooooooooooooooooooooooXXXXXXX",
"oooooooooooooooooooooooooooooooooooooooooooooooooooooooooXXXXXXX",
"oooooooooooooooooooooooooooooooooooooooooooooooooooooooooXXXXXXX",
"oooooooooooooooooooooooooooooooooooooooooooooooooooooooooXXXXXXX",
"oooooooooooooooooooooooooooooooooooooooooooooooooooooooooXXXXXXX",
"oooooooooooooooooooooooooooooooooooooooooooooooooooooooooXXXXXXX",
"oooooooooooooooooooooooooooooooooooooooooooooooooooooooooXXXXXXX"
};
