/* XPM */
static char *result[] = {
/* columns rows colors chars-per-pixel */
"64 64 5 1 ",
"  c #434A5F",
". c #FC683B",
"X c #CB815E",
"o c #C2E3E8",
"O c #DFF6F5",
/* pixels */
"oooooooooooooooooooooooooooooooooooooooooooooooooooooooooooooooo",
"oooooooooooooooooooooooooooooooooooooooooooooooooooooooooooooooo",
"oooooooooooooooooooooooooooooooooooooooooooooooooooooooooooooooo",
"oooooooooooooooooooooooooooooooooooooooooooooooooooooooooooooooo",
"oooooooooooooooooooooooooooooooooooooooooooooooooooooooooooooooo",
"oooooooooooooooooooooooooooooooooooooooooooooooooooooooooooooooo",
"oooooooooooooooooooooooooooooooooooooooooooooooooooooooooooooooo",
"ooooooooooooooooooooo                      ooooooooooooooooooooo",
"ooooooooooooooooooooo                      ooooooooooooooooooooo",
"ooooooooooooooooooooo                      ooooooooooooooooooooo",
"ooooooooooooooooooooo                      ooooooooooooooooooooo",
"oooooooooooooooooo                            oooooooooooooooooo",
"oooooooooooooooooo                            oooooooooooooooooo",
"oooooooooooooooooo                            oooooooooooooooooo",
"oooooooooooooo           OOOOOOOOOOOOOO           oooooooooooooo",
"oooooooooooooo           OOOOOOOOOOOOOO           oooooooooooooo",
"oooooooooooooo           OOOOOOOOOOOOOO           oooooooooooooo",
"oooooooooooooo           OOOOOOOOOOOOOO           oooooooooooooo",
"oooooooooooooo       OOOOOOOOOOOOOOOOOOOOOO       oooooooooooooo",
"oooooooooooooo       OOOOOOOOOOOOOOOOOOOOOO       oooooooooooooo",
"oooooooooooooo       OOOOOOOOOOOOOOOOOOOOOO       oooooooooooooo",
"oooooooooooooo       OOOO   OOOOOOOO   OOOO       oooooooooooooo",
"oooooooooooooo       OOOO   OOOOOOOO   OOOO       oooooooooooooo",
"oooooooooooooo       OOOO   OOOOOOOO   OOOO       oooooooooooooo",
"oooooooooooooo       OOOO   OOOOOOOO   OOOO       oooooooooooooo",
"oooooooooooooo       OOOO   OOOOOOOO   OOOO       oooooooooooooo",
"oooooooooooooo       OOOO   OOOOOOOO   OOOO       oooooooooooooo",
"oooooooooooooo       OOOO   OOOOOOOO   OOOO       oooooooooooooo",
"oooo              ..............OOOOOOOOOOO                 oooo",
"oooo              ..............OOOOOOOOOOO                 oooo",
"oooo              ..............OOOOOOOOOOO                 oooo",
"oooo              ..............OOOOOOOOOOO                 oooo",
"                  ..............OOOOOOO                         ",
"                  ..............OOOOOOO                         ",
"                  ..............OOOOOOO                         ",
"                  ..............OOOOOOO                         ",
"       XXXX          OOOOOOOOOOOOOOOOOOOOOO          XXXX       ",
"       XXXX          OOOOOOOOOOOOOOOOOOOOOO          XXXX       ",
"       XXXX          OOOOOOOOOOOOOOOOOOOOOO          XXXX       ",
"           XXXXXXXOOOOOOOOOOOOOOOOOOOOOOOOOOOOXXXXXXX           ",
"           XXXXXXXOOOOOOOOOOOOOOOOOOOOOOOOOOOOXXXXXXX           ",
"           XXXXXXXOOOOOOOOOOOOOOOOOOOOOOOOOOOOXXXXXXX           ",
"           XXXXXXXOOOOOOOOOOOOOOOOOOOOOOOOOOOOXXXXXXX           ",
"       XXXX       OOOOOOOOOO        OOOOOOOOOO       XXXX       ",
"       XXXX       OOOOOOOOOO        OOOOOOOOOO       XXXX       ",
"       XXXX       OOOOOOOOOO        OOOOOOOOOO       XXXX       ",
"                  OOOOOOOOOO        OOOOOOOOOO                  ",
"                  OOOOOOOOOO        OOOOOOOOOO                  ",
"                  OOOOOOOOOO        OOOOOOOOOO                  ",
"                  OOOOOOOOOO        OOOOOOOOOO                  ",
"oooo              OOOOOOOOOOOOOOOOOOOOOOOOOOOO              oooo",
"oooo              OOOOOOOOOOOOOOOOOOOOOOOOOOOO              oooo",
"oooo              OOOOOOOOOOOOOOOOOOOOOOOOOOOO              oooo",
"ooooooooooo          OOOOOOOOOOOOOOOOOOOOOO          ooooooooooo",
"ooooooooooo          OOOOOOOOOOOOOOOOOOOOOO          ooooooooooo",
"ooooooooooo          OOOOOOOOOOOOOOOOOOOOOO          ooooooooooo",
"ooooooooooo          OOOOOOOOOOOOOOOOOOOOOO          ooooooooooo",
"oooooooooooooo                                    oooooooooooooo",
"oooooooooooooo                                    oooooooooooooo",
"oooooooooooooo                                    oooooooooooooo",
"oooooooooooooooooo                            oooooooooooooooooo",
"oooooooooooooooooo                            oooooooooooooooooo",
"oooooooooooooooooo                            oooooooooooooooooo",
"oooooooooooooooooo                            oooooooooooooooooo"
};
