/* XPM */
static char *result[] = {
/* columns rows colors chars-per-pixel */
"64 64 6 1 ",
"  c #345551",
". c #9F5A52",
"X c #36E377",
"o c #CB815E",
"O c #2EB082",
"+ c #C2E3E8",
/* pixels */
"+++++++++++++++++++++++++              +++++++++++++++++++++++++",
"+++++++++++++++++++++++++              +++++++++++++++++++++++++",
"+++++++++++++++++++++++++              +++++++++++++++++++++++++",
"+++++++++++++++++++++++++              +++++++++++++++++++++++++",
"+++++++++++++++++++++                      +++++++++++++++++++++",
"+++++++++++++++++++++                      +++++++++++++++++++++",
"+++++++++++++++++++++                      +++++++++++++++++++++",
"+++++++++++++++++++++       XXXXXXXX       +++++++++++++++++++++",
"+++++++++++++++++++++       XXXXXXXX       +++++++++++++++++++++",
"+++++++++++++++++++++       XXXXXXXX       +++++++++++++++++++++",
"+++++++++++++++++++++       XXXXXXXX       +++++++++++++++++++++",
"++++++++++++++++++          XXXXXXXX          ++++++++++++++++++",
"++++++++++++++++++          XXXXXXXX          ++++++++++++++++++",
"++++++++++++++++++          XXXXXXXX          ++++++++++++++++++",
"++++++++++++++++++       OOOOOOOOOOOOOO       ++++++++++++++++++",
"++++++++++++++++++       OOOOOOOOOOOOOO       ++++++++++++++++++",
"++++++++++++++++++       OOOOOOOOOOOOOO       ++++++++++++++++++",
"++++++++++++++++++       OOOOOOOOOOOOOO       ++++++++++++++++++",
"++++++++++++++++++       XXXXXXXXXXXXXX       ++++++++++++++++++",
"++++++++++++++++++       XXXXXXXXXXXXXX       ++++++++++++++++++",
"++++++++++++++++++       XXXXXXXXXXXXXX       ++++++++++++++++++",
"++++++++++++++           XXXXXXXXXXXXXX           ++++++++++++++",
"++++++++++++++           XXXXXXXXXXXXXX           ++++++++++++++",
"++++++++++++++           XXXXXXXXXXXXXX           ++++++++++++++",
"++++++++++++++           XXXXXXXXXXXXXX           ++++++++++++++",
"++++++++++++++       OOOOOOOOOOOOOOOOOOOOOO       ++++++++++++++",
"++++++++++++++       OOOOOOOOOOOOOOOOOOOOOO       ++++++++++++++",
"++++++++++++++       OOOOOOOOOOOOOOOOOOOOOO       ++++++++++++++",
"++++++++++++++       OOOOOOOOOOOOOOOOOOOOOO       ++++++++++++++",
"++++++++++++++       OOOOOOOOOOOOOOOOOOOOOO       ++++++++++++++",
"++++++++++++++       OOOOOOOOOOOOOOOOOOOOOO       ++++++++++++++",
"++++++++++++++       OOOOOOOOOOOOOOOOOOOOOO       ++++++++++++++",
"++++++++++++++       XXXXXXXXXXXXXXXXXXXXXX       ++++++++++++++",
"++++++++++++++       XXXXXXXXXXXXXXXXXXXXXX       ++++++++++++++",
"++++++++++++++       XXXXXXXXXXXXXXXXXXXXXX       ++++++++++++++",
"++++++++++++++       XXXXXXXXXXXXXXXXXXXXXX       ++++++++++++++",
"+++++++++++          XXXXXXXXXXXXXXXXXXXXXX          +++++++++++",
"+++++++++++          XXXXXXXXXXXXXXXXXXXXXX          +++++++++++",
"+++++++++++          XXXXXXXXXXXXXXXXXXXXXX          +++++++++++",
"+++++++++++       OOOOOOOOOOOOOOOOOOOOOOOOOOOO       +++++++++++",
"+++++++++++       OOOOOOOOOOOOOOOOOOOOOOOOOOOO       +++++++++++",
"+++++++++++       OOOOOOOOOOOOOOOOOOOOOOOOOOOO       +++++++++++",
"+++++++++++       OOOOOOOOOOOOOOOOOOOOOOOOOOOO       +++++++++++",
"+++++++++++       OOOOOOOOOOOOOOOOOOOOOOOOOOOO       +++++++++++",
"+++++++++++       OOOOOOOOOOOOOOOOOOOOOOOOOOOO       +++++++++++",
"+++++++++++       OOOOOOOOOOOOOOOOOOOOOOOOOOOO       +++++++++++",
"+++++++++++       OOOOOOOOOOOOOOOOOOOOOOOOOOOO       +++++++++++",
"+++++++++++       OOOOOOOOOOOOOOOOOOOOOOOOOOOO       +++++++++++",
"+++++++++++       OOOOOOOOOOOOOOOOOOOOOOOOOOOO       +++++++++++",
"+++++++++++       OOOOOOOOOOOOOOOOOOOOOOOOOOOO       +++++++++++",
"+++++++++++                 ........                 +++++++++++",
"+++++++++++                 ........                 +++++++++++",
"+++++++++++                 ........                 +++++++++++",
"++++++++++++++              oooooooo              ++++++++++++++",
"++++++++++++++              oooooooo              ++++++++++++++",
"++++++++++++++              oooooooo              ++++++++++++++",
"++++++++++++++              oooooooo              ++++++++++++++",
"+++++++++++++++++++++       oooooooo       +++++++++++++++++++++",
"+++++++++++++++++++++       oooooooo       +++++++++++++++++++++",
"+++++++++++++++++++++       oooooooo       +++++++++++++++++++++",
"+++++++++++++++++++++       oooooooo       +++++++++++++++++++++",
"+++++++++++++++++++++       oooooooo       +++++++++++++++++++++",
"+++++++++++++++++++++       oooooooo       +++++++++++++++++++++",
"+++++++++++++++++++++       oooooooo       +++++++++++++++++++++"
};
