/* XPM */
static char *result[] = {
/* columns rows colors chars-per-pixel */
"64 64 8 1 ",
"  c #7E3125",
". c #6F3E43",
"X c #DD442C",
"o c #FC683B",
"O c #E29F7B",
"+ c #FCC782",
"@ c #C2E3E8",
"# c #DCE1E7",
/* pixels */
"@@@@@@@@@@@@@@@@@@@@@@@@@@@@@@@@@@@@@@@@@@@@@@@@@@@@@@@@@@@@@@@@",
"@@@@@@@@@@@@@@@@@@@@@@@@@@@@@@@@@@@@@@@@@@@@@@@@@@@@@@@@@@@@@@@@",
"@@@@@@@@@@@@@@@@@@@@@@@@@@@@@@@@@@@@@@@@@@@@@@@@@@@@@@@@@@@@@@@@",
"@@@@@@@@@@@@@@@@@@@@@@@@@@@@@@@@@@@@@@@@@@@@@@@@@@@@@@@@@@@@@@@@",
"@@@@@@@@@@@@@@@@@@@@@@@@@@@@@@@@@@@@@@@@@@@@@@@@@@@@@@@@@@@@@@@@",
"@@@@@@@@@@@@@@@@@@@@@@@@@@@@@@@@@@@@@@@@@@@@@@@@@@@@@@@@@@@@@@@@",
"@@@@@@@@@@@@@@@@@@@@@@@@@@@@@@@@@@@@@@@@@@@@@@@@@@@@@@@@@@@@@@@@",
"@@@@@@@@@@@@@@@@@@@@@@@@@@@@@@@@@@@@@@@@@@@@@@@@@@@@@@@@@@@@@@@@",
"@@@@@@@@@@@@@@@@@@@@@@@@@@@@@@@@@@@@@@@@@@@@@@@@@@@@@@@@@@@@@@@@",
"@@@@@@@@@@@@@@@@@@@@@@@@@@@@@@@@@@@@@@@@@@@@@@@@@@@@@@@@@@@@@@@@",
"@@@@@@@@@@@@@@@@@@@@@@@@@@@@@@@@@@@@@@@@@@@@@@@@@@@@@@@@@@@@@@@@",
"@@@@@@@@@@@@@@@@@@@@@@@@@@@@@@@@@@@@@@@@@@@@@@@@@@@@@@@@@@@@@@@@",
"@@@@@@@@@@@@@@@@@@@@@@@@@@@@@@@@@@@@@@@@@@@@@@@@@@@@@@@@@@@@@@@@",
"@@@@@@@@@@@@@@@@@@@@@@@@@@@@@@@@@@@@@@@@@@@@@@@@@@@@@@@@@@@@@@@@",
"@@@@@@@@@@@@@@@@@@@@@@@@@@@@@@@@@@@@@@@@@@@@@@@@@@@@@@@@@@@@@@@@",
"@@@@@@@@@@@@@@@@@@@@@@@@@@@@@@@@@@@@@@@@@@@@@@@@@@@@@@@@@@@@@@@@",
"@@@@@@@@@@@@@@@@@@@@@@@@@@@@@@@@@@@@@@@@@@@@@@@@@@@@@@@@@@@@@@@@",
"@@@@@@@@@@@@@@@@@@@@@@@@@@@@@@@@@@@@@@@@@@@@@@@@@@@@@@@@@@@@@@@@",
"@@@@@@@@@@@@@@@@@@@@@@@@@@@@@@@@@@@@@@@@@@@@@@@@@@@@@@@@@@@@@@@@",
"@@@@@@@@@@@@@@@@@@@@@@@@@@@@@@@@@@@@@@@@@@@@@@@@@@@@@@@@@@@@@@@@",
"@@@@@@@@@@@@@@@@@@@@@@@@@@@@@@@@@@@@@@@@@@@@@@@@@@@@@@@@@@@@@@@@",
"@@@@@@@@@@@@@@@@@@                            @@@@@@@@@@@@@@@@@@",
"@@@@@@@@@@@@@@@@@@                            @@@@@@@@@@@@@@@@@@",
"@@@@@@@@@@@@@@@@@@                            @@@@@@@@@@@@@@@@@@",
"@@@@@@@@@@@@@@@@@@                            @@@@@@@@@@@@@@@@@@",
"@@@@@@@@@@@@@@                                    @@@@@@@@@@@@@@",
"@@@@@@@@@@@@@@                                    @@@@@@@@@@@@@@",
"@@@@@@@@@@@@@@                                    @@@@@@@@@@@@@@",
"@@@@@@@@@@@          oooooooooooooooooooooo          @@@@@@@@@@@",
"@@@@@@@@@@@          oooooooooooooooooooooo          @@@@@@@@@@@",
"@@@@@@@@@@@          oooooooooooooooooooooo          @@@@@@@@@@@",
"@@@@@@@@@@@          oooooooooooooooooooooo          @@@@@@@@@@@",
"@@@@@@@@@@@       XXXooooooooooooooo#######XXX       @@@@@@@@@@@",
"@@@@@@@@@@@       XXXooooooooooooooo#######XXX       @@@@@@@@@@@",
"@@@@@@@@@@@       XXXooooooooooooooo#######XXX       @@@@@@@@@@@",
"@@@@@@@@@@@       XXXooooooooooooooo#######XXX       @@@@@@@@@@@",
"@@@@@@@@@@@       XXX####XXXXXXXXXXX#######XXX       @@@@@@@@@@@",
"@@@@@@@@@@@       XXX####XXXXXXXXXXX#######XXX       @@@@@@@@@@@",
"@@@@@@@@@@@       XXX####XXXXXXXXXXX#######XXX       @@@@@@@@@@@",
"@@@@@@@@@@@       XXXXXXXXXXXXXXXXXXXXXXXXXXXX       @@@@@@@@@@@",
"@@@@@@@@@@@       XXXXXXXXXXXXXXXXXXXXXXXXXXXX       @@@@@@@@@@@",
"@@@@@@@@@@@       XXXXXXXXXXXXXXXXXXXXXXXXXXXX       @@@@@@@@@@@",
"@@@@@@@@@@@       XXXXXXXXXXXXXXXXXXXXXXXXXXXX       @@@@@@@@@@@",
"@@@@@@@@@@@       ++++++++++++++++++++++++++++       @@@@@@@@@@@",
"@@@@@@@@@@@       ++++++++++++++++++++++++++++       @@@@@@@@@@@",
"@@@@@@@@@@@       ++++++++++++++++++++++++++++       @@@@@@@@@@@",
"@@@@@@@@@@@..............OOOOOOOOOOOOOO..............@@@@@@@@@@@",
"@@@@@@@@@@@..............OOOOOOOOOOOOOO..............@@@@@@@@@@@",
"@@@@@@@@@@@..............OOOOOOOOOOOOOO..............@@@@@@@@@@@",
"@@@@@@@@@@@..............OOOOOOOOOOOOOO..............@@@@@@@@@@@",
"@@@@@@@@@@@@@@..............++++++++..............@@@@@@@@@@@@@@",
"@@@@@@@@@@@@@@..............++++++++..............@@@@@@@@@@@@@@",
"@@@@@@@@@@@@@@..............++++++++..............@@@@@@@@@@@@@@",
"@@@@@@@@@@@@@@@@@@@@@.......++++++++.......@@@@@@@@@@@@@@@@@@@@@",
"@@@@@@@@@@@@@@@@@@@@@.......++++++++.......@@@@@@@@@@@@@@@@@@@@@",
"@@@@@@@@@@@@@@@@@@@@@.......++++++++.......@@@@@@@@@@@@@@@@@@@@@",
"@@@@@@@@@@@@@@@@@@@@@.......++++++++.......@@@@@@@@@@@@@@@@@@@@@",
"@@@@@@@@@@@@@@@@@@..........++++++++..........@@@@@@@@@@@@@@@@@@",
"@@@@@@@@@@@@@@@@@@..........++++++++..........@@@@@@@@@@@@@@@@@@",
"@@@@@@@@@@@@@@@@@@..........++++++++..........@@@@@@@@@@@@@@@@@@",
"@@@@@@@@@@@@@@@@@@.......OOO++++++++OOO.......@@@@@@@@@@@@@@@@@@",
"@@@@@@@@@@@@@@@@@@.......OOO++++++++OOO.......@@@@@@@@@@@@@@@@@@",
"@@@@@@@@@@@@@@@@@@.......OOO++++++++OOO.......@@@@@@@@@@@@@@@@@@",
"@@@@@@@@@@@@@@@@@@.......OOO++++++++OOO.......@@@@@@@@@@@@@@@@@@"
};
