/* XPM */
static char *result[] = {
/* columns rows colors chars-per-pixel */
"64 64 5 1 ",
"  c #6F3E43",
". c #9F5A52",
"X c #CB815E",
"o c #F4AC66",
"O c #C2E3E8",
/* pixels */
"OOOOOOOOOOOOOOOOOOOOOOOOO              OOOOOOOOOOOOOOOOOOOOOOOOO",
"OOOOOOOOOOOOOOOOOOOOOOOOO              OOOOOOOOOOOOOOOOOOOOOOOOO",
"OOOOOOOOOOOOOOOOOOOOOOOOO              OOOOOOOOOOOOOOOOOOOOOOOOO",
"OOOOOOOOOOOOOOOOOOOOOOOOO              OOOOOOOOOOOOOOOOOOOOOOOOO",
"OOOO                                                        OOOO",
"OOOO                                                        OOOO",
"OOOO                                                        OOOO",
"                            oooooooo                            ",
"                            oooooooo                            ",
"                            oooooooo                            ",
"                            oooooooo                            ",
"       ooooooooooooooooooXXXXXXXXXXXXXXoooooooooooooooooo       ",
"       ooooooooooooooooooXXXXXXXXXXXXXXoooooooooooooooooo       ",
"       ooooooooooooooooooXXXXXXXXXXXXXXoooooooooooooooooo       ",
"       oooooooooooooooooooooooooooooooooooooooooooooooooo       ",
"       oooooooooooooooooooooooooooooooooooooooooooooooooo       ",
"       oooooooooooooooooooooooooooooooooooooooooooooooooo       ",
"       oooooooooooooooooooooooooooooooooooooooooooooooooo       ",
"       XXXXXXXXXXXXXXXXXXXXXXXXXXXXXXXXXXXXXXXXXXXXXXXXXX       ",
"       XXXXXXXXXXXXXXXXXXXXXXXXXXXXXXXXXXXXXXXXXXXXXXXXXX       ",
"       XXXXXXXXXXXXXXXXXXXXXXXXXXXXXXXXXXXXXXXXXXXXXXXXXX       ",
"       XXXXXXXXXXXXXXXXXXXXXXXXXXXXX.......XXXXXXXXXXXXXX       ",
"       XXXXXXXXXXXXXXXXXXXXXXXXXXXXX.......XXXXXXXXXXXXXX       ",
"       XXXXXXXXXXXXXXXXXXXXXXXXXXXXX.......XXXXXXXXXXXXXX       ",
"       XXXXXXXXXXXXXXXXXXXXXXXXXXXXX.......XXXXXXXXXXXXXX       ",
"       XXXXXXX..................XXXX..........XXXXXXXXXXX       ",
"       XXXXXXX..................XXXX..........XXXXXXXXXXX       ",
"       XXXXXXX..................XXXX..........XXXXXXXXXXX       ",
"       XXXXXXX..................XXXX..............XXXXXXX       ",
"       XXXXXXX..................XXXX..............XXXXXXX       ",
"       XXXXXXX..................XXXX..............XXXXXXX       ",
"       XXXXXXX..................XXXX..............XXXXXXX       ",
"       XXXXXXX..................XXXX..........XXXXXXXXXXX       ",
"       XXXXXXX..................XXXX..........XXXXXXXXXXX       ",
"       XXXXXXX..................XXXX..........XXXXXXXXXXX       ",
"       XXXXXXX..................XXXX..........XXXXXXXXXXX       ",
"       XXXXXXXXXXXXXXXXXXXXXXXXXXXXX.......XXXXXXXXXXXXXX       ",
"       XXXXXXXXXXXXXXXXXXXXXXXXXXXXX.......XXXXXXXXXXXXXX       ",
"       XXXXXXXXXXXXXXXXXXXXXXXXXXXXX.......XXXXXXXXXXXXXX       ",
"       XXXXXXXXXXXXXXXXXXXXXXXXXXXXXXXXXXXXXXXXXXXXXXXXXX       ",
"       XXXXXXXXXXXXXXXXXXXXXXXXXXXXXXXXXXXXXXXXXXXXXXXXXX       ",
"       XXXXXXXXXXXXXXXXXXXXXXXXXXXXXXXXXXXXXXXXXXXXXXXXXX       ",
"       XXXXXXXXXXXXXXXXXXXXXXXXXXXXXXXXXXXXXXXXXXXXXXXXXX       ",
"                            ........                            ",
"                            ........                            ",
"                            ........                            ",
"OOOO                        XXXXXXXX                        OOOO",
"OOOO                        XXXXXXXX                        OOOO",
"OOOO                        XXXXXXXX                        OOOO",
"OOOO                        XXXXXXXX                        OOOO",
"OOOOOOOOOOOOOOOOOOOOO       XXXXXXXX       OOOOOOOOOOOOOOOOOOOOO",
"OOOOOOOOOOOOOOOOOOOOO       XXXXXXXX       OOOOOOOOOOOOOOOOOOOOO",
"OOOOOOOOOOOOOOOOOOOOO       XXXXXXXX       OOOOOOOOOOOOOOOOOOOOO",
"OOOOOOOOOOOOOOOOOOOOO       XXXXXXXX       OOOOOOOOOOOOOOOOOOOOO",
"OOOOOOOOOOOOOOOOOOOOO       XXXXXXXX       OOOOOOOOOOOOOOOOOOOOO",
"OOOOOOOOOOOOOOOOOOOOO       XXXXXXXX       OOOOOOOOOOOOOOOOOOOOO",
"OOOOOOOOOOOOOOOOOOOOO       XXXXXXXX       OOOOOOOOOOOOOOOOOOOOO",
"OOOOOOOOOOOOOOOOOOOOO       XXXXXXXX       OOOOOOOOOOOOOOOOOOOOO",
"OOOOOOOOOOOOOOOOOOOOO       XXXXXXXX       OOOOOOOOOOOOOOOOOOOOO",
"OOOOOOOOOOOOOOOOOOOOO       XXXXXXXX       OOOOOOOOOOOOOOOOOOOOO",
"OOOOOOOOOOOOOOOOOOOOO       XXXXXXXX       OOOOOOOOOOOOOOOOOOOOO",
"OOOOOOOOOOOOOOOOOOOOO       XXXXXXXX       OOOOOOOOOOOOOOOOOOOOO",
"OOOOOOOOOOOOOOOOOOOOO       XXXXXXXX       OOOOOOOOOOOOOOOOOOOOO",
"OOOOOOOOOOOOOOOOOOOOO       XXXXXXXX       OOOOOOOOOOOOOOOOOOOOO"
};
