/* XPM */
static char *result[] = {
/* columns rows colors chars-per-pixel */
"64 64 5 1 ",
"  c #434A5F",
". c #0F688D",
"X c #1490C3",
"o c #2CC5F6",
"O c #C2E3E8",
/* pixels */
"OOOOOOOOOOOOOOOOOOOOOOOOOOOOOOOO                            OOOO",
"OOOOOOOOOOOOOOOOOOOOOOOOOOOOOOOO                            OOOO",
"OOOOOOOOOOOOOOOOOOOOOOOOOOOOOOOO                            OOOO",
"OOOOOOOOOOOOOOOOOOOOOOOOOOOOOOOO                            OOOO",
"                                                                ",
"                                                                ",
"                                                                ",
"                                    oooooooXXXXXXXXXXXXXX       ",
"                                    oooooooXXXXXXXXXXXXXX       ",
"                                    oooooooXXXXXXXXXXXXXX       ",
"                                    oooooooXXXXXXXXXXXXXX       ",
"XXXXXXXXXXXXXXXXXXXXXXXXXXXXXXXX....oooooooooooooooooXXXX       ",
"XXXXXXXXXXXXXXXXXXXXXXXXXXXXXXXX....oooooooooooooooooXXXX       ",
"XXXXXXXXXXXXXXXXXXXXXXXXXXXXXXXX....oooooooooooooooooXXXX       ",
"XXXXXXXXXXXXXXXXXXXXXXXXXXXXXXXX....oooooooXXXXXXXXXXXXXX       ",
"XXXXXXXXXXXXXXXXXXXXXXXXXXXXXXXX....oooooooXXXXXXXXXXXXXX       ",
"XXXXXXXXXXXXXXXXXXXXXXXXXXXXXXXX....oooooooXXXXXXXXXXXXXX       ",
"XXXXXXXXXXXXXXXXXXXXXXXXXXXXXXXX....oooooooXXXXXXXXXXXXXX       ",
"ooooooooooooooooooooooooooooXXXX....oooooooooooooooooXXXX       ",
"ooooooooooooooooooooooooooooXXXX....oooooooooooooooooXXXX       ",
"ooooooooooooooooooooooooooooXXXX....oooooooooooooooooXXXX       ",
"ooooooooooooooooooooooooooooXXXX....oooooooooooooooooXXXX       ",
"ooooooooooooooooooooooooooooXXXX....oooooooooooooooooXXXX       ",
"ooooooooooooooooooooooooooooXXXX....oooooooooooooooooXXXX       ",
"ooooooooooooooooooooooooooooXXXX....oooooooooooooooooXXXX       ",
"ooooooooooooooooooooooooooooXXXX....oooooooooooooooooXXXX       ",
"ooooooooooooooooooooooooooooXXXX....oooooooooooooooooXXXX       ",
"ooooooooooooooooooooooooooooXXXX....oooooooooooooooooXXXX       ",
"ooooooooooooooooooooooooooooXXXX....oooooooooooooooooXXXX       ",
"ooooooooooooooooooooooooooooXXXX....oooooooooooooooooXXXX       ",
"ooooooooooooooooooooooooooooXXXX....oooooooooooooooooXXXX       ",
"ooooooooooooooooooooooooooooXXXX....oooooooooooooooooXXXX       ",
"ooooooooooooooooooooooooooooXXXX....oooooooooooooooooXXXX       ",
"ooooooooooooooooooooooooooooXXXX....oooooooooooooooooXXXX       ",
"ooooooooooooooooooooooooooooXXXX....oooooooooooooooooXXXX       ",
"ooooooooooooooooooooooooooooXXXX....oooooooooooooooooXXXX       ",
"ooooooooooooooooooooooooooooXXXX....oooooooooooooooooXXXX       ",
"ooooooooooooooooooooooooooooXXXX....oooooooooooooooooXXXX       ",
"ooooooooooooooooooooooooooooXXXX....oooooooooooooooooXXXX       ",
"ooooooooooooooooooooooooooooXXXX....oooooooooooooooooXXXX       ",
"ooooooooooooooooooooooooooooXXXX....oooooooooooooooooXXXX       ",
"ooooooooooooooooooooooooooooXXXX....oooooooooooooooooXXXX       ",
"ooooooooooooooooooooooooooooXXXX....oooooooooooooooooXXXX       ",
"ooooooooooooooooooooooooooooXXXX....oooooooooooooooooXXXX       ",
"ooooooooooooooooooooooooooooXXXX....oooooooooooooooooXXXX       ",
"ooooooooooooooooooooooooooooXXXX....oooooooooooooooooXXXX       ",
"XXXXXXXXXXXXXXXXXXXXXXXXXXXXXXXX....oooooooXXXXXXXXXXXXXX       ",
"XXXXXXXXXXXXXXXXXXXXXXXXXXXXXXXX....oooooooXXXXXXXXXXXXXX       ",
"XXXXXXXXXXXXXXXXXXXXXXXXXXXXXXXX....oooooooXXXXXXXXXXXXXX       ",
"XXXXXXXXXXXXXXXXXXXXXXXXXXXXXXXX....oooooooXXXXXXXXXXXXXX       ",
"XXXXXXXXXXXXXXXXXXXXXXXXXXXXXXXX....oooooooooooooooooXXXX       ",
"XXXXXXXXXXXXXXXXXXXXXXXXXXXXXXXX....oooooooooooooooooXXXX       ",
"XXXXXXXXXXXXXXXXXXXXXXXXXXXXXXXX....oooooooooooooooooXXXX       ",
"                                    oooooooXXXXXXXXXXXXXX       ",
"                                    oooooooXXXXXXXXXXXXXX       ",
"                                    oooooooXXXXXXXXXXXXXX       ",
"                                    oooooooXXXXXXXXXXXXXX       ",
"                                                                ",
"                                                                ",
"                                                                ",
"OOOOOOOOOOOOOOOOOOOOOOOOOOOOOOOO                            OOOO",
"OOOOOOOOOOOOOOOOOOOOOOOOOOOOOOOO                            OOOO",
"OOOOOOOOOOOOOOOOOOOOOOOOOOOOOOOO                            OOOO",
"OOOOOOOOOOOOOOOOOOOOOOOOOOOOOOOO                            OOOO"
};
