/* XPM */
static char *result[] = {
/* columns rows colors chars-per-pixel */
"64 64 4 1 ",
"  c #6F3E43",
". c #9F5A52",
"X c #CB815E",
"o c #F4AC66",
/* pixels */
"                                                                ",
"                                                                ",
"                                                                ",
"                                                                ",
"                                                                ",
"                                                                ",
"                                                                ",
"       ooooooooooooooooooooooooooooooooXXXXXXXooooooooooo       ",
"       ooooooooooooooooooooooooooooooooXXXXXXXooooooooooo       ",
"       ooooooooooooooooooooooooooooooooXXXXXXXooooooooooo       ",
"       ooooooooooooooooooooooooooooooooXXXXXXXooooooooooo       ",
"       XXXXooooooooooooooooooooooooooooooooooooooooooXXXX       ",
"       XXXXooooooooooooooooooooooooooooooooooooooooooXXXX       ",
"       XXXXooooooooooooooooooooooooooooooooooooooooooXXXX       ",
"       XXXXXXXooooooooooooooooooooooooooooooooooooXXXXXXX       ",
"       XXXXXXXooooooooooooooooooooooooooooooooooooXXXXXXX       ",
"       XXXXXXXooooooooooooooooooooooooooooooooooooXXXXXXX       ",
"       XXXXXXXooooooooooooooooooooooooooooooooooooXXXXXXX       ",
"       XXXXXXXXXXXooooooooooooooooooooooooooooXXXXXXXXXXX       ",
"       XXXXXXXXXXXooooooooooooooooooooooooooooXXXXXXXXXXX       ",
"       XXXXXXXXXXXooooooooooooooooooooooooooooXXXXXXXXXXX       ",
"       ....XXXXXXXXXXooooooooooooooooooooooXXXXXXXXXXXXXX       ",
"       ....XXXXXXXXXXooooooooooooooooooooooXXXXXXXXXXXXXX       ",
"       ....XXXXXXXXXXooooooooooooooooooooooXXXXXXXXXXXXXX       ",
"       ....XXXXXXXXXXooooooooooooooooooooooXXXXXXXXXXXXXX       ",
"       ....XXXXXXXXXXXXXXooooooooooooooXXXXXXXXXXXXXXXXXX       ",
"       ....XXXXXXXXXXXXXXooooooooooooooXXXXXXXXXXXXXXXXXX       ",
"       ....XXXXXXXXXXXXXXooooooooooooooXXXXXXXXXXXXXXXXXX       ",
"       XXXXXXXXXXXXXXXXXXXXXooooooooXXXXXXXXXXXXXXXXXXXXX       ",
"       XXXXXXXXXXXXXXXXXXXXXooooooooXXXXXXXXXXXXXXXXXXXXX       ",
"       XXXXXXXXXXXXXXXXXXXXXooooooooXXXXXXXXXXXXXXXXXXXXX       ",
"       XXXXXXXXXXXXXXXXXXXXXooooooooXXXXXXXXXXXXXXXXXXXXX       ",
"       XXXXXXXXXXXXXXXXXXXXX........XXXXXXXXXXXXXXXXXXXXX       ",
"       XXXXXXXXXXXXXXXXXXXXX........XXXXXXXXXXXXXXXXXXXXX       ",
"       XXXXXXXXXXXXXXXXXXXXX........XXXXXXXXXXXXXXXXXXXXX       ",
"       XXXXXXXXXXXXXXXXXXXXX........XXXXXXXXXXXXXXXXXXXXX       ",
"       XXXXXXXXXXXXXXXXXX..............XXXXXXXXXXXXXX....       ",
"       XXXXXXXXXXXXXXXXXX..............XXXXXXXXXXXXXX....       ",
"       XXXXXXXXXXXXXXXXXX..............XXXXXXXXXXXXXX....       ",
"       XXXXXXXXXXXXXX......................XXXXXXXXXX....       ",
"       XXXXXXXXXXXXXX......................XXXXXXXXXX....       ",
"       XXXXXXXXXXXXXX......................XXXXXXXXXX....       ",
"       XXXXXXXXXXXXXX......................XXXXXXXXXX....       ",
"       XXXXXXXXXXX............................XXXXXXXXXXX       ",
"       XXXXXXXXXXX............................XXXXXXXXXXX       ",
"       XXXXXXXXXXX............................XXXXXXXXXXX       ",
"       XXXXXXX....................................XXXXXXX       ",
"       XXXXXXX....................................XXXXXXX       ",
"       XXXXXXX....................................XXXXXXX       ",
"       XXXXXXX....................................XXXXXXX       ",
"       XXXX..........................................XXXX       ",
"       XXXX..........................................XXXX       ",
"       XXXX..........................................XXXX       ",
"       ...........XXXXXXX................................       ",
"       ...........XXXXXXX................................       ",
"       ...........XXXXXXX................................       ",
"       ...........XXXXXXX................................       ",
"                                                                ",
"                                                                ",
"                                                                ",
"                                                                ",
"                                                                ",
"                                                                ",
"                                                                "
};
