/* XPM */
static char *result[] = {
/* columns rows colors chars-per-pixel */
"64 64 2 1 ",
"  c #4CE5FD",
". c #2CC5F6",
/* pixels */
"................................................................",
"................................................................",
"................................................................",
"................................................................",
"................................................................",
"................................................................",
"................................................................",
".......       ..................................................",
".......       ..................................................",
".......       ..................................................",
".......       ..................................................",
".......       ....       .......................................",
".......       ....       .......................................",
".......       ....       .......................................",
"..................       .......................................",
"..................       .......................................",
"..................       .......................................",
"..................       .......................................",
".......................................    .....................",
".......................................    .....................",
".......................................    .....................",
"...........   ..................................................",
"...........   ..................................................",
"...........   ..................................................",
"...........   ..................................................",
"................................................................",
"................................................................",
"................................................................",
"................................................................",
"................................................................",
"................................................................",
"................................................................",
"................................................................",
"................................................................",
"................................................................",
"................................................................",
"................................................................",
"................................................................",
"................................................................",
"................................................................",
"................................................................",
"................................................................",
"................................................................",
"...........................................   ..................",
"...........................................   ..................",
"...........................................   ..................",
"..................................................   ...........",
"..................................................   ...........",
"..................................................   ...........",
"..................................................   ...........",
"................................................................",
"................................................................",
"................................................................",
".......................................    .....................",
".......................................    .....................",
".......................................    .....................",
".......................................    .....................",
"................................................................",
"................................................................",
"................................................................",
"................................................................",
"................................................................",
"................................................................",
"................................................................"
};
