/* XPM */
static char *result[] = {
/* columns rows colors chars-per-pixel */
"64 64 254 2 ",
"   c black",
".  c #000001",
"X  c #000003",
"o  c #010103",
"O  c #020303",
"+  c #050502",
"@  c #000004",
"#  c #020305",
"$  c #030406",
"%  c #050504",
"&  c #070705",
"*  c #040506",
"=  c #060506",
"-  c #070706",
";  c #080706",
":  c #0A0906",
">  c #0F0D05",
",  c #0D0C07",
"<  c #070708",
"1  c #0B0A08",
"2  c #0D0C09",
"3  c #0E0D08",
"4  c #110F09",
"5  c #141105",
"6  c #131109",
"7  c #151209",
"8  c #161309",
"9  c #14110A",
"0  c #15120B",
"q  c #16130A",
"w  c #13110C",
"e  c #19160B",
"r  c #18140C",
"t  c #1D190A",
"y  c #1C190C",
"u  c #1F1B0C",
"i  c #221E0F",
"p  c #26210E",
"a  c #2A240E",
"s  c #2D270F",
"d  c #252011",
"f  c #272212",
"g  c #292310",
"h  c #2C2613",
"j  c #2F2911",
"k  c #322B12",
"l  c #362E12",
"z  c #3B3212",
"x  c #3C3313",
"c  c #383015",
"v  c #3C3314",
"b  c #3F3514",
"n  c #413711",
"m  c #403615",
"M  c #463B13",
"N  c #433916",
"B  c #483C16",
"V  c #42391A",
"C  c #493E19",
"Z  c #4B4017",
"A  c #4D4119",
"S  c #4F4318",
"D  c #4C411B",
"F  c #4F431A",
"G  c #4D421C",
"H  c #534515",
"J  c #564816",
"K  c #504519",
"L  c #51451B",
"P  c #53451A",
"I  c #53461A",
"U  c #544618",
"Y  c #52461C",
"T  c #54471E",
"R  c #56491B",
"E  c #53481E",
"W  c #56491D",
"Q  c #584A1B",
"!  c #5B4D1B",
"~  c #584A1E",
"^  c #5A4D1E",
"/  c #5E4F1F",
"(  c #5F511D",
")  c #65551E",
"_  c #6B5A1F",
"`  c #6F5C1F",
"'  c #715F1E",
"]  c #72601F",
"[  c #5D5020",
"{  c #615220",
"}  c #695921",
"|  c #6C5B21",
" . c #705F21",
".. c #786625",
"X. c #7C6820",
"o. c #7F6B25",
"O. c #7F6C28",
"+. c #826D22",
"@. c #846F21",
"#. c #816D26",
"$. c #846F27",
"%. c #806C29",
"&. c #887226",
"*. c #8B7424",
"=. c #887229",
"-. c #89732A",
";. c #8D772A",
":. c #88742D",
">. c #8F7828",
",. c #8F792D",
"<. c #927A26",
"1. c #927B29",
"2. c #957D29",
"3. c #947C2A",
"4. c #917A2D",
"5. c #947C2E",
"6. c #987F2B",
"7. c #9B822A",
"8. c #9D8631",
"9. c #A48A2F",
"0. c #AB8E2A",
"q. c #AA8F2E",
"w. c #AE922D",
"e. c #A18830",
"r. c #A88D30",
"t. c #AE9334",
"y. c #B19534",
"u. c #B69830",
"i. c #BA9C33",
"p. c #BE9F31",
"a. c #B59938",
"s. c #BDA138",
"d. c #C2A235",
"f. c #C9A836",
"g. c #CCAA36",
"h. c #CEAC36",
"j. c #CCAD39",
"k. c #D0AD37",
"l. c #D9B435",
"z. c #DFBA34",
"x. c #D3B038",
"c. c #D6B33A",
"v. c #D6B63B",
"b. c #D4B43D",
"n. c #DAB63B",
"m. c #DBB83B",
"M. c #DEB93B",
"N. c #DEBA3D",
"B. c #E0BB3A",
"V. c #E3BE3B",
"C. c #E5BF39",
"Z. c #E5BE3B",
"A. c #E1BD3D",
"S. c #E7BF3C",
"D. c #E9C136",
"F. c #EBC236",
"G. c #EAC237",
"H. c #EAC337",
"J. c #EBC337",
"K. c #ECC136",
"L. c #ECC336",
"P. c #EFC535",
"I. c #ECC437",
"U. c #EEC536",
"Y. c #EFC637",
"T. c #E6C23F",
"R. c #EAC23B",
"E. c #ECC53B",
"W. c #EAC33C",
"Q. c #ECC53D",
"!. c #EFC73C",
"~. c #EDC63F",
"^. c #EEC73F",
"/. c #F0C737",
"(. c #F2C737",
"). c #F1C837",
"_. c #F3C937",
"`. c #F3CA37",
"'. c #F4C937",
"]. c #F4CA37",
"[. c #F6CB37",
"{. c #F7CD37",
"}. c #F9CD37",
"|. c #F2C838",
" X c #F5CB38",
".X c #F6CD38",
"XX c #F1C93C",
"oX c #F2C93C",
"OX c #F3CA3D",
"+X c #F0C83F",
"@X c #F2CB3F",
"#X c #F4CB3D",
"$X c #F6CD3E",
"%X c #F8CD38",
"&X c #FACD38",
"*X c #F8CE39",
"=X c #FACF38",
"-X c #FCCF39",
";X c #F9CF3E",
":X c #FAD039",
">X c #FBD139",
",X c #FBD03B",
"<X c #FBD33A",
"1X c #FCD038",
"2X c #FCD339",
"3X c #FED33A",
"4X c #FFD439",
"5X c #FFD53A",
"6X c #FDD63B",
"7X c #FFD73B",
"8X c #FBD13F",
"9X c #FDD23C",
"0X c #FFD33D",
"qX c #FFD63D",
"wX c #FDD53F",
"eX c #FFDB3B",
"rX c #FFD93C",
"tX c #FFDB3D",
"yX c #FFD83F",
"uX c #FFDC3D",
"iX c #FFDF3D",
"pX c #FFDD3E",
"aX c #FFDF3E",
"sX c #FFE13F",
"dX c #FFE23F",
"fX c #FFE53F",
"gX c #EDC740",
"hX c #F5CE41",
"jX c #FFD841",
"kX c #FFDA40",
"lX c #FDD843",
"zX c #FFD943",
"xX c #FFDA42",
"cX c #FFDC41",
"vX c #FFDF41",
"bX c #FFDD42",
"nX c #FFDF42",
"mX c #FFDB44",
"MX c #FFDE44",
"NX c #FFDC49",
"BX c #FFE041",
"VX c #FFE240",
"CX c #FFE043",
"ZX c #FFE342",
"AX c #FFE541",
"SX c #FFE740",
"DX c #FFE543",
"FX c #FFE742",
"GX c #FFE145",
"HX c #FFE646",
"JX c #FFE943",
"KX c #FFEF48",
"LX c #FFF944",
"PX c None",
/* pixels */
"PXPXPXPXPXPXPXPXPXPXPXPXPXPXPXPXPXPXPXPXPX                                            PXPXPXPXPXPXPXPXPXPXPXPXPXPXPXPXPXPXPXPXPX",
"PXPXPXPXPXPXPXPXPXPXPXPXPXPXPXPXPXPX                                                        PXPXPXPXPXPXPXPXPXPXPXPXPXPXPXPXPXPX",
"PXPXPXPXPXPXPXPXPXPXPXPXPXPXPXPX                                                                PXPXPXPXPXPXPXPXPXPXPXPXPXPXPXPX",
"PXPXPXPXPXPXPXPXPXPXPXPXPXPX                                                                        PXPXPXPXPXPXPXPXPXPXPXPXPXPX",
"PXPXPXPXPXPXPXPXPXPXPXPXPX                                                                            PXPXPXPXPXPXPXPXPXPXPXPXPX",
"PXPXPXPXPXPXPXPXPXPXPXPX                                            +                                     PXPXPXPXPXPXPXPXPXPXPX",
"PXPXPXPXPXPXPXPXPXPXPX                  X k Q X.<.>.+.( j X         i e.w.<.2.2.@.! a .                     PXPXPXPXPXPXPXPXPXPX",
"PXPXPXPXPXPXPXPXPXPX                < } i.;XnXVXsXsXVXBX$Xd.} <     O  .HXLXiXiXVXnXOXi.^ @                   PXPXPXPXPXPXPXPXPX",
"PXPXPXPXPXPXPXPXPX                W c.BXuX XU.J.J.J.J.I..XuXBXc.[       d n.iXF.J.U.%XpXcXd.C                 PXPXPXPXPXPXPXPXPX",
"PXPXPXPXPXPXPXPX              @ 8.CXeXL.G.J.J.J.J.J.J.J.J.G.U.eXDX8.;     y N.rXD.J.J.G./.iXxX;.X               PXPXPXPXPXPXPXPX",
"PXPXPXPXPXPXPX              q s.FX[.D.J.J.J.J.J.J.J.J.J.J.J.J.D.).FXj.r     d hX4XD.J.J.J.D.{.JXy.$               PXPXPXPXPXPXPX",
"PXPXPXPXPXPX              4 v.fXL.G.J.J.J.G.I..X>X>X XI.G.J.J.J.G.L.fXb.w     L MX].G.J.J.J.G.P.AXa.#               PXPXPXPXPXPX",
"PXPXPXPXPXPX            @ s.SXF.G.J.J.G.J.7XBXXXB.B.XXBXrXL.G.J.J.G.F.dXj.&     3.AXL.J.J.J.J.G.U.FXr..             PXPXPXPXPXPX",
"PXPXPXPXPX              5.DXU.J.J.J.D.[.ZXg. .a q q a } f.BX.XD.J.J.G.F.JXe.    = n.7XG.J.J.J.J.G.Y.JXo.              PXPXPXPXPX",
"PXPXPXPXPX            G GX[.G.J.J.D.2XxX#.#             # ..xX3XD.J.J.G.).GXT     C CX(.J.J.J.J.J.G.{.mXc             PXPXPXPXPX",
"PXPXPXPX            2 A.7XD.J.J.D.>XxXW                     K kX<XD.J.J.D.5XT.4     p.pXD.J.J.J.J.J.D.uXk.%             PXPXPXPX",
"PXPXPXPX            -.AXF.J.J.G._.CX^                         P GX`.G.J.J.L.AX-.    N cX/.J.J.J.J.J.J.L.FX}             PXPXPXPX",
"PXPXPX            y @X=XG.J.J.K.FX;.                            =.AXL.J.J.G.%X8Xp     d.uXG.J.J.J.J.J.G.5XN.:             PXPXPX",
"PXPXPX            =.AXF.J.J.G.6XM.%                             X c.rXG.J.J.D.SX;.    R nXY.J.J.J.J.J.J.U.DX}             PXPXPX",
"PXPX            , V.2XG.J.J.L.DXQ         , U J H H J J >         F DXP.J.J.J.>XA.4   : M.2XJ.J.J.J.J.J.G.7Xk.o           PXPXPX",
"PXPX            R nXU.J.J.G.7Xx.X         h GXfXpXpXfXHXj         . f.rXG.J.J.U.ZX(     6.aXJ.J.J.J.J.J.J.).jXm             PXPX",
"PX              9.aXG.J.J.J.ZX|           f ^.{.I.I.[.#Xa           { ZXF.J.J.H.aXr.    R vXU.J.J.J.J.J.J.J.VX;.            PXPX",
"PX            2 Z.1XJ.J.J.%X!.q           f ~.[.J.J.].OXa           3 Q.%XJ.J.J.=XS.9   y !.%XJ.J.J.J.J.J.J.5Xk.O           PXPX",
"PX            Z cXU.J.J.J.pXw.            f ~.[.J.J.].OXa             q.aXG.J.J.U.cXI   . p.rXJ.J.J.J.J.J.J._.8Xj             PX",
"PX            #.VXG.J.J.J.AX .            f ~.[.J.J.].OXa             } ZXI.J.J.J.VX&.    *.BXJ.J.J.J.J.J.J.I.vX)             PX",
"PX            r.pXJ.J.J./.wXb             f ~.[.J.J.].OXa             l 8X).J.J.J.tXu..   ` sXI.J.J.J.J.J.J.H.sX3.              ",
"            % x.4XJ.J.J.&XR.7             f ~.[.J.J.].OXa             4 B.-XJ.J.J.4Xx.#   M wX/.J.J.J.J.J.J.J.tXu.              ",
"            0 A.=XJ.J.J.7Xf.o             f ~.[.J.J.].OXa               p.rXJ.J.J.%XR.u   g OX].J.J.J.J.J.J.J.3Xl.:             ",
"            s oX XJ.J.J.aX0.              f ~.[.J.J.].OXa               q.pXJ.J.J.).0Xz   t C.*XJ.J.J.J.J.J.J.=XV.r             ",
"            B qX/.J.J.J.sX7.              f ~.[.J.J.].OXa               3.aXJ.J.J.Y.jXA   5 z.,XJ.J.J.J.J.J.J.%XW.i             ",
"            S yXY.J.J.J.sX1.              f ~.[.J.J.].OXa               +.sXJ.J.J.Y.cXI   > l.9XJ.J.J.J.J.J.J.).9Xn             ",
"            R kXY.J.J.J.aX&.              f ~.[.J.J.].OXa               X.dXJ.J.J.Y.cXL     i.rXJ.J.J.J.J.J.J./.qXM             ",
"            R kXY.J.J.J.aX&.              f ~.[.J.J.].OXa               X.dXJ.J.J.Y.cXL     i.rXJ.J.J.J.J.J.J./.qXM             ",
"            S yXY.J.J.J.sX1.              f ~.[.J.J.].OXa               +.sXJ.J.J.Y.cXI   > l.9XJ.J.J.J.J.J.J.|.9Xn             ",
"            M qX/.J.J.J.sX7.              f ~.[.J.J.].OXa               2.aXJ.J.J./.kXZ   5 z.,XJ.J.J.J.J.J.J.%XW.i             ",
"            s oX XJ.J.J.pX0.              f ~.[.J.J.].OXa               q.pXJ.J.J.|.9Xz   t C.*XJ.J.J.J.J.J.J.=XV.q             ",
"            0 A.1XJ.J.J.5Xg.O             f ~.[.J.J.].OXa               p.rXJ.J.J.%XR.u   g OX].J.J.J.J.J.J.J.3Xl.:             ",
"PX          % h.5XJ.J.J.%XR.8             f ~.[.J.J.].OXa             6 V.-XJ.J.J.4Xx.#   B wX/.J.J.J.J.J.J.J.tXu.            PX",
"PX            q.aXH.J.J.).yXm             f ~.[.J.J.].OXa             l 8X).J.J.J.uXu.    ' sXI.J.J.J.J.J.J.H.sX1.            PX",
"PX            ..BXJ.J.J.J.AX..            f ~.[.J.J.].OXa             | ZXI.J.J.J.VX&.    >.BXJ.J.J.J.J.J.J.I.vX)             PX",
"PXPX          N jX/.J.J.J.uXu.            f ~.[.J.J.].OXa             q.pXH.J.J.U.cXK   . d.7XJ.J.J.J.J.J.J.'.8Xs             PX",
"PXPX          3 V.1XJ.J.J.[.!.e           f ~.[.J.J.].OXa           7 !.%XJ.J.J.=XZ.6   u !.%XJ.J.J.J.J.J.J.5Xh.o           PXPX",
"PXPX            e.aXG.J.J.J.ZX .          f +X}.U.U.{.$Xa           ` AXF.J.J.H.aXr.    Q vXI.J.J.J.J.J.J.J.BX&.            PXPX",
"PXPX            Y nXP.J.J.G.6Xn.X         h NXBXyXyXvXGXj         X k.7XG.J.J.U.ZX^     6.pXJ.J.J.J.J.J.J.(.jXv             PXPX",
"PXPX            - c.6XG.J.J.L.FX{         , Z Z B B Z A >         R DXU.J.J.G.2XA.3   7 V.:XJ.J.J.J.J.J.G.eXg.X           PXPXPX",
"PXPXPX            #.FXF.J.J.G.6XV.-                             % m.7XG.J.J.F.ZXO.    ) ZXU.J.J.J.J.J.J.U.DX)             PXPXPX",
"PXPXPX            e @X>XG.J.J.F.AX7.                            4.AXF.J.J.G.>XgX0   . d.rXG.J.J.J.J.J.G.7Xm.&             PXPXPX",
"PXPXPXPX            ..ZXL.J.J.G./.ZX}                         { GX).G.J.J.L.FX%.    B bX/.J.J.J.J.J.J.L.FX)             PXPXPXPX",
"PXPXPXPX            = M.rXD.J.J.D.%XMX{                     / kX:XD.J.J.D.7XA.3     d.uXG.J.J.J.J.J.D.iXg.O             PXPXPXPX",
"PXPXPXPXPX            C GX[.G.J.J.D.*XnX3.4             1 ;.nX>XD.J.J.G.`.DXD     L CX/.J.J.J.J.J.G.=XlXk             PXPXPXPXPX",
"PXPXPXPXPX              ;.JX/.G.J.J.D._.VXm.o.x t t z o.x.ZX].D.J.J.G.U.FX,.    : N.7XG.J.J.J.J.G.).JX|               PXPXPXPXPX",
"PXPXPXPXPXPX            X t.AXP.G.J.J.G.F.3XVX;XR.R.;XVX5XF.G.J.J.G.F.SXd.X     7.fXL.J.J.J.J.G.Y.FXe.              PXPXPXPXPXPX",
"PXPXPXPXPXPX              $ a.AXY.G.J.J.J.J.J._.*X*X`.J.J.J.J.J.G.U.SXj.,     ~ nX`.G.J.J.J.G.).FXt.X               PXPXPXPXPXPX",
"PXPXPXPXPXPXPX              * y.JX%XD.J.J.J.J.J.J.J.J.J.J.J.J.D.%XDXs.4     b jX>XD.J.J.J.D.%XFXr.@               PXPXPXPXPXPXPX",
"PXPXPXPXPXPXPXPX              X :.zXiX/.G.J.J.J.J.J.J.J.J.G.U.iXbX4.@     i ^.eXD.J.J.G.).dXjX..                PXPXPXPXPXPXPXPX",
"PXPXPXPXPXPXPXPX                  V f.bXpX=XY.I.H.J.I.Y.=XaXnXj.C       N T.qXD.I.Y.=XaXxXs.m                   PXPXPXPXPXPXPXPX",
"PXPXPXPXPXPXPXPXPX                  @ E t.W.kXBXdXdXBXkXS.t./ @     > $.KXLXpXsXBXkXE.w.L .                   PXPXPXPXPXPXPXPXPX",
"PXPXPXPXPXPXPXPXPXPX                      y A _ @.@._ F y           h q.7.*.*.*.] S u                       PXPXPXPXPXPXPXPXPXPX",
"PXPXPXPXPXPXPXPXPXPXPXPX                                                                                  PXPXPXPXPXPXPXPXPXPXPX",
"PXPXPXPXPXPXPXPXPXPXPXPXPX                                                                              PXPXPXPXPXPXPXPXPXPXPXPX",
"PXPXPXPXPXPXPXPXPXPXPXPXPXPX                                                                        PXPXPXPXPXPXPXPXPXPXPXPXPXPX",
"PXPXPXPXPXPXPXPXPXPXPXPXPXPXPXPX                                                                PXPXPXPXPXPXPXPXPXPXPXPXPXPXPXPX",
"PXPXPXPXPXPXPXPXPXPXPXPXPXPXPXPXPXPX                                                        PXPXPXPXPXPXPXPXPXPXPXPXPXPXPXPXPXPX",
"PXPXPXPXPXPXPXPXPXPXPXPXPXPXPXPXPXPXPXPXPX                                            PXPXPXPXPXPXPXPXPXPXPXPXPXPXPXPXPXPXPXPXPX"
};
