/* XPM */
static char *_c6c2a61594b4f6e93cf97549225a9d4g75PPTCtmUzogTKv[] = {
/* columns rows colors chars-per-pixel */
"102 64 256 2 ",
"   c black",
".  c white",
"X  c #EBC337",
"o  c #EAC237",
"O  c #060506",
"+  c #000004",
"@  c #000003",
"#  c #000001",
"$  c #070708",
"%  c #020305",
"&  c #030406",
"*  c #040506",
"=  c #020303",
"-  c #050502",
";  c #070705",
":  c #050504",
">  c #0A0A09",
",  c #FFF944",
"<  c #FFEF48",
"1  c #FFE740",
"2  c #FFE742",
"3  c #FFE943",
"4  c #FFE53F",
"5  c #FFE23F",
"6  c #FFE240",
"7  c #FFE541",
"8  c #FFE342",
"9  c #FFE543",
"0  c #FFE646",
"q  c #1E1D17",
"w  c #FFDF3D",
"e  c #FFDF3E",
"r  c #FFDD3E",
"t  c #FFE13F",
"y  c #FFDF41",
"u  c #FFE041",
"i  c #FFDF42",
"p  c #FFE043",
"a  c #FFDE44",
"s  c #FFE145",
"d  c #0D0C07",
"f  c #0E0D08",
"g  c #FFDB3B",
"h  c #FDD63B",
"j  c #FFD93C",
"k  c #FFDB3D",
"l  c #FFDC3D",
"z  c #FFDA40",
"x  c #141105",
"c  c #FFDC41",
"v  c #FFDD42",
"b  c #FFDA42",
"n  c #FDD843",
"m  c #FFDB44",
"M  c #FFDC49",
"N  c #504519",
"B  c #2D270F",
"V  c #0F0D05",
"C  c #2F2911",
"Z  c #1C190C",
"A  c #131109",
"S  c #FCD038",
"D  c #EFC535",
"F  c #FFD439",
"G  c #FCD339",
"H  c #FACF38",
"J  c #F8CD38",
"K  c #F7CD37",
"L  c #F6CB37",
"P  c #F4CA37",
"I  c #F3C937",
"U  c #F3CA37",
"Y  c #E7BF34",
"T  c #FFD53A",
"R  c #FED33A",
"E  c #FBD139",
"W  c #F8CE39",
"Q  c #F6CD38",
"!  c #F5CB38",
"~  c #F1C837",
"^  c #F0C737",
"/  c #EFC637",
"(  c #EEC536",
")  c #ECC336",
"_  c #EBC236",
"`  c #FFD73B",
"'  c #FBD33A",
"]  c #F2C838",
"[  c #ECC437",
"{  c #E9C136",
"}  c #DFBA34",
"|  c #FDD23C",
" . c #FBD03B",
".. c #FFD63D",
"X. c #F4CB3B",
"o. c #D9B435",
"O. c #AB8E2A",
"+. c #FFD83F",
"@. c #FDD53F",
"#. c #F9CF3E",
"$. c #F2C93C",
"%. c #F1C93C",
"&. c #E5BF39",
"*. c #FBD13F",
"=. c #F6CD3E",
"-. c #F4CB3D",
";. c #F3CA3D",
":. c #EFC73C",
">. c #ECC53B",
",. c #EBC43B",
"<. c #846F21",
"1. c #534515",
"2. c #FFD841",
"3. c #EAC33C",
"4. c #564816",
"5. c #F2CB3F",
"6. c #ECC53D",
"7. c #E3BE3B",
"8. c #E0BB3A",
"9. c #BE9F31",
"0. c #AE922D",
"q. c #927A26",
"w. c #8B7424",
"e. c #826D22",
"r. c #7C6820",
"t. c #413711",
"y. c #F5CE41",
"u. c #F0C83F",
"i. c #EEC73F",
"p. c #D3B038",
"a. c #CEAC36",
"s. c #B69830",
"d. c #715F1E",
"f. c #FFD944",
"g. c #EDC63F",
"h. c #DBB83B",
"j. c #C9A836",
"k. c #E1BD3D",
"l. c #DAB63B",
"z. c #D6B33A",
"x. c #AA8F2E",
"c. c #9B822A",
"v. c #72601F",
"b. c #463B13",
"n. c #E6C23F",
"m. c #DEBA3D",
"M. c #D6B63B",
"N. c #CAA938",
"B. c #BA9C33",
"V. c #957D29",
"C. c #CCAD39",
"Z. c #927B29",
"A. c #8F7828",
"S. c #887226",
"D. c #ECC743",
"F. c #DCB93E",
"G. c #947C2A",
"H. c #D4B43D",
"J. c #A88D30",
"K. c #A48A2F",
"L. c #7F6B25",
"P. c #6B5A1F",
"I. c #BDA138",
"U. c #B19534",
"Y. c #846F27",
"T. c #816D26",
"R. c #705F21",
"E. c #5B4D1B",
"W. c #AE9334",
"Q. c #A18830",
"!. c #8D772A",
"~. c #65551E",
"^. c #4F4318",
"/. c #786625",
"(. c #5F511D",
"). c #4B4017",
"_. c #3B3212",
"`. c #B59938",
"'. c #9D8631",
"]. c #907A2D",
"[. c #7F6C28",
"{. c #695921",
"}. c #56491B",
"|. c #3C3313",
" X c #88742D",
".X c #4F431A",
"XX c #433916",
"oX c #5A4D1E",
"OX c #51451B",
"+X c #3C3314",
"@X c #362E12",
"#X c #2A240E",
"$X c #52461C",
"%X c #1D190A",
"&X c #4C411B",
"*X c #53481E",
"=X c #322B12",
"-X c #4D421C",
";X c #26210E",
":X c #1F1B0C",
">X c #42391A",
",X c #534923",
"<X c #221E0F",
"1X c #F9CD37",
"2X c #FCCF39",
"3X c #FACD38",
"4X c #F4C937",
"5X c #F2C737",
"6X c #ECC136",
"7X c #FFD33D",
"8X c #EAC23B",
"9X c #E5BE3B",
"0X c #E7BF3C",
"qX c #D0AD37",
"wX c #CCAA36",
"eX c #DEB93B",
"rX c #C2A235",
"tX c #6F5C1F",
"yX c #987F2B",
"uX c #544618",
"iX c #89732A",
"pX c #6C5B21",
"aX c #584A1B",
"sX c #483C16",
"dX c #947C2E",
"fX c #53451A",
"gX c #53461A",
"hX c #3F3514",
"jX c #806C29",
"kX c #4D4119",
"lX c #615220",
"zX c #5E4F1F",
"xX c #403615",
"cX c #56491D",
"vX c #584A1E",
"bX c #493E19",
"nX c #54471E",
"mX c #383015",
"MX c #292310",
"NX c #161309",
"BX c #2C2613",
"VX c #272212",
"CX c #151209",
"ZX c #16130A",
"AX c #252011",
"SX c #18150C",
"DX c #110F09",
"FX c #0A0906",
"GX c #0D0C09",
"HX c #13110C",
"JX c #14110A",
"KX c #15120B",
"LX c #080706",
"PX c gray6",
"IX c #060606",
"UX c None",
/* pixels */
"UXUXUXUXUXUXUXUXUXUXUXUXUXUXUXUXUXUXUXUXUX                                            UXUXUXUXUXUXUXUXUXUXUXUXUXUXUXUX                                            UXUXUXUXUXUXUXUXUXUXUXUXUXUXUXUXUXUXUXUXUX",
"UXUXUXUXUXUXUXUXUXUXUXUXUXUXUXUXUXUX                                                        UXUXUXUXUXUXUXUXUXUX                                                        UXUXUXUXUXUXUXUXUXUXUXUXUXUXUXUXUXUX",
"UXUXUXUXUXUXUXUXUXUXUXUXUXUXUXUX                                                                UXUXUXUXUXUX                                                                UXUXUXUXUXUXUXUXUXUXUXUXUXUXUXUX",
"UXUXUXUXUXUXUXUXUXUXUXUXUXUX                                                                        UXUX                                                                        UXUXUXUXUXUXUXUXUXUXUXUXUXUX",
"UXUXUXUXUXUXUXUXUXUXUXUXUX                                                                                                                                                        UXUXUXUXUXUXUXUXUXUXUXUXUX",
"UXUXUXUXUXUXUXUXUXUXUXUX                                            -                                                                           -                                     UXUXUXUXUXUXUXUXUXUXUX",
"UXUXUXUXUXUXUXUXUXUXUX                  @ =XaXr.q.A.e.(.C @         <XQ.0.q.V.V.<.E.#X#                             @ =XaXr.q.A.e.(.C @         <XQ.0.q.V.V.<.E.#X#                     UXUXUXUXUXUXUXUXUXUX",
"UXUXUXUXUXUXUXUXUXUX                $ {.B.#.i 6 t t 6 u =.rX{.$     = R.0 , w w 6 i ;.B.oX+                     $ {.B.#.i 6 t t 6 u =.rX{.$     = R.0 , w w 6 i ;.B.oX+                   UXUXUXUXUXUXUXUXUX",
"UXUXUXUXUXUXUXUXUX                cXz.u l ! ( X X X X [ Q l u z.zX      AXl.w _ X ( J r c rXbX                cXz.u l ! ( X X X X [ Q l u z.zX      AXl.w _ X ( J r c rXbX                UXUXUXUXUXUXUXUXUX",
"UXUXUXUXUXUXUXUX              + '.p g ) o X X X X X X X X o ( g 9 '.LX    Z m.j { X X o ^ w b !.@               g ) o X X X X X X X X o ( g 9 '.LX    Z m.j { X X o ^ w b !.@               UXUXUXUXUXUXUXUX",
"UXUXUXUXUXUXUX              ZXI.2 L { X X X X X X X X X X X X { ~ 2 C.SX    AXy.F { X X X { K 3 U.&               X X X X X X X X X X X X { ~ 2 C.SX    AXy.F { X X X { K 3 U.&               UXUXUXUXUXUXUX",
"UXUXUXUXUXUX              DXM.4 ) o X X X o [ Q E E ! [ o X X X o ) 4 H.HX    OXa P o X X X o D 7 `.%               X o [ Q E E ! [ o X X X o ) 4 H.HX    OXa P o X X X o D 7 `.%               UXUXUXUXUXUX",
"UXUXUXUXUXUX            + I.1 _ o X X o X ` u %.8.8.%.u j ) o X X o _ 5 C.;     G.7 ) X X X X o ( 2 J.#             X ` u %.8.8.%.u j ) o X X o _ 5 C.;     G.7 ) X X X X o ( 2 J.#             UXUXUXUXUXUX",
"UXUXUXUXUX              dX9 ( X X X { L 8 wXR.#XZXZX#X{.j.u Q { X X o _ 3 Q.    O l.` o X X X X o / 3 L.              wXR.#XZXZX#X{.j.u Q { X X o _ 3 Q.    O l.` o X X X X o / 3 L.              UXUXUXUXUX",
"UXUXUXUXUX            -Xs L o X X { G b T.%             % /.b R { X X o ~ s nX    bXp 5XX X X X X o K m mX            %             % /.b R { X X o ~ s nX    bXp 5XX X X X X o K m mX            UXUXUXUXUX",
"UXUXUXUX            GXk.` { X X { E b cX                    N z ' { X X { T n.DX    9.r { X X X X X { l qX:                             N z ' { X X { T n.DX    9.r { X X X X X { l qX:             UXUXUXUX",
"UXUXUXUX            iX7 _ X X o I p oX                        fXs U o X X ) 7 iX    XXc ^ X X X X X X ) 2 {.                              fXs U o X X ) 7 iX    XXc ^ X X X X X X ) 2 {.            UXUXUXUX",
"UXUXUX            Z 5.H o X X 6X2 !.                            iX7 ) X X o J *.;X    rXl o X X X X X o T m.FX                              iX7 ) X X o J *.;X    rXl o X X X X X o T m.FX            UXUXUX",
"UXUXUX            iX7 _ X X o h eX:                             @ z.j o X X { 1 !.    }.i / X X X X X X ( 9 {.                              @ z.j o X X { 1 !.    }.i / X X X X X X ( 9 {.            UXUXUX",
"UXUX            d 7.G o X X ) 9 aX        d uX4.1.1.4.4.V         .X9 D X X X E k.DX  FXeXG X X X X X X o ` qX@           4.1.1.4.4.V         .X9 D X X X E k.DX  FXeXG X X X X X X o ` qX@           UXUXUX",
"UXUX            }.i ( X X o ` p.@         BXs 4 r r 4 0 C         # j.j o X X ( 8 (.    yXe X X X X X X X ~ 2.xX            r r 4 0 C         # j.j o X X ( 8 (.    yXe X X X X X X X ~ 2.xX            UXUX",
"UX              K.e o X X X 8 pX          VXi.K [ [ L -.#X          lX8 _ X X X e J.    }.y ( X X X X X X X 6 !.            [ [ L -.#X          lX8 _ X X X e J.    }.y ( X X X X X X X 6 !.            UXUX",
"UX            GX9XS X X X J :.ZX          VXg.L X X P ;.#X          f 6.J X X X H 0XJX  Z :.J X X X X X X X T qX=           X X P ;.#X          f 6.J X X X H 0XJX  Z :.J X X X X X X X T qX=           UXUX",
"UX            ).c ( X X X r 0.            VXg.L X X P ;.#X            x.e o X X ( c gX  # 9.j X X X X X X X I *.C             X P ;.#X            x.e o X X ( c gX  # 9.j X X X X X X X I *.C             UX",
"UX            T.6 o X X X 7 R.            VXg.L X X P ;.#X            {.8 [ X X X 6 S.    w.u X X X X X X X [ y ~.            X P ;.#X            {.8 [ X X X 6 S.    w.u X X X X X X X [ y ~.            UX",
"UX            J.r X X X ^ @.hX            VXg.L X X P ;.#X            @X*.~ X X X k s.#   tXt [ X X X X X X X t G.              P ;.#X            @X*.~ X X X k s.#   tXt [ X X X X X X X t G.              ",
"            : p.F X X X 3X8XCX            VXg.L X X P ;.#X            DX8.2XX X X F p.%   b.@.^ X X X X X X X k s.              P ;.#X            DX8.2XX X X F p.%   b.@.^ X X X X X X X k s.              ",
"            KXk.H X X X ` j.@             VXg.L X X P ;.#X              9.j X X X J 8X:X  MX;.P X X X X X X X R o.FX            P ;.#X              9.j X X X J 8X:X  MX;.P X X X X X X X R o.FX            ",
"            B $.! X X X e O.              VXg.L X X P ;.#X              x.r X X X ~ 7X_.  %X&.W X X X X X X X H 7.SX            P ;.#X              x.r X X X ~ 7X_.  %X&.W X X X X X X X H 7.SX            ",
"            sX..^ X X X t c.              VXg.L X X P ;.#X              G.e X X X / 2.kX  x }  .X X X X X X X J 3.<X            P ;.#X              G.e X X X / 2.kX  x }  .X X X X X X X J 3.<X            ",
"            ^.+./ X X X t Z.              VXg.L X X P ;.#X              e.t X X X / c gX  V o.| X X X X X X X ~ | t.            P ;.#X              e.t X X X / c gX  V o.| X X X X X X X ~ | t.            ",
"            }.z / X X X e S.              VXg.L X X P ;.#X              r.5 X X X / c OX    B.j X X X X X X X ^ ..b.            P ;.#X              r.5 X X X / c OX    B.j X X X X X X X ^ ..b.            ",
"            }.z / X X X e S.              VXg.L X X P ;.#X              r.5 X X X / c OX    B.j X X X X X X X ^ ..b.            P ;.#X              r.5 X X X / c OX    B.j X X X X X X X ^ ..b.            ",
"            ^.+./ X X X t Z.              VXg.L X X P ;.#X              e.t X X X / c gX  V o.| X X X X X X X ] | t.            P ;.#X              e.t X X X / c gX  V o.| X X X X X X X ] | t.            ",
"            b...^ X X X t c.              VXg.L X X P ;.#X              V.e X X X ^ z ).  x }  .X X X X X X X J 3.<X          # P ;.#X              V.e X X X ^ z ).  x }  .X X X X X X X J 3.<X            ",
"            B $.! X X X r O.              VXg.L X X P ;.#X              x.r X X X ] | _.  %X&.W X X X X X X X H 7.ZX            X.;.#X              x.r X X X ] | _.  %X&.W X X X X X X X H 7.ZX            ",
"            KXk.S X X X T wX=             VXg.L X X P ;.#X              9.j X X X J 8X:X  MX;.P X X X X X X X R o.FX        #   Y ;.#X              9.j X X X J 8X:X  MX;.P X X X X X X X R o.FX            ",
"UX          : a.T X X X J 8XNX            VXg.L X X P ;.#X            A 7.2XX X X F p.%   sX@.^ X X X X X X X k s.          = D.P ;.#X            A 7.2XX X X F p.%   sX@.^ X X X X X X X k s.            UX",
"UX            x.e X X X ~ +.xX            VXg.L X X P ;.#X            @X*.~ X X X l s.    d.t [ X X X X X X X t Z.        #   D.P ;.#X            @X*.~ X X X l s.    d.t [ X X X X X X X t Z.            UX",
"UX            /.u X X X X 7 /.            VXg.L X X P ;.#X            pX8 [ X X X 6 S.    A.u X X X X X X X [ y ~.        # = X P ;.#X            pX8 [ X X X 6 S.    A.u X X X X X X X [ y ~.            UX",
"UXUX          XX2.^ X X X l s.            VXg.L X X P ;.#X            x.r X X X ( c N   # rX` X X X X X X X 4X*.B             X P ;.#X            x.r X X X ( c N   # rX` X X X X X X X 4X*.B             UX",
"UXUX          f 7.S X X X L :.SX          VXg.L X X P ;.#X          CX:.J X X X H 9XA   :X:.J X X X X X X X T a.@         = ,.X P ;.#X          CX:.J X X X H 9XA   :X:.J X X X X X X X T a.@           UXUX",
"UXUX            Q.e o X X X 8 R.          VXu.1X( ( K =.#X          tX7 _ X X X e J.    aXy [ X X X X X X X u S.        IX# ( ( K =.#X          tX7 _ X X X e J.    aXy [ X X X X X X X u S.            UXUX",
"UXUX            $Xi D X X o h l.@         BXM u +.+.y s C         @ qX` o X X ( 8 oX    yXr X X X X X X X 5X2.+X          = f.+.y s C         @ qX` o X X ( 8 oX    yXr X X X X X X X 5X2.+X            UXUX",
"UXUX            ; z.h o X X ) 2 lX        d ).).sXsX).kXV         }.9 ( X X o G k.f   CX7.H X X X X X X o g wX@           ,XsXsX).kXV         }.9 ( X X o G k.f   CX7.H X X X X X X o g wX@           UXUXUX",
"UXUXUX            T.2 _ X X o h 7.;                             : h.` o X X _ 8 [.    ~.8 ( X X X X X X ( 9 ~.        = PX                  : h.` o X X _ 8 [.    ~.8 ( X X X X X X ( 9 ~.            UXUXUX",
"UXUXUX            SX5.E o X X _ 7 c.                            ].7 _ X X o E i.KX  # rXj o X X X X X o ` h.;           = =                 ].7 _ X X o E i.KX  # rXj o X X X X X o ` h.;             UXUXUX",
"UXUXUXUX            /.8 ) X X o ^ 8 {.                        lXs ~ o X X ) 2 jX    sXv ^ X X X X X X ) 2 ~.          $ #                 lXs ~ o X X ) 2 jX    sXv ^ X X X X X X ) 2 ~.            UXUXUXUX",
"UXUXUXUX            O eXj { X X { J a lX                    zXz H { X X { ` k.f     rXl o X X X X X { w wX=             :               zXz H { X X { ` k.f     rXl o X X X X X { w wX=             UXUXUXUX",
"UXUXUXUXUX            bXs L o X X { W i G.DX            > !.i E { X X o U 9 &X    OXp ^ X X X X X o H n =X          # q             > !.i E { X X o U 9 &X    OXp ^ X X X X X o H n =X            UXUXUXUXUX",
"UXUXUXUXUX              !.3 ^ o X X { I 6 h.L.|.%X%X_.L.p.8 P { X X o ( 2 ].    FXm.` o X X X X o ~ 3 pX            = F.L.|.%X%X_.L.p.8 P { X X o ( 2 ].    FXm.` o X X X X o ~ 3 pX              UXUXUXUXUX",
"UXUXUXUXUXUX            @ W.7 D o X X o _ R 6 #.8X8X#.6 T _ o X X o _ 1 rX@     c.4 ) X X X X o / 2 Q.              _ R 6 #.8X8X#.6 T _ o X X o _ 1 rX@     c.4 ) X X X X o / 2 Q.              UXUXUXUXUXUX",
"UXUXUXUXUXUX              & `.7 / o X X X X X I W W U X X X X X o ( 1 C.d     vXi U o X X X o ~ 2 W.@             PXX X X I W W U X X X X X o ( 1 C.d     vXi U o X X X o ~ 2 W.@               UXUXUXUXUXUX",
"UXUXUXUXUXUXUX              * U.3 J { X X X X X X X X X X X X { J 9 I.DX    hX2.E { X X X { J 2 J.+             # ,.X X X X X X X X X X X { J 9 I.DX    hX2.E { X X X { J 2 J.+               UXUXUXUXUXUXUX",
"UXUXUXUXUXUXUXUX              @  Xf.w ^ o X X X X X X X X o ( w v ].+     <Xi.g { X X o ~ 5 2./.              = p ^ o X X X X X X X X o ( w v ].+     <Xi.g { X X o ~ 5 2./.                UXUXUXUXUXUXUXUX",
"UXUXUXUXUXUXUXUX                  >Xj.v r H / [ X X [ / H e i C.bX      XXn...{ [ / H e b I.xX                = N.v r H / [ X X [ / H e i C.bX      XXn...{ [ / H e b I.xX                  UXUXUXUXUXUXUXUX",
"UXUXUXUXUXUXUXUXUX                  + *XW.3.z u 5 5 u z 0XW.zX+     V Y.< , r t u z >.0.OX#                 > = + *XW.3.z u 5 5 u z 0XW.zX+     V Y.< , r t u z >.0.OX#                   UXUXUXUXUXUXUXUXUX",
"UXUXUXUXUXUXUXUXUXUX                      Z kXP.<.<.P..XZ           BXx.c.w.w.w.v.^.:X                    = :         Z kXP.<.<.P..XZ           BXx.c.w.w.w.v.^.:X                      UXUXUXUXUXUXUXUXUXUX",
"UXUXUXUXUXUXUXUXUXUXUXUX                                                                              # IXIX                                                                          UXUXUXUXUXUXUXUXUXUXUX",
"UXUXUXUXUXUXUXUXUXUXUXUXUX                                                                            :                                                                             UXUXUXUXUXUXUXUXUXUXUXUX",
"UXUXUXUXUXUXUXUXUXUXUXUXUXUX                                                                      > UXUX                                                                        UXUXUXUXUXUXUXUXUXUXUXUXUXUX",
"UXUXUXUXUXUXUXUXUXUXUXUXUXUXUXUX                                                                UXUXUXUXUXUX                                                                UXUXUXUXUXUXUXUXUXUXUXUXUXUXUXUX",
"UXUXUXUXUXUXUXUXUXUXUXUXUXUXUXUXUXUX                                                        UXUXUXUXUXUXUXUXUXUX                                                        UXUXUXUXUXUXUXUXUXUXUXUXUXUXUXUXUXUX",
"UXUXUXUXUXUXUXUXUXUXUXUXUXUXUXUXUXUXUXUXUX                                            UXUXUXUXUXUXUXUXUXUXUXUXUXUXUXUX                                            UXUXUXUXUXUXUXUXUXUXUXUXUXUXUXUXUXUXUXUXUX"
};
