/* XPM */
static char *_70a7f8566ff461587e8473d0ba3ebba9XImXPGphtzyC1OJ[] = {
/* columns rows colors chars-per-pixel */
"64 64 11 1 ",
"  c black",
". c white",
"X c #959AB1",
"o c #747A90",
"O c #434A5F",
"+ c #DCE1E7",
"@ c #C2E3E8",
"# c #FC683B",
"$ c #DD442C",
"% c #7E3125",
"& c None",
/* pixels */
"@@@@@@@@@@@@@@@@@@@@@@@@@@@@@@@@@@@@@@@@@@@@@@@@@@@@@@@@@@@@@@@@",
"@@@@@@@@@@@@@@@@@@@@@@@@@@@@@@@@@@@@@@@@@@@@@@@@@@@@@@@@@@@@@@@@",
"@@@@@@@@@@@@@@@@@@@@@@@@@@@@@@@@@@@@@@@@@@@@@@@@@@@@@@@@@@@@@@@@",
"@@@@@@@@@@@@@@@@@@@@@@@@@@@@@@@@@@@@@@@@@@@@@@@@@@@@@@@@@@@@@@@@",
"@@@@@@@@@@@@@@@@@@@@@@@@@@@@@@@@@@@@@@@@@@@@@@@@@@@@@@@@@@@@@@@@",
"@@@@@@@@@@@@@@@@@@@@@@@@@@@@@@@@@@@@@@@@@@@@@@@@@@@@@@@@@@@@@@@@",
"@@@@@@@@@@@@@@@@@@@@@@@@@@@@@@@@@@@@@@@@@@@@@@@@@@@@@@@@@@@@@@@@",
"@@@@@@@@@@@@@@@@@@@@@@@@@@@@@@@@@@@@@@@@@@@@@@@@@@@@@@@@@@@@@@@@",
"@@@@@@@@@@@@@@@@@@@@@@@@@@@@@@@@@@@@@@@@@@@@@@@@@@@@@@@@@@@@@@@@",
"@@@@@@@@@@@@@@@@@@@@@@@@@@@@@@@@@@@@@@@@@@@@@@@@@@@@@@@@@@@@@@@@",
"@@@@@@@@@@@@@@@@@@@@@@@@@@@@@@@@@@@@@@@@@@@@@@@@@@@@@@@@@@@@@@@@",
"@@@@@@@@@@@@@@@@@@@@@@@@@@@@@@@@@@@@@@@@@@@@@@@@@@@@@@@@@@@@@@@@",
"@@@@@@@@@@@@@@@@@@@@@@@@@@@@@@@@@@@@@@@@@@@@@@@@@@@@@@@@@@@@@@@@",
"@@@@@@@@@@@@@@@@@@@@@@@@@@@@@@@@@@@@@@@@@@@@@@@@@@@@@@@@@@@@@@@@",
"@@@@@@@@@@@@@@@@@@@@@@@@@@@@@@@@@@@@@@@@@@@@@@@@@@@@@@@@@@@@@@@@",
"@@@@@@@@@@@@@@@@@@@@@@@@@@@@@@@@@@@@@@@@@@@@@@@@@@@@@@@@@@@@@@@@",
"@@@@@@@@@@@@@@@@@@@@@@@@@@@OOOOOOOO@@@@@@@@@@@@@@@@@@@@@@@@@@@@@",
"@@@@@@@@@@@@@@@@@@@@@@@@@@@OOOOOOOO@@@@@@@@@@@@@@@@@@@@@@@@@@@@@",
"@@@@@@@@@@@@@@@@@@@@@@@@@@@OOOOOOOO@@@@@@@@@@@@@@@@@@@@@@@@@@@@@",
"@@@@@@@@@@@@@@@@@@@@@@@@OOOOOOOOOOOOO@@@@@@@@@@@@@@@@@@@@@@@@@@@",
"@@@@@@@@@@@@@@@@@@@@@@@@OOOOOOOOOOOOO@@@@@@@@@@@@@@@@@@@@@@@@@@@",
"@@@@@@@@@@@@@@@@@@@@@@@@OOOOO+++OOOOO@@@@@@@@@@@@@@@@@@@@@@@@@@@",
"@@@@@@@@@@@@@@@@@@@@@@@@OOOOO+++OOOOO@@@@@@@@@@@@@@@@@@@@@@@@@@@",
"@@@@@@@@@@@@@@@@@@@@@@@@OOOOO+++OOOOO@@@@@@@@@@@@@@@@@@@@@@@@@@@",
"@@@@@@@@@@@@@@@@@@@@@OOOOOOOO+++OOOOOOOO@@@@@@@@@@@@@@@@@@@@@@@@",
"@@@@@@@@@@@@@@@@@@@@@OOOOOOOO+++OOOOOOOO@@@@@@@@@@@@@@@@@@@@@@@@",
"@@@@@@@@@@@@@@@@@@@@@OOOOOOOO+++OOOOOOOO@@@@@@@@@@@@@@@@@@@@@@@@",
"@@@@@@@@@@@@@@@@@@@@@OOOOOOXXXXX+++OOOOO@@@@@@@@@@@@@@@@@@@@@@@@",
"@@@@@@@@@@@@@@@@@@@@@OOOOOOXXXXX+++OOOOO@@@@@@@@@@@@@@@@@@@@@@@@",
"@@@@@@@@@@@@@@@@@@@@@OOOOOOXXXXX+++OOOOO@@@@@@@@@@@@@@@@@@@@@@@@",
"@@@@@@@@@@@@@@@@@@@@@OOOOOOXXXXX+++OOOOO@@@@@@@@@@@@@@@@@@@@@@@@",
"@@@@@@@@@@@@@@@@@@@@@OOOOOOXXXXX+++OOOOO@@@@@@@@@@@@@@@@@@@@@@@@",
"@@@@@@@@@@@@@@@@%%%%%OOOOOOooooooooOOOOO%%%%%@@@@@@@@@@@@@@@@@@@",
"@@@@@@@@@@@@@@@@%%%%%OOOOOOooooooooOOOOO%%%%%@@@@@@@@@@@@@@@@@@@",
"@@@@@@@@@@@@@@@@%%%%%OOOOOOooooooooOOOOO%%%%%@@@@@@@@@@@@@@@@@@@",
"@@@@@@@@@@@@@%%%%%%%%XXXXXX++++++++XXXXX%%%%%%%%@@@@@@@@@@@@@@@@",
"@@@@@@@@@@@@@%%%%%%%%XXXXXX++++++++XXXXX%%%%%%%%@@@@@@@@@@@@@@@@",
"@@@@@@@@@@@%%%%%%%%##################$$$$$$%%%%%%%%@@@@@@@@@@@@@",
"@@@@@@@@@@@%%%%%%%%##################$$$$$$%%%%%%%%@@@@@@@@@@@@@",
"@@@@@@@@@@@%%%%%%%%##################$$$$$$%%%%%%%%@@@@@@@@@@@@@",
"@@@@@@@@@@@%%%%%$$$##################$$$$$$$$%%%%%%@@@@@@@@@@@@@",
"@@@@@@@@@@@%%%%%$$$##################$$$$$$$$%%%%%%@@@@@@@@@@@@@",
"@@@@@@@@@@@%%%%%$$$##################$$$$$$$$%%%%%%@@@@@@@@@@@@@",
"@@@@@@@@@@@%%%%%$$$##################$$$$$$$$%%%%%%@@@@@@@@@@@@@",
"@@@@@@@@@@@%%%%%$$$##################$$$$$$$$%%%%%%@@@@@@@@@@@@@",
"@@@@@@@@@@@%%%%%$$$##################$$$$$$$$%%%%%%@@@@@@@@@@@@@",
"@@@@@@@@@@@%%%%%$$$##################$$$$$$$$%%%%%%@@@@@@@@@@@@@",
"@@@@@@@@@@@%%%%%$$$##################$$$$$$$$%%%%%%@@@@@@@@@@@@@",
"@@@@@@@@@@@OOOOO+++++OOO+++++OOO+++++++++++++OOOOOO@@@@@@@@@@@@@",
"@@@@@@@@@@@OOOOO+++++OOO+++++OOO+++++++++++++OOOOOO@@@@@@@@@@@@@",
"@@@@@@@@@@@OOOOO+++++OOO+++++OOO+++++++++++++OOOOOO@@@@@@@@@@@@@",
"@@@@@@@@@@@OOOOOXXXXXOOOXXXXXOOOXXXXXXXXXXXXXOOOOOO@@@@@@@@@@@@@",
"@@@@@@@@@@@OOOOOXXXXXOOOXXXXXOOOXXXXXXXXXXXXXOOOOOO@@@@@@@@@@@@@",
"@@@@@@@@@@@OOOOO+++++XXXXXXXXXXX+++++XXXXXXXXOOOOOO@@@@@@@@@@@@@",
"@@@@@@@@@@@OOOOO+++++XXXXXXXXXXX+++++XXXXXXXXOOOOOO@@@@@@@@@@@@@",
"@@@@@@@@@@@OOOOO+++++XXXXXXXXXXX+++++XXXXXXXXOOOOOO@@@@@@@@@@@@@",
"@@@@@@@@@@@OOOOO+++++OOOOOOOOOOO+++++OOOOOOOOOOOOOO@@@@@@@@@@@@@",
"@@@@@@@@@@@OOOOO+++++OOOOOOOOOOO+++++OOOOOOOOOOOOOO@@@@@@@@@@@@@",
"@@@@@@@@@@@OOOOO+++++OOOOOOOOOOO+++++OOOOOOOOOOOOOO@@@@@@@@@@@@@",
"@@@@@@@@@@@OOOOOOOOOOOOOOOOOOOOOOOOOOOOOOOOOOOOOOOO@@@@@@@@@@@@@",
"@@@@@@@@@@@OOOOOOOOOOOOOOOOOOOOOOOOOOOOOOOOOOOOOOOO@@@@@@@@@@@@@",
"@@@@@@@@@@@@@@@@OOOOO@@@OOOOO@@@OOOOO@@@OOOOO@@@@@@@@@@@@@@@@@@@",
"@@@@@@@@@@@@@@@@OOOOO@@@OOOOO@@@OOOOO@@@OOOOO@@@@@@@@@@@@@@@@@@@",
"@@@@@@@@@@@@@@@@OOOOO@@@OOOOO@@@OOOOO@@@OOOOO@@@@@@@@@@@@@@@@@@@"
};
