/* XPM */
static char *_74c83cfd68d4b058ed58c7fc9298bb9jkzZI95wfUwXoxzx[] = {
/* columns rows colors chars-per-pixel */
"64 64 11 1 ",
"  c black",
". c white",
"X c #959AB1",
"o c #747A90",
"O c #434A5F",
"+ c #DCE1E7",
"@ c #C2E3E8",
"# c #FC683B",
"$ c #DD442C",
"% c #7E3125",
"& c None",
/* pixels */
"@@@@@@@@@@@@@@@@@@@@@@@@@@@@@@@@@@@@@@@@@@@@@@@@@@@@@@@@@@@@@@@@",
"@@@@@@@@@@@@@@@@@@@@@@@@@@@@@@@@@@@@@@@@@@@@@@@@@@@@@@@@@@@@@@@@",
"@@@@@@@@@@@@@@@@@@@@@@@@@@@@@@@@@@@@@@@@@@@@@@@@@@@@@@@@@@@@@@@@",
"@@@@@@@@@@@@@@@@@@@@@@@@@@@@@@@@@@@@@@@@@@@@@@@@@@@@@@@@@@@@@@@@",
"@@@@@@@@@@@@@@@@@@@@@@@@@@@@@@@@@@@@@@@@@@@@@@@@@@@@@@@@@@@@@@@@",
"@@@@@@@@@@@@@@@@@@@@@@@@@@@@@@@@@@@@@@@@@@@@@@@@@@@@@@@@@@@@@@@@",
"@@@@@@@@@@@@@@@@@@@@@@@@@@@@@@@@@@@@@@@@@@@@@@@@@@@@@@@@@@@@@@@@",
"@@@@@@@@@@@@@@@@@@@@@@@@@@@@@@@@@@@@@@@@@@@@@@@@@@@@@@@@@@@@@@@@",
"@@@@@@@@@@@@@@@@@@@@@@@@@@@@@@@@@@@@@@@@@@@@@@@@@@@@@@@@@@@@@@@@",
"@@@@@@@@@@@@@@@@@@@@@@@@@@@@@@@@@@@@@@@@@@@@@@@@@@@@@@@@@@@@@@@@",
"@@@@@@@@@@@@@@@@@@@@@@@@@@@@@@@@@@@@@@@@@@@@@@@@@@@@@@@@@@@@@@@@",
"@@@@@@@@@@@@@@@@@@@@@@@@@@@@@@@@@@@@@@@@@@@@@@@@@@@@@@@@@@@@@@@@",
"@@@@@@@@@@@@@@@@@@@@@@@@@@@@@@@@@@@@@@@@@@@@@@@@@@@@@@@@@@@@@@@@",
"@@@@@@@@@@@@@@@@@@@@@@@@@@@OOOOOOOO@@@@@@@@@@@@@@@@@@@@@@@@@@@@@",
"@@@@@@@@@@@@@@@@@@@@@@@@@@@OOOOOOOO@@@@@@@@@@@@@@@@@@@@@@@@@@@@@",
"@@@@@@@@@@@@@@@@@@@@@@@@@@@OOOOOOOO@@@@@@@@@@@@@@@@@@@@@@@@@@@@@",
"@@@@@@@@@@@@@@@@@@@@@@@@OOOOOOOOOOOOO@@@@@@@@@@@@@@@@@@@@@@@@@@@",
"@@@@@@@@@@@@@@@@@@@@@@@@OOOOOOOOOOOOO@@@@@@@@@@@@@@@@@@@@@@@@@@@",
"@@@@@@@@@@@@@@@@@@@@@@@@OOOOOOOOOOOOO@@@@@@@@@@@@@@@@@@@@@@@@@@@",
"@@@@@@@@@@@@@@@@@@@@@@@@OOOOO+++OOOOO@@@@@@@@@@@@@@@@@@@@@@@@@@@",
"@@@@@@@@@@@@@@@@@@@@@@@@OOOOO+++OOOOO@@@@@@@@@@@@@@@@@@@@@@@@@@@",
"@@@@@@@@@@@@@@@@@@@@@OOOOOOOO+++OOOOOOOO@@@@@@@@@@@@@@@@@@@@@@@@",
"@@@@@@@@@@@@@@@@@@@@@OOOOOOOO+++OOOOOOOO@@@@@@@@@@@@@@@@@@@@@@@@",
"@@@@@@@@@@@@@@@@@@@@@OOOOOOOO+++OOOOOOOO@@@@@@@@@@@@@@@@@@@@@@@@",
"@@@@@@@@@@@@@@@@@@@@@OOOOOOXXXXX+++OOOOO@@@@@@@@@@@@@@@@@@@@@@@@",
"@@@@@@@@@@@@@@@@@@@@@OOOOOOXXXXX+++OOOOO@@@@@@@@@@@@@@@@@@@@@@@@",
"@@@@@@@@@@@@@@@@@@@@@OOOOOOXXXXX+++OOOOO@@@@@@@@@@@@@@@@@@@@@@@@",
"@@@@@@@@@@@@@@@@@@@@@OOOOOOXXXXX+++OOOOO@@@@@@@@@@@@@@@@@@@@@@@@",
"@@@@@@@@@@@@@@@@@@@@@OOOOOOXXXXX+++OOOOO@@@@@@@@@@@@@@@@@@@@@@@@",
"@@@@@@@@@@@@@@@@%%%%%OOOOOOooooooooOOOOO%%%%%@@@@@@@@@@@@@@@@@@@",
"@@@@@@@@@@@@@@@@%%%%%OOOOOOooooooooOOOOO%%%%%@@@@@@@@@@@@@@@@@@@",
"@@@@@@@@@@@@@@@@%%%%%OOOOOOooooooooOOOOO%%%%%@@@@@@@@@@@@@@@@@@@",
"@@@@@@@@@@@@@%%%%%%%%XXXXXX++++++++XXXXX%%%%%%%%@@@@@@@@@@@@@@@@",
"@@@@@@@@@@@@@%%%%%%%%XXXXXX++++++++XXXXX%%%%%%%%@@@@@@@@@@@@@@@@",
"@@@@@@@@@@@@@%%%%%%%%XXXXXX++++++++XXXXX%%%%%%%%@@@@@@@@@@@@@@@@",
"@@@@@@@@@@@%%%%%%%%##################$$$$$$%%%%%%%%@@@@@@@@@@@@@",
"@@@@@@@@@@@%%%%%%%%##################$$$$$$%%%%%%%%@@@@@@@@@@@@@",
"@@@@@@@@@@@%%%%%$$$##################$$$$$$$$%%%%%%@@@@@@@@@@@@@",
"@@@@@@@@@@@%%%%%$$$##################$$$$$$$$%%%%%%@@@@@@@@@@@@@",
"@@@@@@@@@@@%%%%%$$$##################$$$$$$$$%%%%%%@@@@@@@@@@@@@",
"@@@@@@@@@@@%%%%%$$$##################$$$$$$$$%%%%%%@@@@@@@@@@@@@",
"@@@@@@@@@@@%%%%%$$$##################$$$$$$$$%%%%%%@@@@@@@@@@@@@",
"@@@@@@@@@@@%%%%%$$$##################$$$$$$$$%%%%%%@@@@@@@@@@@@@",
"@@@@@@@@@@@%%%%%$$$##################$$$$$$$$%%%%%%@@@@@@@@@@@@@",
"@@@@@@@@@@@%%%%%$$$##################$$$$$$$$%%%%%%@@@@@@@@@@@@@",
"@@@@@@@@@@@OOOOO+++++OOO+++++OOO+++++++++++++OOOOOO@@@@@@@@@@@@@",
"@@@@@@@@@@@OOOOO+++++OOO+++++OOO+++++++++++++OOOOOO@@@@@@@@@@@@@",
"@@@@@@@@@@@OOOOO+++++OOO+++++OOO+++++++++++++OOOOOO@@@@@@@@@@@@@",
"@@@@@@@@@@@OOOOOXXXXXOOOXXXXXOOOXXXXXXXXXXXXXOOOOOO@@@@@@@@@@@@@",
"@@@@@@@@@@@OOOOOXXXXXOOOXXXXXOOOXXXXXXXXXXXXXOOOOOO@@@@@@@@@@@@@",
"@@@@@@@@@@@OOOOOXXXXXOOOXXXXXOOOXXXXXXXXXXXXXOOOOOO@@@@@@@@@@@@@",
"@@@@@@@@@@@OOOOOXXXXXXXXXXXXXXXXXXXXXXXXXXXXXOOOOOO@@@@@@@@@@@@@",
"@@@@@@@@@@@OOOOOXXXXXXXXXXXXXXXXXXXXXXXXXXXXXOOOOOO@@@@@@@@@@@@@",
"@@@@@@@@@@@OOOOO+++++OOOOOOOOOOO+++++OOOOOOOOOOOOOO@@@@@@@@@@@@@",
"@@@@@@@@@@@OOOOO+++++OOOOOOOOOOO+++++OOOOOOOOOOOOOO@@@@@@@@@@@@@",
"@@@@@@@@@@@OOOOO+++++OOOOOOOOOOO+++++OOOOOOOOOOOOOO@@@@@@@@@@@@@",
"@@@@@@@@@@@OOOOO+++++OOOOOOOOOOO+++++OOOOOOOOOOOOOO@@@@@@@@@@@@@",
"@@@@@@@@@@@OOOOO+++++OOOOOOOOOOO+++++OOOOOOOOOOOOOO@@@@@@@@@@@@@",
"@@@@@@@@@@@OOOOO+++++OOOOOOOOOOO+++++OOOOOOOOOOOOOO@@@@@@@@@@@@@",
"@@@@@@@@@@@@@OOOOOOOOOOOOOOOOOOOOOOOOOOOOOOOO@@@@@@@@@@@@@@@@@@@",
"@@@@@@@@@@@@@OOOOOOOOOOOOOOOOOOOOOOOOOOOOOOOO@@@@@@@@@@@@@@@@@@@",
"@@@@@@@@@@@@@@@@OOOOO@@@OOOOO@@@OOOOO@@@OOOOO@@@@@@@@@@@@@@@@@@@",
"@@@@@@@@@@@@@@@@OOOOO@@@OOOOO@@@OOOOO@@@OOOOO@@@@@@@@@@@@@@@@@@@",
"@@@@@@@@@@@@@@@@OOOOO@@@OOOOO@@@OOOOO@@@OOOOO@@@@@@@@@@@@@@@@@@@"
};
