/* XPM */
static char *result[] = {
/* columns rows colors chars-per-pixel */
"64 64 97 2 ",
"   c #14193D",
".  c #1C183A",
"X  c #241636",
"o  c #2C1535",
"O  c #251837",
"+  c #261538",
"@  c #201938",
"#  c #341533",
"$  c #3C1432",
"%  c #45132F",
"&  c #4D122D",
"*  c #54112B",
"=  c #5B1129",
"-  c #421330",
";  c #670F27",
":  c #6B0F25",
">  c #630F28",
",  c #740E23",
"<  c #790E22",
"1  c #651027",
"2  c #6A1026",
"3  c #611128",
"4  c #850C1F",
"5  c #8C0B1D",
"6  c #9F0A17",
"7  c #940B1B",
"8  c #9C0A19",
"9  c #A50916",
"0  c #AB0915",
"q  c #A20918",
"w  c #B50713",
"e  c #BB0711",
"r  c #B30813",
"t  c #BA0811",
"y  c #820D20",
"u  c #C4060F",
"i  c #CA050E",
"p  c #C20610",
"a  c #DD033D",
"s  c #E6022E",
"d  c #FD1B2F",
"f  c #E20234",
"g  c #E10339",
"h  c #F70D34",
"j  c #F80C30",
"k  c #F60F3A",
"l  c #FD1D34",
"z  c #F5103E",
"x  c #FC1F38",
"c  c #FE2E2E",
"v  c #FC223D",
"b  c #FE3434",
"n  c #FD3C3C",
"m  c #BE0677",
"M  c #BD067A",
"N  c #DA0343",
"B  c #D6044B",
"V  c #D80449",
"C  c #CF0457",
"Z  c #CD045C",
"A  c #D20453",
"S  c #F41143",
"D  c #F3134C",
"F  c #EF175C",
"G  c #F21653",
"H  c #F1175B",
"J  c #F0195D",
"K  c #FC2543",
"L  c #FC2847",
"P  c #FB2748",
"I  c #FB2A4B",
"U  c #FB2D52",
"Y  c #FB3056",
"T  c #FA335B",
"R  c #C70566",
"E  c #C90462",
"W  c #C4066C",
"Q  c #C00672",
"!  c #EF1A65",
"~  c #EE1B6A",
"^  c #F01962",
"/  c #FB3763",
"(  c #FC3867",
")  c #FA3D6C",
"_  c #EC207E",
"`  c #FE4343",
"'  c #FE4B4B",
"]  c #E95354",
"[  c #FD5353",
"{  c #FD5B5B",
"}  c #E66163",
"|  c #FD6363",
" . c #FD6B6B",
".. c #B50785",
"X. c #B40788",
"o. c #A607A1",
"O. c #C2E3E8",
/* pixels */
"O.O.O.O.O.O.O.O.O.O.O.O.O.O.O.O.O.O.O.O.O.O.O.O.O.O.O.O.O.O.O.O.O.O.O.O.O.O.O.O.O.O.O.O.O.O.O.O.O.O.O.O.O.O.O.O.O.O.O.O.O.O.O.O.",
"O.O.O.O.O.O.O.O.O.O.O.O.O.O.O.O.O.O.O.O.O.O.O.O.O.O.O.O.O.O.O.O.O.O.O.O.O.O.O.O.O.O.O.O.O.O.O.O.O.O.O.O.O.O.O.O.O.O.O.O.O.O.O.O.",
"O.O.O.O.O.O.O.O.O.O.O.O.O.O.O.O.O.O.O.O.O.O.O.O.O.O.O.O.O.O.O.O.O.O.O.O.O.O.O.O.O.O.O.O.O.O.O.O.O.O.O.O.O.O.O.O.O.O.O.O.O.O.O.O.",
"O.O.O.O.O.O.O.O.O.O.O.O.O.O.O.O.O.O.O.O.O.O.O.O.O.O.O.O.O.O.O.O.O.O.O.O.O.O.O.O.O.O.O.O.O.O.O.O.O.O.O.O.O.O.O.O.O.O.O.O.O.O.O.O.",
"O.O.O.O.O.O.O.O.O.O.O.O.O.O.O.O.O.O.O.O.O.O.O.O.O.O.O.O.O.O.O.O.O.O.O.O.O.O.O.O.O.O.O.O.O.O.O.O.O.O.O.O.O.O.O.O.O.O.O.O.O.O.O.O.",
"O.O.O.O.O.O.O.O.O.O.O.O.O.O.O.O.O.O.O.O.O.O.O.O.O.O.O.O.O.O.O.O.O.O.O.O.O.O.O.O.O.O.O.O.O.O.O.O.O.O.O.O.O.O.O.O.O.O.O.O.O.O.O.O.",
"O.O.O.O.O.O.O.O.O.O.O.O.O.O.O.O.O.O.O.O.O.O.O.O.O.O.O.O.O.O.O.O.O.O.O.O.O.O.O.O.O.O.O.O.O.O.O.O.O.O.O.O.O.O.O.O.O.O.O.O.O.O.O.O.",
"O.O.O.O.O.O.O.O.O.O.O.O.O.O.O.O.O.O.O.O.O.O.O.O.O.O.O.O.O.O.O.O.O.O.O.O.O.O.O.O.O.O.O.O.O.O.O.O.O.O.O.O.O.O.O.O.O.O.O.O.O.O.O.O.",
"O.O.O.O.O.O.O.O.O.O.O.O.O.O.O.O.O.O.O.O.$ 7 7 o O.O.O.O.O.O.O.O.O.O.  - &   O.O.O.O.O.O.O.O.O.O.O.O.O.O.O.O.O.O.O.O.O.O.O.O.O.O.",
"O.O.O.O.O.O.O.O.O.O.O.O.O.O.O.O.O.O.O.O.$ 9 0 * O.O.O.O.O.O.O.O.O.O.1 9 9 : O.O.O.O.O.O.O.O.O.O.O.O.O.O.O.O.O.O.O.O.O.O.O.O.O.O.",
"O.O.O.O.O.O.O.O.O.O.O.O.O.O.O.O.O.O.$ 4 T U U ) & @ O.O.O.O.O.O.@ 4 E C C m = # O.O.O.O.O.O.O.O.O.O.O.O.O.O.O.O.O.O.O.O.O.O.O.O.",
"O.O.O.O.O.O.O.O.O.O.O.O.O.O.O.O.O.O.4 0 Y I I I 0 < O.O.O.O.O.O.& q Z C A A 0 < O.O.O.O.O.O.O.O.O.O.O.O.O.O.O.O.O.O.O.O.O.O.O.O.",
"O.O.O.O.O.O.O.O.O.O.O.O.O.O.O.O.$ 2 / Y I I I I I / 2 $ O.O.. = m Z C C A A 0 ; O.O.O.O.O.O.O.O.O.O.O.O.O.O.O.O.O.O.O.O.O.O.O.O.",
"O.O.O.O.O.O.O.O.O.O.O.O.O.O.O.O.4 8 T U I L L L L I 0 < O.O.% 8 Z Z Z C C C 0 * O.O.O.O.O.O.O.O.O.O.O.O.O.O.O.O.O.O.O.O.O.O.O.O.",
"O.O.O.O.O.O.O.O.O.O.O.O.O.O.O.O.4 q Y Y I L K K L L I / < , 4 8 E E Z C Z C C R : . O.O.O.O.O.O.O.O.O.O.O.O.O.O.O.O.O.O.O.O.O.O.",
"O.O.O.O.O.O.O.O.O.O.O.O.O.O.O.O.$ * ) I I L K K L L I U 0 9 6 8 Z Z Z Z Z Z E E 6 - O.O.O.O.O.O.O.O.O.O.O.O.O.O.O.O.O.O.O.O.O.O.",
"O.O.O.O.O.O.O.O.O.O.O.O.O.O.O.O.O.O.$ r P K K K P L D G G G F F J ! E Z E Z E E 7 & O.O.O.O.O.O.O.O.O.O.O.O.O.O.O.O.O.O.O.O.O.O.",
"O.O.O.O.O.O.O.O.O.O.O.O.O.O.O.O.O.O.- r P K K K K L D G G G G F ^ J E Z E E E R 7 $ O.O.O.O.O.O.O.O.O.O.O.O.O.O.O.O.O.O.O.O.O.O.",
"O.O.O.O.O.O.O.O.O.O.O.O.O.O.O.O.O.O.- 0 D S K v K K I I U Y T T J ^ ^ ^ ! ! R W W o.o O O.O.O.O.O.O.O.O.O.O.O.O.O.O.O.O.O.O.O.O.",
"O.O.O.O.O.O.O.O.O.O.O.O.O.O.O.O.O.O.# r S S K K K P I I U U T T J ! ! ! ^ ~ R R W Q 4 * O.O.O.O.O.O.O.O.O.O.O.O.O.O.O.O.O.O.O.O.",
"O.O.O.O.O.O.O.O.O.O.O.O.O.O.O.O.o 4 ~ D P L K K K P P I U U Y T T T ^ ! ~ ~ ~ _ W Q y * O.O.O.O.O.O.O.O.O.O.O.O.O.O.O.O.O.O.O.O.",
"O.O.O.O.O.O.O.O.O.O.O.O.O.O.O.O.= q G D P L K K K P P P I U U U T T J ^ ^ ~ ^ ~ W Q y 3 O.O.O.O.O.O.O.O.O.O.O.O.O.O.O.O.O.O.O.O.",
"O.O.O.O.O.O.O.O.O.O.O.O.O.O.O.O.% 9 U U P K K K K P P P [ [ [ { { { | | | |  . .W Q Q X.-   O.O.O.O.O.O.O.O.O.O.O.O.O.O.O.O.O.O.",
"O.O.O.O.O.O.O.O.O.O.O.O.O.O.O.O.o 9 U I P L K K K P P P ' ' [ [ { { { { | |  . .W W Q ..y # O.O.O.O.O.O.O.O.O.O.O.O.O.O.O.O.O.O.",
"O.O.O.O.O.O.O.O.O.O.O.O.O.O.$ 3 _ G U I I K K K K K ` ' ' ' [ [ [ { { { | | |  . . .Q Q y & O.O.O.O.O.O.O.O.O.O.O.O.O.O.O.O.O.O.",
"O.O.O.O.O.O.O.O.O.O.O.O.O.O.& 8 F H U I I K K v K K ` ` ' ' ' ' [ [ [ { { { | |  . .W Q y = O.O.O.O.O.O.O.O.O.O.O.O.O.O.O.O.O.O.",
"O.O.O.O.O.O.O.O.O.O.O.O.O.O.* 8 T U I I K K v v ` ` ` ` e t t r r 0 [ [ { { | | 7 7 7 5 m ..& # O.O.O.O.O.O.O.O.O.O.O.O.O.O.O.O.",
"O.O.O.O.O.O.O.O.O.O.O.O.O.O.1 6 T U I P K v K v n n n ` e e w t r r [ [ { { { { 8 8 7 5 Q m y 2 O.O.O.O.O.O.O.O.O.O.O.O.O.O.O.O.",
"O.O.O.O.O.O.O.O.O.O.O.O.O.O., 6 T U P L K v v v n n u u u e ` ` ` ' r r [ { 9 9 6 8  . .5 5 y : O.O.O.O.O.O.O.O.O.O.O.O.O.O.O.O.",
"O.O.O.O.O.O.O.O.O.O.O.O.O.O.y q U I K K v v x x n n u u p p ` ` ` ' r r ' [ 9 9 q 6  . .5 5 5 > O.O.O.O.O.O.O.O.O.O.O.O.O.O.O.O.",
"O.O.O.O.O.O.O.O.O.O.O.O.O.O.5 9 U I L K x x x l b b i i u p n ` ` ` t w ' [ 0 9 9 q |  .7 5 5 = O.O.O.O.O.O.O.O.O.O.O.O.O.O.O.O.",
"O.O.O.O.O.O.O.O.O.O.O.O.O.O.7 0 U P K K v x l l b b i i i u n ` ` ' t w ' [ 0 0 9 q | | 7 5 5 & O.O.O.O.O.O.O.O.O.O.O.O.O.O.O.O.",
"O.O.O.O.O.O.O.O.O.O.O.O.O.O.7 0 U L v v x l l l b b i i i i u u e e e t ' ' 0 0 9 q q 8 7 7 5 - O.O.O.O.O.O.O.O.O.O.O.O.O.O.O.O.",
"O.O.O.O.O.O.O.O.O.O.O.O.O.O.7 0 I L v v v l l d b b i i i u u e u u e t ' ' r 0 0 q 8 8 7 7 5 * O.O.O.O.O.O.O.O.O.O.O.O.O.O.O.O.",
"O.O.O.O.O.O.O.O.O.O.O.O.O.O.y 0 D D v v l l d d d d c b i i u u u e ` ` ' ' [ [ 0 9 q 8 R W 5 > O.O.O.O.O.O.O.O.O.O.O.O.O.O.O.O.",
"O.O.O.O.O.O.O.O.O.O.O.O.O.O.$ 5 G S v v v l l l d d b b i i u t e u ` ` ` ' ' [ 0 9 q 8 E M - + O.O.O.O.O.O.O.O.O.O.O.O.O.O.O.O.",
"O.O.O.O.O.O.O.O.O.O.O.O.O.O.O.O.7 t K v x l d d d l b b b n n n ` L ` ` ' ' ' [ [ { { | 6 : O.O.O.O.O.O.O.O.O.O.O.O.O.O.O.O.O.O.",
"O.O.O.O.O.O.O.O.O.O.O.O.O.O.O.O.7 r K v v x l l d l b b n b b n ` ` ` ` ` ' ' [ [ { { { 8 2 O.O.O.O.O.O.O.O.O.O.O.O.O.O.O.O.O.O.",
"O.O.O.O.O.O.O.O.O.O.O.O.O.O.O.O.5 t S S v l l l l l v l k k n n n ` ` ' ' ' ' [ [ { C C 8 * O.O.O.O.O.O.O.O.O.O.O.O.O.O.O.O.O.O.",
"O.O.O.O.O.O.O.O.O.O.O.O.O.O.O.O.o 4 D S v v x x x l x x k z n ` ` ` ` ` ` ' ' [ [ { C W = + O.O.O.O.O.O.O.O.O.O.O.O.O.O.O.O.O.O.",
"O.O.O.O.O.O.O.O.O.O.O.O.O.O.O.O.O.O.2 e v v v v v l v x x x z z z z S S V N B B A A 6 1 O.O.O.O.O.O.O.O.O.O.O.O.O.O.O.O.O.O.O.O.",
"O.O.O.O.O.O.O.O.O.O.O.O.O.O.O.O.O.O.& e v v v v v v x v v x z S z z S S N V V B A Z : O O.O.O.O.O.O.O.O.O.O.O.O.O.O.O.O.O.O.O.O.",
"O.O.O.O.O.O.O.O.O.O.O.O.O.O.O.O.O.O.% e K v v c v v v v v K v v ` ` ' ` ` ' V V r : O.O.O.O.O.O.O.O.O.O.O.O.O.O.O.O.O.O.O.O.O.O.",
"O.O.O.O.O.O.O.O.O.O.O.O.O.O.O.O.O.O.3 t v v x x v v v v v v K v ` ` ` ` ` ' N V r % O.O.O.O.O.O.O.O.O.O.O.O.O.O.O.O.O.O.O.O.O.O.",
"O.O.O.O.O.O.O.O.O.O.O.O.O.O.O.O.# y I K K v v v v v N a v K ` ` ` ` ` ` ` ` V V V W : O O.O.O.O.O.O.O.O.O.O.O.O.O.O.O.O.O.O.O.O.",
"O.O.O.O.O.O.O.O.O.O.O.O.O.O.O.O.* w K K v v K v v v a N K v ` ` ` ` ` ` ` ` a N V V r % O.O.O.O.O.O.O.O.O.O.O.O.O.O.O.O.O.O.O.O.",
"O.O.O.O.O.O.O.O.O.O.O.O.O.O.O.O.2 w K v v v v v v v N a v L ` ` ` ` ` ` n n ` ` N V t = O.O.O.O.O.O.O.O.O.O.O.O.O.O.O.O.O.O.O.O.",
"O.O.O.O.O.O.O.O.O.O.O.O.O.O.O.O.y r L v K v K v v L a N v L ` ` n n n n n n n n a N t < O.O.O.O.O.O.O.O.O.O.O.O.O.O.O.O.O.O.O.O.",
"O.O.O.O.O.O.O.O.O.O.O.O.O.O.. = T P L K S v K v a N S S ` ' ` ` n n n n n n b n a a N A ,   O.O.O.O.O.O.O.O.O.O.O.O.O.O.O.O.O.O.",
"O.O.O.O.O.O.O.O.O.O.O.O.O.O.= 9 U I K K K v v v N N S S ` ` ` ` n n n b b b b n a a N B r = O.O.O.O.O.O.O.O.O.O.O.O.O.O.O.O.O.O.",
"O.O.O.O.O.O.O.O.O.O.O.O.O.O.2 9 U I K K K K v K N N S S ` ` ` n n n b b b b c b f a N N r , O.O.O.O.O.O.O.O.O.O.O.O.O.O.O.O.O.O.",
"O.O.O.O.O.O.O.O.O.O.O.O.O.O.2 9 U I K K v v v v N V S S ` ` ` n n b b b b c b b s a a N r , O.O.O.O.O.O.O.O.O.O.O.O.O.O.O.O.O.O.",
"O.O.O.O.O.O.O.O.O.O.O.O.O.O., q U P L K K K N a S S K K ` n n n n b b c c c c c f a a N r , O.O.O.O.O.O.O.O.O.O.O.O.O.O.O.O.O.O.",
"O.O.O.O.O.O.O.O.O.O.O.O.O.O.$ = / I L K v x a a z S K K ` ` n n b b c b c c c c f f a m : $ O.O.O.O.O.O.O.O.O.O.O.O.O.O.O.O.O.O.",
"O.O.O.O.O.O.O.O.O.O.O.O.O.O.O.O.8 r N N N g S S z S v K v v n n b b c c c c s s i u u O O.O.O.O.O.O.O.O.O.O.O.O.O.O.O.O.O.O.O.O.",
"O.O.O.O.O.O.O.O.O.O.O.O.O.O.O.O.# < A N a N k S S z K v v v n n n b c b c c s s u t 4 O O.O.O.O.O.O.O.O.O.O.O.O.O.O.O.O.O.O.O.O.",
"O.O.O.O.O.O.O.O.O.O.O.O.O.O.O.O.O.O.y e S S S k v v v K K v k k h h j j s s s a i $ O.O.O.O.O.O.O.O.O.O.O.O.O.O.O.O.O.O.O.O.O.O.",
"O.O.O.O.O.O.O.O.O.O.O.O.O.O.O.O.O.O.$ e S S k k v v K K K K k k k h j j s f s s u * O.O.O.O.O.O.O.O.O.O.O.O.O.O.O.O.O.O.O.O.O.O.",
"O.O.O.O.O.O.O.O.O.O.O.O.O.O.O.O.O.O.  w K v v v K S K K e e e u a a a s f s a a e - O.O.O.O.O.O.O.O.O.O.O.O.O.O.O.O.O.O.O.O.O.O.",
"O.O.O.O.O.O.O.O.O.O.O.O.O.O.O.O.O.O.  w K K K K L L K L e w e e a a a a a a a R ; . O.O.O.O.O.O.O.O.O.O.O.O.O.O.O.O.O.O.O.O.O.O.",
"O.O.O.O.O.O.O.O.O.O.O.O.O.O.O.O.O.O.@ r I L L K L L I I r r w w N N a N a N w & O.O.O.O.O.O.O.O.O.O.O.O.O.O.O.O.O.O.O.O.O.O.O.O.",
"O.O.O.O.O.O.O.O.O.O.O.O.O.O.O.O.O.O.# 9 I I I L L I U U 0 0 0 0 B V B N N N w * O.O.O.O.O.O.O.O.O.O.O.O.O.O.O.O.O.O.O.O.O.O.O.O.",
"O.O.O.O.O.O.O.O.O.O.O.O.O.O.O.O.O.O.- 9 T U Y Y Y Y 9 9 ] ] 9 9 C A B A B A 0 $ O.O.O.O.O.O.O.O.O.O.O.O.O.O.O.O.O.O.O.O.O.O.O.O.",
"O.O.O.O.O.O.O.O.O.O.O.O.O.O.O.O.O.O.- 7 / / / / / T 7 7 } } 8 8 E Z Z Z Z Z 6 # O.O.O.O.O.O.O.O.O.O.O.O.O.O.O.O.O.O.O.O.O.O.O.O."
};
