/* XPM */
static char *result[] = {
/* columns rows colors chars-per-pixel */
"64 64 6 1 ",
"  c #04193F",
". c #780BF7",
"X c #D840FB",
"o c #F489F6",
"O c #C2E3E8",
"+ c #FCFEFE",
/* pixels */
"OOOOOOOOOOOOOOOOOOOOOOOOOOOOOOOOOOOOOOOOOOOOOOOOOOOOOOOOOOOOOOOO",
"OOOOOOOOOOOOOOOOOOOOOOOOOOOOOOOOOOOOOOOOOOOOOOOOOOOOOOOOOOOOOOOO",
"OOOOOOOOOOOOOOOOOOOOOOOOOOOOOOOOOOOOOOOOOOOOOOOOOOOOOOOOOOOOOOOO",
"OOOOOOOOOOOOOOOOOOOOOOOOOOOOOOOOOOOOOOOOOOOOOOOOOOOOOOOOOOOOOOOO",
"OOOOOOOOOOOOOOOOOOOOOOOOOOOOOOOOOOOOOOOOOOOOOOOOOOOOOOOOOOOOOOOO",
"OOOOOOOOOOOOOOOOOOOOOOOOOOOOOOOOOOOOOOOOOOOOOOOOOOOOOOOOOOOOOOOO",
"OOOOOOOOOOOOOOOOOOOOOOOOOOOOOOOOOOOOOOOOOOOOOOOOOOOOOOOOOOOOOOOO",
"OOOOOOOOOOOOOOOOOOOOOOOOOOOOOOOOOOOOOOOOOOOOOOOOOOOOOOOOOOOOOOOO",
"OOOOOOOOOOOOOOOOOOOOOOOOOOOOOOOOOOOOOOOOOOOOOOOOOOOOOOOOOOOOOOOO",
"OOOOOOOOOOOOOOOOOOOOOOOOOOOOOOOOOOOOOOOOOOOOOOOOOOOOOOOOOOOOOOOO",
"OOOOOOOOOOOOOOOOOOOO      OOOOOOOO      OOOOOOOOOOOOOOOOOOOOOOOO",
"OOOOOOOOOOOOOOOOOOOO      OOOOOOOO      OOOOOOOOOOOOOOOOOOOOOOOO",
"OOOOOOOOOOOOOOOOOO  oooooo  OOOO  ......  OOOOOOOOOOOOOOOOOOOOOO",
"OOOOOOOOOOOOOOOOOO  oooooo  OOOO  ......  OOOOOOOOOOOOOOOOOOOOOO",
"OOOOOOOOOOOOOOOOOO  oooooo  OOOO  ......  OOOOOOOOOOOOOOOOOOOOOO",
"OOOOOOOOOOOOOOOOOO  oooooo  OOOO  ......  OOOOOOOOOOOOOOOOOOOOOO",
"OOOOOOOOOOOOOOOOOO  oooooooo      ......  OOOOOOOOOOOOOOOOOOOOOO",
"OOOOOOOOOOOOOOOOOO  oooooooo      ......  OOOOOOOOOOOOOOOOOOOOOO",
"OOOOOOOOOOOOOOOOOO  ooooooXXXXXXXX........  OOOOOOOOOOOOOOOOOOOO",
"OOOOOOOOOOOOOOOOOO  ooooooXXXXXXXX........  OOOOOOOOOOOOOOOOOOOO",
"OOOOOOOOOOOOOOOO  XXooooooooooooXXXXXX....  OOOOOOOOOOOOOOOOOOOO",
"OOOOOOOOOOOOOOOO  XXooooooooooooXXXXXX....  OOOOOOOOOOOOOOOOOOOO",
"OOOOOOOOOOOOOOOO  ooooooooooooooooXXXXXX..  OOOOOOOOOOOOOOOOOOOO",
"OOOOOOOOOOOOOOOO  ooooooooooooooooXXXXXX..  OOOOOOOOOOOOOOOOOOOO",
"OOOOOOOOOOOOOOOO  oooooooooo++++++++++++....  OOOOOOOOOOOOOOOOOO",
"OOOOOOOOOOOOOOOO  oooooooooo++++++++++++....  OOOOOOOOOOOOOOOOOO",
"OOOOOOOOOOOOOO  XXoooooooo++++++++++++++++..  OOOOOOOOOOOOOOOOOO",
"OOOOOOOOOOOOOO  XXoooooooo++++++++++++++++..  OOOOOOOOOOOOOOOOOO",
"OOOOOOOOOOOOOO  oooooooo++++      ++++++    ..  OOOOOOOOOOOOOOOO",
"OOOOOOOOOOOOOO  oooooooo++++      ++++++    ..  OOOOOOOOOOOOOOOO",
"OOOOOOOOOOOOOO  oooooooo++    ++++  ++    ++    OOOOOOOOOOOOOOOO",
"OOOOOOOOOOOOOO  oooooooo++    ++++  ++    ++    OOOOOOOOOOOOOOOO",
"OOOOOOOOOOOOOO  oooooooo++          ++          OOOOOOOOOOOOOOOO",
"OOOOOOOOOOOOOO  oooooooo++          ++          OOOOOOOOOOOOOOOO",
"OOOOOOOOOOOOOO  oooooooo++          ++          OOOOOOOOOOOOOOOO",
"OOOOOOOOOOOOOO  oooooooo++          ++          OOOOOOOOOOOOOOOO",
"OOOOOOOOOOOOOO  XXoooooooo++      ++++++    ..  OOOOOOOOOOOOOOOO",
"OOOOOOOOOOOOOO  XXoooooooo++      ++++++    ..  OOOOOOOOOOOOOOOO",
"OOOOOOOOOOOOOOOO  oooooooo++++++++++++++++++  OOOOOOOOOOOOOOOOOO",
"OOOOOOOOOOOOOOOO  oooooooo++++++++++++++++++  OOOOOOOOOOOOOOOOOO",
"OOOOOOOOOOOOOOOO  XXooooooooXX++++++++++++..  OOOOOOOOOOOOOOOOOO",
"OOOOOOOOOOOOOOOO  XXooooooooXX++++++++++++..  OOOOOOOOOOOOOOOOOO",
"OOOOOOOOOOOOOOOOOO  ooooooooooXXXXXX......  OOOOOOOOOOOOOOOOOOOO",
"OOOOOOOOOOOOOOOOOO  ooooooooooXXXXXX......  OOOOOOOOOOOOOOOOOOOO",
"OOOOOOOOOOOOOOOOOO  oooooooooooo++++++..  OOOOOOOOOOOOOOOOOOOOOO",
"OOOOOOOOOOOOOOOOOO  oooooooooooo++++++..  OOOOOOOOOOOOOOOOOOOOOO",
"OOOOOOOOOOOOOOOO  oooooooooooooo++++++++..  OOOOOOOOOOOOOOOOOOOO",
"OOOOOOOOOOOOOOOO  oooooooooooooo++++++++..  OOOOOOOOOOOOOOOOOOOO",
"OOOOOOOOOOOOOO  oooooooooooooo++++++++++....  OOOOOOOOOOOOOOOOOO",
"OOOOOOOOOOOOOO  oooooooooooooo++++++++++....  OOOOOOOOOOOOOOOOOO",
"OOOOOOOOOOOO  oooooooooo..oooo++++++++++......  OOOOOOOOOOOOOOOO",
"OOOOOOOOOOOO  oooooooooo..oooo++++++++++......  OOOOOOOOOOOOOOOO",
"OOOOOOOOOOOO  oooooooo..XXoooo++++++++++......  OOOOOOOOOOOOOOOO",
"OOOOOOOOOOOO  oooooooo..XXoooo++++++++++......  OOOOOOOOOOOOOOOO",
"OOOOOOOOOOOO  oooooo  XXXXoooooo++++++++......  OOOOOOOOOOOOOOOO",
"OOOOOOOOOOOO  oooooo  XXXXoooooo++++++++......  OOOOOOOOOOOOOOOO",
"OOOOOOOOOOOOOO      OO  oooooooo..++++..      OOOOOOOOOOOOOOOOOO",
"OOOOOOOOOOOOOO      OO  oooooooo..++++..      OOOOOOOOOOOOOOOOOO",
"OOOOOOOOOOOOOOOOOOOOOO  oooooooo..XXXX  OOOOOOOOOOOOOOOOOOOOOOOO",
"OOOOOOOOOOOOOOOOOOOOOO  oooooooo..XXXX  OOOOOOOOOOOOOOOOOOOOOOOO",
"OOOOOOOOOOOOOOOOOOOOOOOO  oooooooo    OOOOOOOOOOOOOOOOOOOOOOOOOO",
"OOOOOOOOOOOOOOOOOOOOOOOO  oooooooo    OOOOOOOOOOOOOOOOOOOOOOOOOO",
"OOOOOOOOOOOOOOOOOOOOOOOO  oooooooo  OOOOOOOOOOOOOOOOOOOOOOOOOOOO",
"OOOOOOOOOOOOOOOOOOOOOOOO  oooooooo  OOOOOOOOOOOOOOOOOOOOOOOOOOOO"
};
