/* XPM */
static char *db1663844b88471ee93817d53b7acfb3Foee1x7lHjYCa27d[] = {
/* columns rows colors chars-per-pixel */
"64 64 9 1 ",
"  c black",
". c white",
"X c #F489F6",
"o c #D840FB",
"O c #780BF7",
"+ c #04193F",
"@ c #C2E3E8",
"# c #FCFEFE",
"$ c None",
/* pixels */
"@@@@@@@@@@@@@@@@@@@@@@@@@@@@@@@@@@@@@@@@@@@@@@@@@@@@@@@@@@@@@@@@",
"@@@@@@@@@@@@@@@@@@@@@@@@@@@@@@@@@@@@@@@@@@@@@@@@@@@@@@@@@@@@@@@@",
"@@@@@@@@@@@@@@@@@@@@@@@@@@@@@@@@@@@@@@@@@@@@@@@@@@@@@@@@@@@@@@@@",
"@@@@@@@@@@@@@@@@@@@@@@@@@@@@@@@@@@@@@@@@@@@@@@@@@@@@@@@@@@@@@@@@",
"@@@@@@@@@@@@@@@@@@@@@@@@@@@@@@@@@@@@@@@@@@@@@@@@@@@@@@@@@@@@@@@@",
"@@@@@@@@@@@@@@@@@@@@@@@@@@@@@@@@@@@@@@@@@@@@@@@@@@@@@@@@@@@@@@@@",
"@@@@@@@@@@@@@@@@@@@@@@@@@@@@@@@@@@@@@@@@@@@@@@@@@@@@@@@@@@@@@@@@",
"@@@@@@@@@@@@@@@@@@@@@@@@@@@@@@@@@@@@@@@@@@@@@@@@@@@@@@@@@@@@@@@@",
"@@@@@@@@@@@@@@@@@@@@@@@@@@@@@@@@@@@@@@@@++++++@@@@@@@@@@@@@@@@@@",
"@@@@@@@@@@@@@@@@@@@@@@@@@@@@@@@@@@@@@@@@++++++@@@@@@@@@@@@@@@@@@",
"@@@@@@@@@@@@@@@@@@@@@@@@@@@@++++++@@++++XXXXXX++@@@@@@@@@@@@@@@@",
"@@@@@@@@@@@@@@@@@@@@@@@@@@@@++++++@@++++XXXXXX++@@@@@@@@@@@@@@@@",
"@@@@@@@@@@@@@@@@@@@@@@@@++++OOOOOO++XXXXXXXXXX++@@@@@@@@@@@@@@@@",
"@@@@@@@@@@@@@@@@@@@@@@@@++++OOOOOO++XXXXXXXXXX++@@@@@@@@@@@@@@@@",
"@@@@@@@@@@@@@@@@@@@@@@++OOOOOOooooooooXXXXXXXX++@@@@@@@@@@@@@@@@",
"@@@@@@@@@@@@@@@@@@@@@@++OOOOOOooooooooXXXXXXXX++@@@@@@@@@@@@@@@@",
"@@@@@@@@@@@@@@@@@@@@++OOOOooooooXXXXXXXXoooo++@@@@@@@@@@@@@@@@@@",
"@@@@@@@@@@@@@@@@@@@@++OOOOooooooXXXXXXXXoooo++@@@@@@@@@@@@@@@@@@",
"@@@@@@@@@@@@@@@@@@@@++OOooooooXXXXXXXXXXXXXXoo++@@@@@@@@@@@@@@@@",
"@@@@@@@@@@@@@@@@@@@@++OOooooooXXXXXXXXXXXXXXoo++@@@@@@@@@@@@@@@@",
"@@@@@@@@@@@@@@@@@@++OOOO############XXXXXXXXXX++@@@@@@@@@@@@@@@@",
"@@@@@@@@@@@@@@@@@@++OOOO############XXXXXXXXXX++@@@@@@@@@@@@@@@@",
"@@@@@@@@@@@@@@@@@@++OO################XXXXXXXXoo++@@@@@@@@@@@@@@",
"@@@@@@@@@@@@@@@@@@++OO################XXXXXXXXoo++@@@@@@@@@@@@@@",
"@@@@@@@@@@@@@@@@++OO++++######++++++####XXXXXXXX++@@@@@@@@@@@@@@",
"@@@@@@@@@@@@@@@@++OO++++######++++++####XXXXXXXX++@@@@@@@@@@@@@@",
"@@@@@@@@@@@@@@@@++++##++++##++####++++##XXXXXXXX++@@@@@@@@@@@@@@",
"@@@@@@@@@@@@@@@@++++##++++##++####++++##XXXXXXXX++@@@@@@@@@@@@@@",
"@@@@@@@@@@@@@@@@++++##++++##++####++++##XXXXXXXX++@@@@@@@@@@@@@@",
"@@@@@@@@@@@@@@@@++++##++++##++####++++##XXXXXXXX++@@@@@@@@@@@@@@",
"@@@@@@@@@@@@@@@@++++##++++##++####++++##XXXXXXXX++@@@@@@@@@@@@@@",
"@@@@@@@@@@@@@@@@++++##++++##++####++++##XXXXXXXX++@@@@@@@@@@@@@@",
"@@@@@@@@@@@@@@@@++OO++++######++++++##XXXXXXXXoo++@@@@@@@@@@@@@@",
"@@@@@@@@@@@@@@@@++OO++++######++++++##XXXXXXXXoo++@@@@@@@@@@@@@@",
"@@@@@@@@@@@@@@@@@@++##################XXXXXXXX++@@@@@@@@@@@@@@@@",
"@@@@@@@@@@@@@@@@@@++##################XXXXXXXX++@@@@@@@@@@@@@@@@",
"@@@@@@@@@@@@@@@@@@++OO############ooXXXXXXXXoo++@@@@@@@@@@@@@@@@",
"@@@@@@@@@@@@@@@@@@++OO############ooXXXXXXXXoo++@@@@@@@@@@@@@@@@",
"@@@@@@@@@@@@@@@@@@@@++OOOOOOooooooXXXXXXXXXX++@@@@@@@@@@@@@@@@@@",
"@@@@@@@@@@@@@@@@@@@@++OOOOOOooooooXXXXXXXXXX++@@@@@@@@@@@@@@@@@@",
"@@@@@@@@@@@@@@@@@@@@@@++OO######XXXXXXXXXXXX++@@@@@@@@@@@@@@@@@@",
"@@@@@@@@@@@@@@@@@@@@@@++OO######XXXXXXXXXXXX++@@@@@@@@@@@@@@@@@@",
"@@@@@@@@@@@@@@@@@@@@@@++OO######XXXXXXXXXXXXXX++@@@@@@@@@@@@@@@@",
"@@@@@@@@@@@@@@@@@@@@@@++OO######XXXXXXXXXXXXXX++@@@@@@@@@@@@@@@@",
"@@@@@@@@@@@@@@@@@@@@++OO##########XXXXOOXXXXXX++@@@@@@@@@@@@@@@@",
"@@@@@@@@@@@@@@@@@@@@++OO##########XXXXOOXXXXXX++@@@@@@@@@@@@@@@@",
"@@@@@@@@@@@@@@@@@@@@++OO##########XXXXOOXXXXXXXX++@@@@@@@@@@@@@@",
"@@@@@@@@@@@@@@@@@@@@++OO##########XXXXOOXXXXXXXX++@@@@@@@@@@@@@@",
"@@@@@@@@@@@@@@@@@@++OOOO##########XXXXooOOXXXXXX++@@@@@@@@@@@@@@",
"@@@@@@@@@@@@@@@@@@++OOOO##########XXXXooOOXXXXXX++@@@@@@@@@@@@@@",
"@@@@@@@@@@@@@@@@@@++OOOO##########XXXXooOOXXXXXX++@@@@@@@@@@@@@@",
"@@@@@@@@@@@@@@@@@@++OOOO##########XXXXooOOXXXXXX++@@@@@@@@@@@@@@",
"@@@@@@@@@@@@@@@@@@++OOOOOO######OOXXXXooooOO++++@@@@@@@@@@@@@@@@",
"@@@@@@@@@@@@@@@@@@++OOOOOO######OOXXXXooooOO++++@@@@@@@@@@@@@@@@",
"@@@@@@@@@@@@@@@@@@@@++++++OOooooOOXXXXXXoo++@@@@@@@@@@@@@@@@@@@@",
"@@@@@@@@@@@@@@@@@@@@++++++OOooooOOXXXXXXoo++@@@@@@@@@@@@@@@@@@@@",
"@@@@@@@@@@@@@@@@@@@@@@@@++OOOO++XXXXXXXXXX++@@@@@@@@@@@@@@@@@@@@",
"@@@@@@@@@@@@@@@@@@@@@@@@++OOOO++XXXXXXXXXX++@@@@@@@@@@@@@@@@@@@@",
"@@@@@@@@@@@@@@@@@@@@@@@@++OOOO++XXXXXXXX++@@@@@@@@@@@@@@@@@@@@@@",
"@@@@@@@@@@@@@@@@@@@@@@@@++OOOO++XXXXXXXX++@@@@@@@@@@@@@@@@@@@@@@",
"@@@@@@@@@@@@@@@@@@@@@@@@@@++OO++XXXXXXXX++@@@@@@@@@@@@@@@@@@@@@@",
"@@@@@@@@@@@@@@@@@@@@@@@@@@++OO++XXXXXXXX++@@@@@@@@@@@@@@@@@@@@@@",
"@@@@@@@@@@@@@@@@@@@@@@@@@@++OOOO++++++++@@@@@@@@@@@@@@@@@@@@@@@@",
"@@@@@@@@@@@@@@@@@@@@@@@@@@++OOOO++++++++@@@@@@@@@@@@@@@@@@@@@@@@"
};
