/* XPM */
static char *result[] = {
/* columns rows colors chars-per-pixel */
"64 64 6 1 ",
"  c #04193F",
". c #780BF7",
"X c #D840FB",
"o c #F489F6",
"O c #C2E3E8",
"+ c #FCFEFE",
/* pixels */
"OOOOOOOOOOOOOOOOOOOOOOOOOOOOOOOOOOOOOOOOOOOOOOOOOOOOOOOOOOOOOOOO",
"OOOOOOOOOOOOOOOOOOOOOOOOOOOOOOOOOOOOOOOOOOOOOOOOOOOOOOOOOOOOOOOO",
"OOOOOOOOOOOOOOOOOOOOOOOOOOOOOOOOOOOOOOOOOOOOOOOOOOOOOOOOOOOOOOOO",
"OOOOOOOOOOOOOOOOOOOOOOOOOOOOOOOOOOOOOOOOOOOOOOOOOOOOOOOOOOOOOOOO",
"OOOOOOOOOOOOOOOOOOOOOOOOOOOOOOOOOOOOOOOOOOOOOOOOOOOOOOOOOOOOOOOO",
"OOOOOOOOOOOOOOOOOOOOOOOOOOOOOOOOOOOOOOOOOOOOOOOOOOOOOOOOOOOOOOOO",
"OOOOOOOOOOOOOOOOOOOOOOOOOOOOOOOOOOOOOOOOOOOOOOOOOOOOOOOOOOOOOOOO",
"OOOOOOOOOOOOOOOOOOOOOOOOOOOOOOOOOOOOOOOOOOOOOOOOOOOOOOOOOOOOOOOO",
"OOOOOOOOOOOOOOOOOOOOOOOOOOOOOOOOOOOOOOOOOOOOOOOOOOOOOOOOOOOOOOOO",
"OOOOOOOOOOOOOOOOOOOOOOOOOOOOOOOOOOOOOOOOOOOOOOOOOOOOOOOOOOOOOOOO",
"OOOOOOOOOOOOOOOOOOOOOOOOOOOOOOOOOOOOOOOOOOOOOOOOOOOOOOOOOOOOOOOO",
"OOOOOOOOOOOOOOOOOOOOOOOOOOOOOOOOOOOOOOOOOOOOOOOOOOOOOOOOOOOOOOOO",
"OOOOOOOOOOOOOOOOOOOOOOOOOO      OOOOOOOO      OOOOOOOOOOOOOOOOOO",
"OOOOOOOOOOOOOOOOOOOOOOOOOO      OOOOOOOO      OOOOOOOOOOOOOOOOOO",
"OOOOOOOOOOOOOOOOOOOOOOOO  ......  OOOO  oooooo  OOOOOOOOOOOOOOOO",
"OOOOOOOOOOOOOOOOOOOOOOOO  ......  OOOO  oooooo  OOOOOOOOOOOOOOOO",
"OOOOOOOOOOOOOOOOOOOOOOOO  ......  OO  oooooooo  OOOOOOOOOOOOOOOO",
"OOOOOOOOOOOOOOOOOOOOOOOO  ......  OO  oooooooo  OOOOOOOOOOOOOOOO",
"OOOOOOOOOOOOOOOOOOOOOO  ......      oooooooooo  OOOOOOOOOOOOOOOO",
"OOOOOOOOOOOOOOOOOOOOOO  ......      oooooooooo  OOOOOOOOOOOOOOOO",
"OOOOOOOOOOOOOOOOOOOOOO  ......XXXXXXXXoooooo  OOOOOOOOOOOOOOOOOO",
"OOOOOOOOOOOOOOOOOOOOOO  ......XXXXXXXXoooooo  OOOOOOOOOOOOOOOOOO",
"OOOOOOOOOOOOOOOOOOOO  ....XXXXXXooooooooooXX  OOOOOOOOOOOOOOOOOO",
"OOOOOOOOOOOOOOOOOOOO  ....XXXXXXooooooooooXX  OOOOOOOOOOOOOOOOOO",
"OOOOOOOOOOOOOOOOOOOO  ..XXXXXXooooooooooooooXX  OOOOOOOOOOOOOOOO",
"OOOOOOOOOOOOOOOOOOOO  ..XXXXXXooooooooooooooXX  OOOOOOOOOOOOOOOO",
"OOOOOOOOOOOOOOOOOO  ....++++++++++++oooooooooo  OOOOOOOOOOOOOOOO",
"OOOOOOOOOOOOOOOOOO  ....++++++++++++oooooooooo  OOOOOOOOOOOOOOOO",
"OOOOOOOOOOOOOOOOOO  ..++++++++++++++++ooooooooXX  OOOOOOOOOOOOOO",
"OOOOOOOOOOOOOOOOOO  ..++++++++++++++++ooooooooXX  OOOOOOOOOOOOOO",
"OOOOOOOOOOOOOOOO  ..    ++++++      ++++oooooooo  OOOOOOOOOOOOOO",
"OOOOOOOOOOOOOOOO  ..    ++++++      ++++oooooooo  OOOOOOOOOOOOOO",
"OOOOOOOOOOOOOOOO    ++    ++  ++++    ++oooooooo  OOOOOOOOOOOOOO",
"OOOOOOOOOOOOOOOO    ++    ++  ++++    ++oooooooo  OOOOOOOOOOOOOO",
"OOOOOOOOOOOOOOOO          ++          ++oooooooo  OOOOOOOOOOOOOO",
"OOOOOOOOOOOOOOOO          ++          ++oooooooo  OOOOOOOOOOOOOO",
"OOOOOOOOOOOOOOOO          ++          ++oooooooo  OOOOOOOOOOOOOO",
"OOOOOOOOOOOOOOOO          ++          ++oooooooo  OOOOOOOOOOOOOO",
"OOOOOOOOOOOOOOOO  ..    ++++++      ++ooooooooXX  OOOOOOOOOOOOOO",
"OOOOOOOOOOOOOOOO  ..    ++++++      ++ooooooooXX  OOOOOOOOOOOOOO",
"OOOOOOOOOOOOOOOOOO  ++++++++++++++++++oooooooo  OOOOOOOOOOOOOOOO",
"OOOOOOOOOOOOOOOOOO  ++++++++++++++++++oooooooo  OOOOOOOOOOOOOOOO",
"OOOOOOOOOOOOOOOOOO  ..++++++++++++XXooooooooXX  OOOOOOOOOOOOOOOO",
"OOOOOOOOOOOOOOOOOO  ..++++++++++++XXooooooooXX  OOOOOOOOOOOOOOOO",
"OOOOOOOOOOOOOO        ......XXXXXXoooooooooo          OOOOOOOOOO",
"OOOOOOOOOOOOOO        ......XXXXXXoooooooooo          OOOOOOOOOO",
"OOOOOOOOOOOO  ..........++++++++++oooooooooooooooooooo  OOOOOOOO",
"OOOOOOOOOOOO  ..........++++++++++oooooooooooooooooooo  OOOOOOOO",
"OOOOOOOOOOOO  ........++++++++++++++oooooooooooooooooo  OOOOOOOO",
"OOOOOOOOOOOO  ........++++++++++++++oooooooooooooooooo  OOOOOOOO",
"OOOOOOOOOOOO  ........++++++++++++++++oooooooooooooooo  OOOOOOOO",
"OOOOOOOOOOOO  ........++++++++++++++++oooooooooooooooo  OOOOOOOO",
"OOOOOOOOOOOOOO        ++++++++++++++++oooo....        OOOOOOOOOO",
"OOOOOOOOOOOOOO        ++++++++++++++++oooo....        OOOOOOOOOO",
"OOOOOOOOOOOOOOOOOOOOOO  ++++++++++++++ooooXX  OOOOOOOOOOOOOOOOOO",
"OOOOOOOOOOOOOOOOOOOOOO  ++++++++++++++ooooXX  OOOOOOOOOOOOOOOOOO",
"OOOOOOOOOOOOOOOOOOOOOO  ++++++++++++oooooooo  OOOOOOOOOOOOOOOOOO",
"OOOOOOOOOOOOOOOOOOOOOO  ++++++++++++oooooooo  OOOOOOOOOOOOOOOOOO",
"OOOOOOOOOOOOOOOOOOOOOO  ....XXXXXXoooooooooo  OOOOOOOOOOOOOOOOOO",
"OOOOOOOOOOOOOOOOOOOOOO  ....XXXXXXoooooooooo  OOOOOOOOOOOOOOOOOO",
"OOOOOOOOOOOOOOOOOOOOOO  ........    oooooooooo  OOOOOOOOOOOOOOOO",
"OOOOOOOOOOOOOOOOOOOOOO  ........    oooooooooo  OOOOOOOOOOOOOOOO",
"OOOOOOOOOOOOOOOOOOOOOOOO  ......  OO  oooooooo  OOOOOOOOOOOOOOOO",
"OOOOOOOOOOOOOOOOOOOOOOOO  ......  OO  oooooooo  OOOOOOOOOOOOOOOO"
};
