/* XPM */
static char *_30a51ca6fec43e4f7e7d136028f5279z0szLUvsTHdGfaG7[] = {
/* columns rows colors chars-per-pixel */
"64 64 10 1 ",
"  c black",
". c white",
"X c #434A5F",
"o c #BEDEF1",
"O c #C2E3E8",
"+ c #FFF6E2",
"@ c #F4CCA1",
"# c #EEA160",
"$ c #9F5A52",
"% c None",
/* pixels */
"OOOOOOOOOOOOOOOOooooooooooooooooooooooooooooooooOOOOOOOOOOOOOOOO",
"OOOOOOOOOOOOOOOOooooooooooooooooooooooooooooooooOOOOOOOOOOOOOOOO",
"OOOOOOOOOOOOOOOOooooooooooooooooooooooooooooooooOOOOOOOOOOOOOOOO",
"OOOOOOOOOOOoooooooo..........................ooooooooOOOOOOOOOOO",
"OOOOOOOOOOOoooooooo..........................ooooooooOOOOOOOOOOO",
"OOOOOOOOooooo......oooooooooooooooooooooooooo......oooooOOOOOOOO",
"OOOOOOOOooooo......oooooooooooooooooooooooooo......oooooOOOOOOOO",
"OOOOOOOOooooo......oooooooooooooooooooooooooo......oooooOOOOOOOO",
"OOOOOOOOooo..oooooo$$$$$$$$$$$$$$$$$$$$$$$$$$oooooo..oooOOOOOOOO",
"OOOOOOOOooo..oooooo$$$$$$$$$$$$$$$$$$$$$$$$$$oooooo..oooOOOOOOOO",
"OOOOOOOOooo..oooooo$$$$$$$$$$$$$$$$$$$$$$$$$$oooooo..oooOOOOOOOO",
"OOOOOoooooo..ooo$$$$$$$$$$$$$$$$$$$$$$$$$$$$$$$$ooo..ooooooOOOOO",
"OOOOOoooooo..ooo$$$$$$$$$$$$$$$$$$$$$$$$$$$$$$$$ooo..ooooooOOOOO",
"OOOOOooo...oo$$$$$$$$++++++++++++++++++++++$$$$$$$$oo...oooOOOOO",
"OOOOOooo...oo$$$$$$$$++++++++++++++++++++++$$$$$$$$oo...oooOOOOO",
"OOOOOooo...oo$$$$$$$$++++++++++++++++++++++$$$$$$$$oo...oooOOOOO",
"OOOOOooo...oo$$$$$$++++++++++++++++++++++++++$$$$$$oo...oooOOOOO",
"OOOOOooo...oo$$$$$$++++++++++++++++++++++++++$$$$$$oo...oooOOOOO",
"OOOOOooo...oo$$$$$$++++++++++++++++++++++++++$$$$$$oo...oooOOOOO",
"OOOOOooo...oo$$$$$$++@@@@@@@@@@@@@@@@@@@@@@++$$$$$$oo...oooOOOOO",
"OOOOOooo...oo$$$$$$++@@@@@@@@@@@@@@@@@@@@@@++$$$$$$oo...oooOOOOO",
"OOOOOooo...oo$$$$$$@@@@@@@@@@@@@@@@@@@@@@@@@@$$$$$$oo...oooOOOOO",
"OOOOOooo...oo$$$$$$@@@@@@@@@@@@@@@@@@@@@@@@@@$$$$$$oo...oooOOOOO",
"OOOOOooo...oo$$$$$$@@@@@@@@@@@@@@@@@@@@@@@@@@$$$$$$oo...oooOOOOO",
"OOOOOooo...oo$$$$$$@@@@@@@@@@@@@@@@@@@@@@@@@@$$$$$$oo...oooOOOOO",
"OOOOOooo...oo$$$$$$@@@@@@@@@@@@@@@@@@@@@@@@@@$$$$$$oo...oooOOOOO",
"OOOOOooo...oo$$$$$$@@@@@@@@@@@@@@@@@@@@@@@@@@$$$$$$oo...oooOOOOO",
"OOOOOooo...oo$$$$$$@@@@@@@@@@@@@@@@@@@@@@@@@@$$$$$$oo...oooOOOOO",
"OOOOOooo...oo$$$$$$@@@@@@@@@@@@@@@@@@@@@@@@@@$$$$$$oo...oooOOOOO",
"OOOOOooo...oo$$$$$$@@XXXXXXXXXXXXXXXX@@@@@@@@$$$$$$oo...oooOOOOO",
"OOOOOooo...oo$$$$$$@@XXXXXXXXXXXXXXXX@@@@@@@@$$$$$$oo...oooOOOOO",
"OOOOOooo...oo$$$$$$@@XXXXXXXXXXXXXXXX@@@@@@@@$$$$$$oo...oooOOOOO",
"OOOOOooo...oo$$$$$$@@XXXXXXXXXXXXXXXX@@@@@@@@$$$$$$oo...oooOOOOO",
"OOOOOooo...oo$$$$$$@@XXXXXXXXXXXXXXXX@@@@@@@@$$$$$$oo...oooOOOOO",
"OOOOOooo...oo$$$$$$@@XXXXXXXXXXXXXXXX@@@@@@@@$$$$$$oo...oooOOOOO",
"OOOOOooo...ooooo$$$@@@@@@@@@@@@@@@@@@@@@@@@@@$$$ooooo...oooOOOOO",
"OOOOOooo...ooooo$$$@@@@@@@@@@@@@@@@@@@@@@@@@@$$$ooooo...oooOOOOO",
"OOOOOoooooo..ooo$$$@@@@@@@@XXXXX@@@@@@@@@@@@@$$$ooo..ooooooOOOOO",
"OOOOOoooooo..ooo$$$@@@@@@@@XXXXX@@@@@@@@@@@@@$$$ooo..ooooooOOOOO",
"OOOOOoooooo..ooo$$$@@@@@@@@XXXXX@@@@@@@@@@@@@$$$ooo..ooooooOOOOO",
"OOOOOOOOooo..oooooooo@@@@@@@@@@@@@@@@@@@@@@oooooooo..oooOOOOOOOO",
"OOOOOOOOooo..oooooooo@@@@@@@@@@@@@@@@@@@@@@oooooooo..oooOOOOOOOO",
"OOOOOOOOooo..oooooooo@@@@@@@@@@@@@@@@@@@@@@oooooooo..oooOOOOOOOO",
"OOOOOOOOooooo......oooooooooooooooooooooooooo......oooooOOOOOOOO",
"OOOOOOOOooooo......oooooooooooooooooooooooooo......oooooOOOOOOOO",
"OOOOOOOOOOOoooooooo..........................ooooooooOOOOOOOOOOO",
"OOOOOOOOOOOoooooooo..........................ooooooooOOOOOOOOOOO",
"OOOOOOOOOOOoooooooo..........................ooooooooOOOOOOOOOOO",
"OOOOOOOOOOOOO$$$oooooooooooooooooooooooooooooooo$$$OOOOOOOOOOOOO",
"OOOOOOOOOOOOO$$$oooooooooooooooooooooooooooooooo$$$OOOOOOOOOOOOO",
"OOOOOOOOOOOOO$$$oooooooooooooooooooooooooooooooo$$$OOOOOOOOOOOOO",
"OOOOOOOOOOOOO$$$$$$##@@@@@@@@@@@@@@@@@@@@@@##$$$$$$OOOOOOOOOOOOO",
"OOOOOOOOOOOOO$$$$$$##@@@@@@@@@@@@@@@@@@@@@@##$$$$$$OOOOOOOOOOOOO",
"OOOOOOOOOOOOO$$$@@@@@###$$$$$$$$$$$$$$$$###@@@@@$$$OOOOOOOOOOOOO",
"OOOOOOOOOOOOO$$$@@@@@###$$$$$$$$$$$$$$$$###@@@@@$$$OOOOOOOOOOOOO",
"OOOOOOOOOOOOO$$$@@@@@###$$$$$$$$$$$$$$$$###@@@@@$$$OOOOOOOOOOOOO",
"OOOOOOOOOOOOO$$$@@@@@$$$$$$$$$$$$$$$$$$$$$$@@@@@$$$OOOOOOOOOOOOO",
"OOOOOOOOOOOOO$$$@@@@@$$$$$$$$$$$$$$$$$$$$$$@@@@@$$$OOOOOOOOOOOOO",
"OOOOOOOOOOOOO$$$@@@@@$$$$$$$$$$$$$$$$$$$$$$@@@@@$$$OOOOOOOOOOOOO",
"OOOOOOOOOOOOO$$$$$$$$$$$OOOOOOOOOOOOOOOO$$$$$$$$$$$OOOOOOOOOOOOO",
"OOOOOOOOOOOOO$$$$$$$$$$$OOOOOOOOOOOOOOOO$$$$$$$$$$$OOOOOOOOOOOOO",
"OOOOOOOOOOOOOOOOOOOOOOOOOOOOOOOOOOOOOOOOOOOOOOOOOOOOOOOOOOOOOOOO",
"OOOOOOOOOOOOOOOOOOOOOOOOOOOOOOOOOOOOOOOOOOOOOOOOOOOOOOOOOOOOOOOO",
"OOOOOOOOOOOOOOOOOOOOOOOOOOOOOOOOOOOOOOOOOOOOOOOOOOOOOOOOOOOOOOOO"
};
