/* XPM */
static char *result[] = {
/* columns rows colors chars-per-pixel */
"64 64 6 1 ",
"  c #04193F",
". c #780BF7",
"X c #D840FB",
"o c #F489F6",
"O c #C2E3E8",
"+ c #FCFEFE",
/* pixels */
"OOOOOOOOOOOOOOOOOOOOOOOOOOOOOOOOOOOOOOOOOOOOOOOOOOOOOOOOOOOOOOOO",
"OOOOOOOOOOOOOOOOOOOOOOOOOOOOOOOOOOOOOOOOOOOOOOOOOOOOOOOOOOOOOOOO",
"OOOOOOOOOOOOOOOOOOOOOOOOOOOOOOOOOOOOOOOOOOOOOOOOOOOOOOOOOOOOOOOO",
"OOOOOOOOOOOOOOOOOOOOOOOOOOOOOOOOOOOOOOOOOOOOOOOOOOOOOOOOOOOOOOOO",
"OOOOOOOOOOOOOOOOOOOOOOOOOOOOOOOOOOOOOOOOOOOOOOOOOOOOOOOOOOOOOOOO",
"OOOOOOOOOOOOOOOOOOOOOOOOOOOOOOOOOOOOOOOOOOOOOOOOOOOOOOOOOOOOOOOO",
"OOOOOOOOOOOOOOOOOOOOOOOOOOOOOOOOOOOOOOOOOOOOOOOOOOOOOOOOOOOOOOOO",
"OOOOOOOOOOOOOOOOOOOOOOOOOOOOOOOOOOOOOOOOOOOOOOOOOOOOOOOOOOOOOOOO",
"OOOOOOOOOOOOOOOOOOOOOOOOOOOOOOOOOOOOOOOOOOOOOOOOOOOOOOOOOOOOOOOO",
"OOOOOOOOOOOOOOOOOOOOOOOOOOOOOOOOOOOOOOOOOOOOOOOOOOOOOOOOOOOOOOOO",
"OOOOOOOOOOOOOOOOOOOOOOOOOOOOOOOOOOOOOOOOOOOOOOOOOOOOOOOOOOOOOOOO",
"OOOOOOOOOOOOOOOOOOOOOOOOOOOOOOOOOOOOOOOOOOOOOOOOOOOOOOOOOOOOOOOO",
"OOOOOOOOOOOOOOOOOO      OOOOOOOO      OOOOOOOOOOOOOOOOOOOOOOOOOO",
"OOOOOOOOOOOOOOOOOO      OOOOOOOO      OOOOOOOOOOOOOOOOOOOOOOOOOO",
"OOOOOOOOOOOOOOOO  oooooo  OOOO  ......  OOOOOOOOOOOOOOOOOOOOOOOO",
"OOOOOOOOOOOOOOOO  oooooo  OOOO  ......  OOOOOOOOOOOOOOOOOOOOOOOO",
"OOOOOOOOOOOOOOOO  oooooooo  OO  ......  OOOOOOOOOOOOOOOOOOOOOOOO",
"OOOOOOOOOOOOOOOO  oooooooo  OO  ......  OOOOOOOOOOOOOOOOOOOOOOOO",
"OOOOOOOOOOOOOOOO  oooooooooo      ......  OOOOOOOOOOOOOOOOOOOOOO",
"OOOOOOOOOOOOOOOO  oooooooooo      ......  OOOOOOOOOOOOOOOOOOOOOO",
"OOOOOOOOOOOOOOOOOO  ooooooXXXXXXXX......  OOOOOOOOOOOOOOOOOOOOOO",
"OOOOOOOOOOOOOOOOOO  ooooooXXXXXXXX......  OOOOOOOOOOOOOOOOOOOOOO",
"OOOOOOOOOOOOOOOOOO  XXooooooooooXXXXXX....  OOOOOOOOOOOOOOOOOOOO",
"OOOOOOOOOOOOOOOOOO  XXooooooooooXXXXXX....  OOOOOOOOOOOOOOOOOOOO",
"OOOOOOOOOOOOOOOO  XXooooooooooooooXXXXXX..  OOOOOOOOOOOOOOOOOOOO",
"OOOOOOOOOOOOOOOO  XXooooooooooooooXXXXXX..  OOOOOOOOOOOOOOOOOOOO",
"OOOOOOOOOOOOOOOO  oooooooooo++++++++++++....  OOOOOOOOOOOOOOOOOO",
"OOOOOOOOOOOOOOOO  oooooooooo++++++++++++....  OOOOOOOOOOOOOOOOOO",
"OOOOOOOOOOOOOO  XXoooooooo++++++++++++++++..  OOOOOOOOOOOOOOOOOO",
"OOOOOOOOOOOOOO  XXoooooooo++++++++++++++++..  OOOOOOOOOOOOOOOOOO",
"OOOOOOOOOOOOOO  oooooooo++++      ++++++    ..  OOOOOOOOOOOOOOOO",
"OOOOOOOOOOOOOO  oooooooo++++      ++++++    ..  OOOOOOOOOOOOOOOO",
"OOOOOOOOOOOOOO  oooooooo++    ++++  ++    ++    OOOOOOOOOOOOOOOO",
"OOOOOOOOOOOOOO  oooooooo++    ++++  ++    ++    OOOOOOOOOOOOOOOO",
"OOOOOOOOOOOOOO  oooooooo++          ++          OOOOOOOOOOOOOOOO",
"OOOOOOOOOOOOOO  oooooooo++          ++          OOOOOOOOOOOOOOOO",
"OOOOOOOOOOOOOO  oooooooo++          ++          OOOOOOOOOOOOOOOO",
"OOOOOOOOOOOOOO  oooooooo++          ++          OOOOOOOOOOOOOOOO",
"OOOOOOOOOOOOOO  XXoooooooo++      ++++++    ..  OOOOOOOOOOOOOOOO",
"OOOOOOOOOOOOOO  XXoooooooo++      ++++++    ..  OOOOOOOOOOOOOOOO",
"OOOOOOOOOOOOOOOO  oooooooo++++++++++++++++++  OOOOOOOOOOOOOOOOOO",
"OOOOOOOOOOOOOOOO  oooooooo++++++++++++++++++  OOOOOOOOOOOOOOOOOO",
"OOOOOOOOOOOOOOOO  XXooooooooXX++++++++++++..  OOOOOOOOOOOOOOOOOO",
"OOOOOOOOOOOOOOOO  XXooooooooXX++++++++++++..  OOOOOOOOOOOOOOOOOO",
"OOOOOOOOOO          ooooooooooXXXXXX......        OOOOOOOOOOOOOO",
"OOOOOOOOOO          ooooooooooXXXXXX......        OOOOOOOOOOOOOO",
"OOOOOOOO  oooooooooooooooooooo++++++++++..........  OOOOOOOOOOOO",
"OOOOOOOO  oooooooooooooooooooo++++++++++..........  OOOOOOOOOOOO",
"OOOOOOOO  oooooooooooooooooo++++++++++++++........  OOOOOOOOOOOO",
"OOOOOOOO  oooooooooooooooooo++++++++++++++........  OOOOOOOOOOOO",
"OOOOOOOO  oooooooooooooooo++++++++++++++++........  OOOOOOOOOOOO",
"OOOOOOOO  oooooooooooooooo++++++++++++++++........  OOOOOOOOOOOO",
"OOOOOOOOOO        ....oooo++++++++++++++++        OOOOOOOOOOOOOO",
"OOOOOOOOOO        ....oooo++++++++++++++++        OOOOOOOOOOOOOO",
"OOOOOOOOOOOOOOOOOO  XXoooo++++++++++++++  OOOOOOOOOOOOOOOOOOOOOO",
"OOOOOOOOOOOOOOOOOO  XXoooo++++++++++++++  OOOOOOOOOOOOOOOOOOOOOO",
"OOOOOOOOOOOOOOOOOO  oooooooo++++++++++++  OOOOOOOOOOOOOOOOOOOOOO",
"OOOOOOOOOOOOOOOOOO  oooooooo++++++++++++  OOOOOOOOOOOOOOOOOOOOOO",
"OOOOOOOOOOOOOOOOOO  ooooooooooXXXXXX....  OOOOOOOOOOOOOOOOOOOOOO",
"OOOOOOOOOOOOOOOOOO  ooooooooooXXXXXX....  OOOOOOOOOOOOOOOOOOOOOO",
"OOOOOOOOOOOOOOOO  oooooooooo    ........  OOOOOOOOOOOOOOOOOOOOOO",
"OOOOOOOOOOOOOOOO  oooooooooo    ........  OOOOOOOOOOOOOOOOOOOOOO",
"OOOOOOOOOOOOOOOO  oooooooo  OO  ......  OOOOOOOOOOOOOOOOOOOOOOOO",
"OOOOOOOOOOOOOOOO  oooooooo  OO  ......  OOOOOOOOOOOOOOOOOOOOOOOO"
};
