/* XPM */
static char *result[] = {
/* columns rows colors chars-per-pixel */
"64 64 6 1 ",
"  c #04193F",
". c #780BF7",
"X c #D840FB",
"o c #F489F6",
"O c #C2E3E8",
"+ c #FCFEFE",
/* pixels */
"OOOOOOOOOOOOOOOOOOOOOOOOOOOOOOOOOOOOOOOOOOOOOOOOOOOOOOOOOOOOOOOO",
"OOOOOOOOOOOOOOOOOOOOOOOOOOOOOOOOOOOOOOOOOOOOOOOOOOOOOOOOOOOOOOOO",
"OOOOOOOOOOOOOOOOOOOOOOOOOOOOOOOOOOOOOOOOOOOOOOOOOOOOOOOOOOOOOOOO",
"OOOOOOOOOOOOOOOOOOOOOOOOOOOOOOOOOOOOOOOOOOOOOOOOOOOOOOOOOOOOOOOO",
"OOOOOOOOOOOOOOOOOOOOOOOOOOOOOOOOOOOOOOOOOOOOOOOOOOOOOOOOOOOOOOOO",
"OOOOOOOOOOOOOOOOOOOOOOOOOOOOOOOOOOOOOOOOOOOOOOOOOOOOOOOOOOOOOOOO",
"OOOOOOOOOOOOOOOOOOOOOOOOOOOOOOOOOOOOOOOOOOOOOOOOOOOOOOOOOOOOOOOO",
"OOOOOOOOOOOOOOOOOOOOOOOOOOOOOOOOOOOOOOOOOOOOOOOOOOOOOOOOOOOOOOOO",
"OOOOOOOOOOOOOOOOOO      OOOOOOOOOOOOOOOOOOOOOOOOOOOOOOOOOOOOOOOO",
"OOOOOOOOOOOOOOOOOO      OOOOOOOOOOOOOOOOOOOOOOOOOOOOOOOOOOOOOOOO",
"OOOOOOOOOOOOOOOO  oooooo    OO      OOOOOOOOOOOOOOOOOOOOOOOOOOOO",
"OOOOOOOOOOOOOOOO  oooooo    OO      OOOOOOOOOOOOOOOOOOOOOOOOOOOO",
"OOOOOOOOOOOOOOOO  oooooooooo  ......    OOOOOOOOOOOOOOOOOOOOOOOO",
"OOOOOOOOOOOOOOOO  oooooooooo  ......    OOOOOOOOOOOOOOOOOOOOOOOO",
"OOOOOOOOOOOOOOOO  ooooooooXXXXXXXX......  OOOOOOOOOOOOOOOOOOOOOO",
"OOOOOOOOOOOOOOOO  ooooooooXXXXXXXX......  OOOOOOOOOOOOOOOOOOOOOO",
"OOOOOOOOOOOOOOOOOO  XXXXooooooooXXXXXX....  OOOOOOOOOOOOOOOOOOOO",
"OOOOOOOOOOOOOOOOOO  XXXXooooooooXXXXXX....  OOOOOOOOOOOOOOOOOOOO",
"OOOOOOOOOOOOOOOO  XXooooooooooooooXXXXXX..  OOOOOOOOOOOOOOOOOOOO",
"OOOOOOOOOOOOOOOO  XXooooooooooooooXXXXXX..  OOOOOOOOOOOOOOOOOOOO",
"OOOOOOOOOOOOOOOO  oooooooooo++++++++++++....  OOOOOOOOOOOOOOOOOO",
"OOOOOOOOOOOOOOOO  oooooooooo++++++++++++....  OOOOOOOOOOOOOOOOOO",
"OOOOOOOOOOOOOO  XXoooooooo++++++++++++++++..  OOOOOOOOOOOOOOOOOO",
"OOOOOOOOOOOOOO  XXoooooooo++++++++++++++++..  OOOOOOOOOOOOOOOOOO",
"OOOOOOOOOOOOOO  oooooooo++++      ++++++    ..  OOOOOOOOOOOOOOOO",
"OOOOOOOOOOOOOO  oooooooo++++      ++++++    ..  OOOOOOOOOOOOOOOO",
"OOOOOOOOOOOOOO  oooooooo++    ++++  ++    ++    OOOOOOOOOOOOOOOO",
"OOOOOOOOOOOOOO  oooooooo++    ++++  ++    ++    OOOOOOOOOOOOOOOO",
"OOOOOOOOOOOOOO  oooooooo++    ++++  ++    ++    OOOOOOOOOOOOOOOO",
"OOOOOOOOOOOOOO  oooooooo++    ++++  ++    ++    OOOOOOOOOOOOOOOO",
"OOOOOOOOOOOOOO  oooooooo++    ++++  ++    ++    OOOOOOOOOOOOOOOO",
"OOOOOOOOOOOOOO  oooooooo++    ++++  ++    ++    OOOOOOOOOOOOOOOO",
"OOOOOOOOOOOOOO  XXoooooooo++      ++++++    ..  OOOOOOOOOOOOOOOO",
"OOOOOOOOOOOOOO  XXoooooooo++      ++++++    ..  OOOOOOOOOOOOOOOO",
"OOOOOOOOOOOOOOOO  oooooooo++++++++++++++++++  OOOOOOOOOOOOOOOOOO",
"OOOOOOOOOOOOOOOO  oooooooo++++++++++++++++++  OOOOOOOOOOOOOOOOOO",
"OOOOOOOOOOOOOOOO  XXooooooooXX++++++++++++..  OOOOOOOOOOOOOOOOOO",
"OOOOOOOOOOOOOOOO  XXooooooooXX++++++++++++..  OOOOOOOOOOOOOOOOOO",
"OOOOOOOOOOOOOOOOOO  ooooooooooXXXXXX......  OOOOOOOOOOOOOOOOOOOO",
"OOOOOOOOOOOOOOOOOO  ooooooooooXXXXXX......  OOOOOOOOOOOOOOOOOOOO",
"OOOOOOOOOOOOOOOOOO  oooooooooooo++++++..  OOOOOOOOOOOOOOOOOOOOOO",
"OOOOOOOOOOOOOOOOOO  oooooooooooo++++++..  OOOOOOOOOOOOOOOOOOOOOO",
"OOOOOOOOOOOOOOOO  oooooooooooooo++++++..  OOOOOOOOOOOOOOOOOOOOOO",
"OOOOOOOOOOOOOOOO  oooooooooooooo++++++..  OOOOOOOOOOOOOOOOOOOOOO",
"OOOOOOOOOOOOOOOO  oooooo..oooo++++++++++..  OOOOOOOOOOOOOOOOOOOO",
"OOOOOOOOOOOOOOOO  oooooo..oooo++++++++++..  OOOOOOOOOOOOOOOOOOOO",
"OOOOOOOOOOOOOO  oooooooo..oooo++++++++++..  OOOOOOOOOOOOOOOOOOOO",
"OOOOOOOOOOOOOO  oooooooo..oooo++++++++++..  OOOOOOOOOOOOOOOOOOOO",
"OOOOOOOOOOOOOO  oooooo..XXoooo++++++++++....  OOOOOOOOOOOOOOOOOO",
"OOOOOOOOOOOOOO  oooooo..XXoooo++++++++++....  OOOOOOOOOOOOOOOOOO",
"OOOOOOOOOOOOOO  oooooo..XXoooo++++++++++....  OOOOOOOOOOOOOOOOOO",
"OOOOOOOOOOOOOO  oooooo..XXoooo++++++++++....  OOOOOOOOOOOOOOOOOO",
"OOOOOOOOOOOOOOOO    ..XXXXoooo..++++++......  OOOOOOOOOOOOOOOOOO",
"OOOOOOOOOOOOOOOO    ..XXXXoooo..++++++......  OOOOOOOOOOOOOOOOOO",
"OOOOOOOOOOOOOOOOOOOO  XXoooooo..XXXX..      OOOOOOOOOOOOOOOOOOOO",
"OOOOOOOOOOOOOOOOOOOO  XXoooooo..XXXX..      OOOOOOOOOOOOOOOOOOOO",
"OOOOOOOOOOOOOOOOOOOO  oooooooooo  ....  OOOOOOOOOOOOOOOOOOOOOOOO",
"OOOOOOOOOOOOOOOOOOOO  oooooooooo  ....  OOOOOOOOOOOOOOOOOOOOOOOO",
"OOOOOOOOOOOOOOOOOOOOOO  oooooooo  ....  OOOOOOOOOOOOOOOOOOOOOOOO",
"OOOOOOOOOOOOOOOOOOOOOO  oooooooo  ....  OOOOOOOOOOOOOOOOOOOOOOOO",
"OOOOOOOOOOOOOOOOOOOOOO  oooooooo  ..  OOOOOOOOOOOOOOOOOOOOOOOOOO",
"OOOOOOOOOOOOOOOOOOOOOO  oooooooo  ..  OOOOOOOOOOOOOOOOOOOOOOOOOO",
"OOOOOOOOOOOOOOOOOOOOOOOO        ....  OOOOOOOOOOOOOOOOOOOOOOOOOO",
"OOOOOOOOOOOOOOOOOOOOOOOO        ....  OOOOOOOOOOOOOOOOOOOOOOOOOO"
};
