/* XPM */
static char *cc8a261bfda14ddeddf7e2e4b16ce417MtslAi1aVgVtMZtd[] = {
/* columns rows colors chars-per-pixel */
"64 64 9 1 ",
"  c black",
". c white",
"X c #F489F6",
"o c #D840FB",
"O c #780BF7",
"+ c #04193F",
"@ c #C2E3E8",
"# c #FCFEFE",
"$ c None",
/* pixels */
"@@@@@@@@@@@@@@@@@@@@@@@@@@@@@@@@@@@@@@@@@@@@@@@@@@@@@@@@@@@@@@@@",
"@@@@@@@@@@@@@@@@@@@@@@@@@@@@@@@@@@@@@@@@@@@@@@@@@@@@@@@@@@@@@@@@",
"@@@@@@@@@@@@@@@@@@@@@@@@@@@@@@@@@@@@@@@@@@@@@@@@@@@@@@@@@@@@@@@@",
"@@@@@@@@@@@@@@@@@@@@@@@@@@@@@@@@@@@@@@@@@@@@@@@@@@@@@@@@@@@@@@@@",
"@@@@@@@@@@@@@@@@@@@@@@@@@@@@@@@@@@@@@@@@@@@@@@@@@@@@@@@@@@@@@@@@",
"@@@@@@@@@@@@@@@@@@@@@@@@@@@@@@@@@@@@@@@@@@@@@@@@@@@@@@@@@@@@@@@@",
"@@@@@@@@@@@@@@@@@@@@@@@@@@@@@@@@@@@@@@@@@@@@@@@@@@@@@@@@@@@@@@@@",
"@@@@@@@@@@@@@@@@@@@@@@@@@@@@@@@@@@@@@@@@@@@@@@@@@@@@@@@@@@@@@@@@",
"@@@@@@@@@@@@@@@@@@@@@@@@@@++++@@@@@@@@@@++++@@@@@@@@@@@@@@@@@@@@",
"@@@@@@@@@@@@@@@@@@@@@@@@@@++++@@@@@@@@@@++++@@@@@@@@@@@@@@@@@@@@",
"@@@@@@@@@@@@@@@@@@@@@@@@++OOOO++@@@@@@++XXXX++@@@@@@@@@@@@@@@@@@",
"@@@@@@@@@@@@@@@@@@@@@@@@++OOOO++@@@@@@++XXXX++@@@@@@@@@@@@@@@@@@",
"@@@@@@@@@@@@@@@@@@@@@@@@++OOOOOO++@@++XXXXXXXX++@@@@@@@@@@@@@@@@",
"@@@@@@@@@@@@@@@@@@@@@@@@++OOOOOO++@@++XXXXXXXX++@@@@@@@@@@@@@@@@",
"@@@@@@@@@@@@@@@@@@@@@@++OOOOOOOO++++XXXXXXXXXX++@@@@@@@@@@@@@@@@",
"@@@@@@@@@@@@@@@@@@@@@@++OOOOOOOO++++XXXXXXXXXX++@@@@@@@@@@@@@@@@",
"@@@@@@@@@@@@@@@@@@@@@@++OOOOOOooooooooXXXXXX++@@@@@@@@@@@@@@@@@@",
"@@@@@@@@@@@@@@@@@@@@@@++OOOOOOooooooooXXXXXX++@@@@@@@@@@@@@@@@@@",
"@@@@@@@@@@@@@@@@@@@@++OOOOooooooXXXXXXXXXXoo++@@@@@@@@@@@@@@@@@@",
"@@@@@@@@@@@@@@@@@@@@++OOOOooooooXXXXXXXXXXoo++@@@@@@@@@@@@@@@@@@",
"@@@@@@@@@@@@@@@@@@@@++OOooooooXXXXXXXXXXXXXXoo++@@@@@@@@@@@@@@@@",
"@@@@@@@@@@@@@@@@@@@@++OOooooooXXXXXXXXXXXXXXoo++@@@@@@@@@@@@@@@@",
"@@@@@@@@@@@@@@@@@@++OOOO############XXXXXXXXXX++@@@@@@@@@@@@@@@@",
"@@@@@@@@@@@@@@@@@@++OOOO############XXXXXXXXXX++@@@@@@@@@@@@@@@@",
"@@@@@@@@@@@@@@@@@@++OO################XXXXXXXXoo++@@@@@@@@@@@@@@",
"@@@@@@@@@@@@@@@@@@++OO################XXXXXXXXoo++@@@@@@@@@@@@@@",
"@@@@@@@@@@@@@@@@++OO++++######++++++####XXXXXXXX++@@@@@@@@@@@@@@",
"@@@@@@@@@@@@@@@@++OO++++######++++++####XXXXXXXX++@@@@@@@@@@@@@@",
"@@@@@@@@@@@@@@@@++++##++++##++####++++##XXXXXXXX++@@@@@@@@@@@@@@",
"@@@@@@@@@@@@@@@@++++##++++##++####++++##XXXXXXXX++@@@@@@@@@@@@@@",
"@@@@@@@@@@@@@@@@++++##++++##++####++++##XXXXXXXX++@@@@@@@@@@@@@@",
"@@@@@@@@@@@@@@@@++++##++++##++####++++##XXXXXXXX++@@@@@@@@@@@@@@",
"@@@@@@@@@@@@@@@@++++++++++##++++++++++##XXXXXXXX++@@@@@@@@@@@@@@",
"@@@@@@@@@@@@@@@@++++++++++##++++++++++##XXXXXXXX++@@@@@@@@@@@@@@",
"@@@@@@@@@@@@@@@@++OO++++######++++++##XXXXXXXXoo++@@@@@@@@@@@@@@",
"@@@@@@@@@@@@@@@@++OO++++######++++++##XXXXXXXXoo++@@@@@@@@@@@@@@",
"@@@@@@@@@@@@@@@@@@++##################XXXXXXXX++@@@@@@@@@@@@@@@@",
"@@@@@@@@@@@@@@@@@@++##################XXXXXXXX++@@@@@@@@@@@@@@@@",
"@@@@@@@@@@@@@@@@@@++OO############ooXXXXXXXXoo++@@@@@@@@@@@@@@@@",
"@@@@@@@@@@@@@@@@@@++OO############ooXXXXXXXXoo++@@@@@@@@@@@@@@@@",
"@@@@@@@@@@@@@@@@@@@@++OOOOOOooooooXXXXXXXXXX++@@@@@@@@@@@@@@@@@@",
"@@@@@@@@@@@@@@@@@@@@++OOOOOOooooooXXXXXXXXXX++@@@@@@@@@@@@@@@@@@",
"@@@@@@@@@@@@@@@@@@@@@@++OO######XXXXXXXXXXXX++@@@@@@@@@@@@@@@@@@",
"@@@@@@@@@@@@@@@@@@@@@@++OO######XXXXXXXXXXXX++@@@@@@@@@@@@@@@@@@",
"@@@@@@@@@@@@@@@@@@@@++OOOO########XXOOXXXXXXXX++@@@@@@@@@@@@@@@@",
"@@@@@@@@@@@@@@@@@@@@++OOOO########XXOOXXXXXXXX++@@@@@@@@@@@@@@@@",
"@@@@@@@@@@@@@@@@@@@@++OO##########XXOOXXXXXXXX++@@@@@@@@@@@@@@@@",
"@@@@@@@@@@@@@@@@@@@@++OO##########XXOOXXXXXXXX++@@@@@@@@@@@@@@@@",
"@@@@@@@@@@@@@@@@@@++OOOO############ooOOXXXXXXXX++@@@@@@@@@@@@@@",
"@@@@@@@@@@@@@@@@@@++OOOO############ooOOXXXXXXXX++@@@@@@@@@@@@@@",
"@@@@@@@@@@@@@@@@@@++OOOO############ooOOXXXXXXXX++@@@@@@@@@@@@@@",
"@@@@@@@@@@@@@@@@@@++OOOO############ooOOXXXXXXXX++@@@@@@@@@@@@@@",
"@@@@@@@@@@@@@@@@@@++OOOO############XXooOOXXXXXX++@@@@@@@@@@@@@@",
"@@@@@@@@@@@@@@@@@@++OOOO############XXooOOXXXXXX++@@@@@@@@@@@@@@",
"@@@@@@@@@@@@@@@@@@@@++++OO########XXXXooooOOOO++@@@@@@@@@@@@@@@@",
"@@@@@@@@@@@@@@@@@@@@++++OO########XXXXooooOOOO++@@@@@@@@@@@@@@@@",
"@@@@@@@@@@@@@@@@@@@@@@++OOOOooooooXXXXXXoooo++@@@@@@@@@@@@@@@@@@",
"@@@@@@@@@@@@@@@@@@@@@@++OOOOooooooXXXXXXoooo++@@@@@@@@@@@@@@@@@@",
"@@@@@@@@@@@@@@@@@@@@@@++OOOOOOOO++++XXXXXXXX++@@@@@@@@@@@@@@@@@@",
"@@@@@@@@@@@@@@@@@@@@@@++OOOOOOOO++++XXXXXXXX++@@@@@@@@@@@@@@@@@@",
"@@@@@@@@@@@@@@@@@@@@@@@@++OOOOOO++++XXXXXXXX++@@@@@@@@@@@@@@@@@@",
"@@@@@@@@@@@@@@@@@@@@@@@@++OOOOOO++++XXXXXXXX++@@@@@@@@@@@@@@@@@@",
"@@@@@@@@@@@@@@@@@@@@@@@@++OOOOOO++@@++XXXXXX++@@@@@@@@@@@@@@@@@@",
"@@@@@@@@@@@@@@@@@@@@@@@@++OOOOOO++@@++XXXXXX++@@@@@@@@@@@@@@@@@@"
};
