/* XPM */
static char *_960c1be431b40fcb84c7fdc9ee72577qQw19J19PElmHOGx[] = {
/* columns rows colors chars-per-pixel */
"64 64 9 1 ",
"  c black",
". c white",
"X c #F489F6",
"o c #D840FB",
"O c #780BF7",
"+ c #04193F",
"@ c #C2E3E8",
"# c #FCFEFE",
"$ c None",
/* pixels */
"@@@@@@@@@@@@@@@@@@@@@@@@@@@@@@@@@@@@@@@@@@@@@@@@@@@@@@@@@@@@@@@@",
"@@@@@@@@@@@@@@@@@@@@@@@@@@@@@@@@@@@@@@@@@@@@@@@@@@@@@@@@@@@@@@@@",
"@@@@@@@@@@@@@@@@@@@@@@@@@@@@@@@@@@@@@@@@@@@@@@@@@@@@@@@@@@@@@@@@",
"@@@@@@@@@@@@@@@@@@@@@@@@@@@@@@@@@@@@@@@@@@@@@@@@@@@@@@@@@@@@@@@@",
"@@@@@@@@@@@@@@@@@@@@@@@@@@@@@@@@@@@@@@@@@@@@@@@@@@@@@@@@@@@@@@@@",
"@@@@@@@@@@@@@@@@@@@@@@@@@@@@@@@@@@@@@@@@@@@@@@@@@@@@@@@@@@@@@@@@",
"@@@@@@@@@@@@@@@@@@@@@@@@@@@@@@@@@@@@@@@@@@@@@@@@@@@@@@@@@@@@@@@@",
"@@@@@@@@@@@@@@@@@@@@@@@@@@@@@@@@@@@@@@@@@@@@@@@@@@@@@@@@@@@@@@@@",
"@@@@@@@@@@@@@@@@@@@@@@@@@@@@@@@@@@@@@@@@@@@@@@@@@@@@@@@@@@@@@@@@",
"@@@@@@@@@@@@@@@@@@@@@@@@@@@@@@@@@@@@@@@@@@@@@@@@@@@@@@@@@@@@@@@@",
"@@@@@@@@@@@@@@@@@@@@@@@@++++++@@@@@@@@++++++@@@@@@@@@@@@@@@@@@@@",
"@@@@@@@@@@@@@@@@@@@@@@@@++++++@@@@@@@@++++++@@@@@@@@@@@@@@@@@@@@",
"@@@@@@@@@@@@@@@@@@@@@@++OOOOOO++@@@@++XXXXXX++@@@@@@@@@@@@@@@@@@",
"@@@@@@@@@@@@@@@@@@@@@@++OOOOOO++@@@@++XXXXXX++@@@@@@@@@@@@@@@@@@",
"@@@@@@@@@@@@@@@@@@@@@@++OOOOOO++@@@@++XXXXXX++@@@@@@@@@@@@@@@@@@",
"@@@@@@@@@@@@@@@@@@@@@@++OOOOOO++@@@@++XXXXXX++@@@@@@@@@@@@@@@@@@",
"@@@@@@@@@@@@@@@@@@@@@@++OOOOOO++++++XXXXXXXX++@@@@@@@@@@@@@@@@@@",
"@@@@@@@@@@@@@@@@@@@@@@++OOOOOO++++++XXXXXXXX++@@@@@@@@@@@@@@@@@@",
"@@@@@@@@@@@@@@@@@@@@++OOOOOOOOooooooooXXXXXX++@@@@@@@@@@@@@@@@@@",
"@@@@@@@@@@@@@@@@@@@@++OOOOOOOOooooooooXXXXXX++@@@@@@@@@@@@@@@@@@",
"@@@@@@@@@@@@@@@@@@@@++OOOOooooooXXXXXXXXXXXXoo++@@@@@@@@@@@@@@@@",
"@@@@@@@@@@@@@@@@@@@@++OOOOooooooXXXXXXXXXXXXoo++@@@@@@@@@@@@@@@@",
"@@@@@@@@@@@@@@@@@@@@++OOooooooXXXXXXXXXXXXXXoo++@@@@@@@@@@@@@@@@",
"@@@@@@@@@@@@@@@@@@@@++OOooooooXXXXXXXXXXXXXXoo++@@@@@@@@@@@@@@@@",
"@@@@@@@@@@@@@@@@@@++OOOO############XXXXXXXXXX++@@@@@@@@@@@@@@@@",
"@@@@@@@@@@@@@@@@@@++OOOO############XXXXXXXXXX++@@@@@@@@@@@@@@@@",
"@@@@@@@@@@@@@@@@@@++OO################XXXXXXXXoo++@@@@@@@@@@@@@@",
"@@@@@@@@@@@@@@@@@@++OO################XXXXXXXXoo++@@@@@@@@@@@@@@",
"@@@@@@@@@@@@@@@@++OO++++######++++++####XXXXXXXX++@@@@@@@@@@@@@@",
"@@@@@@@@@@@@@@@@++OO++++######++++++####XXXXXXXX++@@@@@@@@@@@@@@",
"@@@@@@@@@@@@@@@@++++##++++##++####++++##XXXXXXXX++@@@@@@@@@@@@@@",
"@@@@@@@@@@@@@@@@++++##++++##++####++++##XXXXXXXX++@@@@@@@@@@@@@@",
"@@@@@@@@@@@@@@@@++++++++++##++++++++++##XXXXXXXX++@@@@@@@@@@@@@@",
"@@@@@@@@@@@@@@@@++++++++++##++++++++++##XXXXXXXX++@@@@@@@@@@@@@@",
"@@@@@@@@@@@@@@@@++++++++++##++++++++++##XXXXXXXX++@@@@@@@@@@@@@@",
"@@@@@@@@@@@@@@@@++++++++++##++++++++++##XXXXXXXX++@@@@@@@@@@@@@@",
"@@@@@@@@@@@@@@@@++OO++++######++++++##XXXXXXXXoo++@@@@@@@@@@@@@@",
"@@@@@@@@@@@@@@@@++OO++++######++++++##XXXXXXXXoo++@@@@@@@@@@@@@@",
"@@@@@@@@@@@@@@@@@@++##################XXXXXXXX++@@@@@@@@@@@@@@@@",
"@@@@@@@@@@@@@@@@@@++##################XXXXXXXX++@@@@@@@@@@@@@@@@",
"@@@@@@@@@@@@@@@@@@++OO############ooXXXXXXXXoo++@@@@@@@@@@@@@@@@",
"@@@@@@@@@@@@@@@@@@++OO############ooXXXXXXXXoo++@@@@@@@@@@@@@@@@",
"@@@@@@@@@@@@@@@@@@@@++OOOOOOooooooXXXXXXXXXX++@@@@@@@@@@@@@@@@@@",
"@@@@@@@@@@@@@@@@@@@@++OOOOOOooooooXXXXXXXXXX++@@@@@@@@@@@@@@@@@@",
"@@@@@@@@@@@@@@@@@@@@@@++OO######XXXXXXXXXXXX++@@@@@@@@@@@@@@@@@@",
"@@@@@@@@@@@@@@@@@@@@@@++OO######XXXXXXXXXXXX++@@@@@@@@@@@@@@@@@@",
"@@@@@@@@@@@@@@@@@@@@@@++OO########XXOOXXXXXX++@@@@@@@@@@@@@@@@@@",
"@@@@@@@@@@@@@@@@@@@@@@++OO########XXOOXXXXXX++@@@@@@@@@@@@@@@@@@",
"@@@@@@@@@@@@@@@@@@@@@@++##########XXOOXXXXXX++@@@@@@@@@@@@@@@@@@",
"@@@@@@@@@@@@@@@@@@@@@@++##########XXOOXXXXXX++@@@@@@@@@@@@@@@@@@",
"@@@@@@@@@@@@@@@@@@@@@@++##########OOXXXXXXXX++@@@@@@@@@@@@@@@@@@",
"@@@@@@@@@@@@@@@@@@@@@@++##########OOXXXXXXXX++@@@@@@@@@@@@@@@@@@",
"@@@@@@@@@@@@@@@@@@@@@@++##########OOXXXXXXOO++@@@@@@@@@@@@@@@@@@",
"@@@@@@@@@@@@@@@@@@@@@@++##########OOXXXXXXOO++@@@@@@@@@@@@@@@@@@",
"@@@@@@@@@@@@@@@@@@@@@@++##########OOXXXXXXOO++@@@@@@@@@@@@@@@@@@",
"@@@@@@@@@@@@@@@@@@@@@@++##########OOXXXXXXOO++@@@@@@@@@@@@@@@@@@",
"@@@@@@@@@@@@@@@@@@@@@@++OO########ooOOOOOOoo++@@@@@@@@@@@@@@@@@@",
"@@@@@@@@@@@@@@@@@@@@@@++OO########ooOOOOOOoo++@@@@@@@@@@@@@@@@@@",
"@@@@@@@@@@@@@@@@@@@@++OOOOOOooooooooooooooXX++@@@@@@@@@@@@@@@@@@",
"@@@@@@@@@@@@@@@@@@@@++OOOOOOooooooooooooooXX++@@@@@@@@@@@@@@@@@@",
"@@@@@@@@@@@@@@@@@@++OOOOOOOOOO++++++XXXXXXXXXX++@@@@@@@@@@@@@@@@",
"@@@@@@@@@@@@@@@@@@++OOOOOOOOOO++++++XXXXXXXXXX++@@@@@@@@@@@@@@@@",
"@@@@@@@@@@@@@@@@@@++OOOOOOOO++@@@@@@++XXXXXXXX++@@@@@@@@@@@@@@@@",
"@@@@@@@@@@@@@@@@@@++OOOOOOOO++@@@@@@++XXXXXXXX++@@@@@@@@@@@@@@@@"
};
