/* XPM */
static char *result[] = {
/* columns rows colors chars-per-pixel */
"64 64 6 1 ",
"  c #04193F",
". c #780BF7",
"X c #D840FB",
"o c #F489F6",
"O c #C2E3E8",
"+ c #FCFEFE",
/* pixels */
"OOOOOOOOOOOOOOOOOOOOOOOOOOOOOOOOOOOOOOOOOOOOOOOOOOOOOOOOOOOOOOOO",
"OOOOOOOOOOOOOOOOOOOOOOOOOOOOOOOOOOOOOOOOOOOOOOOOOOOOOOOOOOOOOOOO",
"OOOOOOOOOOOOOOOOOOOOOOOOOOOOOOOOOOOOOOOOOOOOOOOOOOOOOOOOOOOOOOOO",
"OOOOOOOOOOOOOOOOOOOOOOOOOOOOOOOOOOOOOOOOOOOOOOOOOOOOOOOOOOOOOOOO",
"OOOOOOOOOOOOOOOOOOOOOOOOOOOOOOOOOOOOOOOOOOOOOOOOOOOOOOOOOOOOOOOO",
"OOOOOOOOOOOOOOOOOOOOOOOOOOOOOOOOOOOOOOOOOOOOOOOOOOOOOOOOOOOOOOOO",
"OOOOOOOOOOOOOOOOOOOOOOOOOOOOOOOOOOOOOOOOOOOOOOOOOOOOOOOOOOOOOOOO",
"OOOOOOOOOOOOOOOOOOOOOOOOOOOOOOOOOOOOOOOOOOOOOOOOOOOOOOOOOOOOOOOO",
"OOOOOOOOOOOOOOOOOOOO    OOOOOOOOOO    OOOOOOOOOOOOOOOOOOOOOOOOOO",
"OOOOOOOOOOOOOOOOOOOO    OOOOOOOOOO    OOOOOOOOOOOOOOOOOOOOOOOOOO",
"OOOOOOOOOOOOOOOOOO  oooo  OOOOOO  ....  OOOOOOOOOOOOOOOOOOOOOOOO",
"OOOOOOOOOOOOOOOOOO  oooo  OOOOOO  ....  OOOOOOOOOOOOOOOOOOOOOOOO",
"OOOOOOOOOOOOOOOO  oooooooo  OO  ......  OOOOOOOOOOOOOOOOOOOOOOOO",
"OOOOOOOOOOOOOOOO  oooooooo  OO  ......  OOOOOOOOOOOOOOOOOOOOOOOO",
"OOOOOOOOOOOOOOOO  oooooooooo    ........  OOOOOOOOOOOOOOOOOOOOOO",
"OOOOOOOOOOOOOOOO  oooooooooo    ........  OOOOOOOOOOOOOOOOOOOOOO",
"OOOOOOOOOOOOOOOOOO  ooooooXXXXXXXX......  OOOOOOOOOOOOOOOOOOOOOO",
"OOOOOOOOOOOOOOOOOO  ooooooXXXXXXXX......  OOOOOOOOOOOOOOOOOOOOOO",
"OOOOOOOOOOOOOOOOOO  XXooooooooooXXXXXX....  OOOOOOOOOOOOOOOOOOOO",
"OOOOOOOOOOOOOOOOOO  XXooooooooooXXXXXX....  OOOOOOOOOOOOOOOOOOOO",
"OOOOOOOOOOOOOOOO  XXooooooooooooooXXXXXX..  OOOOOOOOOOOOOOOOOOOO",
"OOOOOOOOOOOOOOOO  XXooooooooooooooXXXXXX..  OOOOOOOOOOOOOOOOOOOO",
"OOOOOOOOOOOOOOOO  oooooooooo++++++++++++....  OOOOOOOOOOOOOOOOOO",
"OOOOOOOOOOOOOOOO  oooooooooo++++++++++++....  OOOOOOOOOOOOOOOOOO",
"OOOOOOOOOOOOOO  XXoooooooo++++++++++++++++..  OOOOOOOOOOOOOOOOOO",
"OOOOOOOOOOOOOO  XXoooooooo++++++++++++++++..  OOOOOOOOOOOOOOOOOO",
"OOOOOOOOOOOOOO  oooooooo++++      ++++++    ..  OOOOOOOOOOOOOOOO",
"OOOOOOOOOOOOOO  oooooooo++++      ++++++    ..  OOOOOOOOOOOOOOOO",
"OOOOOOOOOOOOOO  oooooooo++    ++++  ++    ++    OOOOOOOOOOOOOOOO",
"OOOOOOOOOOOOOO  oooooooo++    ++++  ++    ++    OOOOOOOOOOOOOOOO",
"OOOOOOOOOOOOOO  oooooooo++    ++++  ++    ++    OOOOOOOOOOOOOOOO",
"OOOOOOOOOOOOOO  oooooooo++    ++++  ++    ++    OOOOOOOOOOOOOOOO",
"OOOOOOOOOOOOOO  oooooooo++          ++          OOOOOOOOOOOOOOOO",
"OOOOOOOOOOOOOO  oooooooo++          ++          OOOOOOOOOOOOOOOO",
"OOOOOOOOOOOOOO  XXoooooooo++      ++++++    ..  OOOOOOOOOOOOOOOO",
"OOOOOOOOOOOOOO  XXoooooooo++      ++++++    ..  OOOOOOOOOOOOOOOO",
"OOOOOOOOOOOOOOOO  oooooooo++++++++++++++++++  OOOOOOOOOOOOOOOOOO",
"OOOOOOOOOOOOOOOO  oooooooo++++++++++++++++++  OOOOOOOOOOOOOOOOOO",
"OOOOOOOOOOOOOOOO  XXooooooooXX++++++++++++..  OOOOOOOOOOOOOOOOOO",
"OOOOOOOOOOOOOOOO  XXooooooooXX++++++++++++..  OOOOOOOOOOOOOOOOOO",
"OOOOOOOOOOOOOOOOOO  ooooooooooXXXXXX......  OOOOOOOOOOOOOOOOOOOO",
"OOOOOOOOOOOOOOOOOO  ooooooooooXXXXXX......  OOOOOOOOOOOOOOOOOOOO",
"OOOOOOOOOOOOOOOOOO  oooooooooooo++++++..  OOOOOOOOOOOOOOOOOOOOOO",
"OOOOOOOOOOOOOOOOOO  oooooooooooo++++++..  OOOOOOOOOOOOOOOOOOOOOO",
"OOOOOOOOOOOOOOOO  oooooooo..oo++++++++....  OOOOOOOOOOOOOOOOOOOO",
"OOOOOOOOOOOOOOOO  oooooooo..oo++++++++....  OOOOOOOOOOOOOOOOOOOO",
"OOOOOOOOOOOOOOOO  oooooooo..oo++++++++++..  OOOOOOOOOOOOOOOOOOOO",
"OOOOOOOOOOOOOOOO  oooooooo..oo++++++++++..  OOOOOOOOOOOOOOOOOOOO",
"OOOOOOOOOOOOOO  oooooooo..XX++++++++++++....  OOOOOOOOOOOOOOOOOO",
"OOOOOOOOOOOOOO  oooooooo..XX++++++++++++....  OOOOOOOOOOOOOOOOOO",
"OOOOOOOOOOOOOO  oooooooo..XX++++++++++++....  OOOOOOOOOOOOOOOOOO",
"OOOOOOOOOOOOOO  oooooooo..XX++++++++++++....  OOOOOOOOOOOOOOOOOO",
"OOOOOOOOOOOOOO  oooooo..XXoo++++++++++++....  OOOOOOOOOOOOOOOOOO",
"OOOOOOOOOOOOOO  oooooo..XXoo++++++++++++....  OOOOOOOOOOOOOOOOOO",
"OOOOOOOOOOOOOOOO  ....XXXXoooo++++++++..    OOOOOOOOOOOOOOOOOOOO",
"OOOOOOOOOOOOOOOO  ....XXXXoooo++++++++..    OOOOOOOOOOOOOOOOOOOO",
"OOOOOOOOOOOOOOOOOO  XXXXooooooXXXXXX....  OOOOOOOOOOOOOOOOOOOOOO",
"OOOOOOOOOOOOOOOOOO  XXXXooooooXXXXXX....  OOOOOOOOOOOOOOOOOOOOOO",
"OOOOOOOOOOOOOOOOOO  oooooooo    ........  OOOOOOOOOOOOOOOOOOOOOO",
"OOOOOOOOOOOOOOOOOO  oooooooo    ........  OOOOOOOOOOOOOOOOOOOOOO",
"OOOOOOOOOOOOOOOOOO  oooooooo    ......  OOOOOOOOOOOOOOOOOOOOOOOO",
"OOOOOOOOOOOOOOOOOO  oooooooo    ......  OOOOOOOOOOOOOOOOOOOOOOOO",
"OOOOOOOOOOOOOOOOOO  oooooo  OO  ......  OOOOOOOOOOOOOOOOOOOOOOOO",
"OOOOOOOOOOOOOOOOOO  oooooo  OO  ......  OOOOOOOOOOOOOOOOOOOOOOOO"
};
